<?xml version="1.0" encoding="utf-8"?>
<!-- Generator: Adobe Illustrator 27.7.0, SVG Export Plug-In . SVG Version: 6.00 Build 0)  -->
<svg version="1.1" id="レイヤー_1" xmlns="http://www.w3.org/2000/svg" xmlns:xlink="http://www.w3.org/1999/xlink" x="0px"
	 y="0px" viewBox="0 0 29.88 29.88" style="enable-background:new 0 0 29.88 29.88;" xml:space="preserve">
<style type="text/css">
	.st0{fill:none;}
	.st1{fill:#7FBE26;}
</style>
<g>
	<path d="M9.24,19.25c0.04,1.75,0.26,2.31,0.83,2.48c0.41,0.11,0.88,0.13,1.07,0.13c0.11,0,0.17,0.04,0.17,0.13
		c0,0.13-0.13,0.17-0.39,0.17c-1.22,0-2.07-0.06-2.26-0.06c-0.19,0-1.09,0.06-2.05,0.06c-0.21,0-0.34-0.02-0.34-0.17
		c0-0.09,0.06-0.13,0.17-0.13c0.17,0,0.56-0.02,0.88-0.13c0.53-0.15,0.64-0.77,0.64-2.71L7.98,6.77c0-0.83,0.06-1.07,0.24-1.07
		c0.17,0,0.53,0.47,0.75,0.68c0.32,0.36,3.5,3.8,6.79,7.33c2.11,2.26,4.44,4.87,5.13,5.58L20.65,8.44
		c-0.02-1.39-0.17-1.86-0.83-2.03c-0.38-0.09-0.88-0.11-1.05-0.11c-0.15,0-0.17-0.06-0.17-0.15c0-0.13,0.17-0.15,0.43-0.15
		c0.96,0,1.99,0.06,2.22,0.06c0.23,0,0.94-0.06,1.82-0.06c0.24,0,0.38,0.02,0.38,0.15c0,0.08-0.08,0.15-0.23,0.15
		c-0.11,0-0.26,0-0.51,0.06c-0.7,0.15-0.79,0.62-0.79,1.9l-0.04,12.52c0,1.41-0.04,1.52-0.19,1.52c-0.17,0-0.43-0.24-1.56-1.37
		c-0.24-0.21-3.31-3.35-5.57-5.79c-2.48-2.67-4.89-5.36-5.58-6.13L9.24,19.25z"/>
	<g>
		<path class="st0" d="M29.88,27.04c0,1.56-1.28,2.83-2.83,2.83H2.83C1.28,29.88,0,28.6,0,27.04V2.83C0,1.28,1.28,0,2.83,0h24.21
			c1.56,0,2.83,1.28,2.83,2.83V27.04z"/>
	</g>
	<path class="st1" d="M5.26,24.51L4.35,26.8c0,0,8.15-0.46,12.49-0.86c4.52-0.41,6.68-0.68,8.1-0.97c0.89-0.18,1.8-0.83,1.8-0.83
		L5.26,24.51z"/>
</g>
</svg>
