<?xml version="1.0" encoding="utf-8"?>
<!-- Generator: Adobe Illustrator 27.9.2, SVG Export Plug-In . SVG Version: 6.00 Build 0)  -->
<svg version="1.1" id="レイヤー_1" xmlns="http://www.w3.org/2000/svg" xmlns:xlink="http://www.w3.org/1999/xlink" x="0px"
	 y="0px" viewBox="0 0 512 512" style="enable-background:new 0 0 512 512;" xml:space="preserve">
<style type="text/css">
	.st0{fill:none;}
	.st1{fill:#6C5A44;}
	.st2{fill:#BA9E71;}
	.st3{fill:#847461;}
	.st4{fill:#A28663;}
	.st5{fill:#A9815D;}
	.st6{fill:#896F55;}
	.st7{clip-path:url(#SVGID_00000142874062331957629770000015616576157867313299_);fill:#F6F0D3;}
	.st8{fill:none;stroke:#F6F0D3;stroke-width:15;stroke-miterlimit:10;}
	.st9{fill:#CE0909;}
	.st10{fill:#FFFFFF;}
	.st11{fill:#4F0A0A;}
	.st12{fill:#666666;}
	.st13{fill:#D6D6D6;}
	.st14{fill:#EFEFEF;}
	.st15{fill:#865C4B;}
	.st16{fill:#96694B;}
	.st17{fill:#8C8C8C;}
	.st18{fill:#C7E2ED;enable-background:new    ;}
	.st19{fill:#7A453D;}
	.st20{enable-background:new    ;}
	.st21{fill:#693C34;}
	.st22{fill:#5F3332;}
	.st23{fill:#C9BAA1;}
	.st24{fill:url(#SVGID_00000062174862225125286350000003382899074011292038_);}
	.st25{fill:#BDBDBD;enable-background:new    ;}
	.st26{fill:url(#SVGID_00000078747903003693952080000006333703953699387520_);}
	.st27{fill:#BEAD90;}
	.st28{fill:#7A9E4E;}
	.st29{fill:url(#SVGID_00000089559252962793939850000013902709862806815380_);}
	.st30{fill:#ABD3E4;}
	.st31{opacity:0.55;}
	.st32{fill:#292929;}
	.st33{fill:#6B3B2C;}
	.st34{fill:#4D272B;}
	.st35{fill:#D0E7F0;}
	.st36{fill:#A96F48;}
	.st37{fill:#AD4E39;}
	.st38{fill:#D9A681;}
</style>
<pattern  width="141.7" height="141.7" patternUnits="userSpaceOnUse" id="Unnamed_Pattern_2" viewBox="23 -154.5 141.7 141.7" style="overflow:visible;">
	<g>
		<rect x="23" y="-154.5" class="st0" width="141.7" height="141.7"/>
		<polygon class="st1" points="111.8,-112.8 108.3,-121.8 114.6,-135.5 139.7,-135.5 139.7,-120.8 136.5,-112.8 		"/>
		<path class="st2" d="M48.3-109l-3.9-6c0,0,0.2-10.7,2.7-13.2c0,0,16.6-2.1,18.7,0c2.1,2.1,4.2,13.2,2.1,15.4
			c-2.1,2.1-5.7,3.9-5.7,3.9H48.3z"/>
		<path class="st3" d="M53.1-69.5l4.2,5.3c0,0,0.1,9.7-2.4,12.1c0,0-16.8,2.4-19,0.6c-2.2-1.8-4.7-11.9-2.6-13.9
			c2.1-2,5.7-3.7,5.7-3.7L53.1-69.5z"/>
		<path class="st2" d="M105.1-88.6l5.2,7.5c0,0-0.3,13.3-3.7,16.5c0,0-22.3,2.5-25.1-0.1c-2.8-2.6-5.6-16.6-2.7-19.2
			c2.8-2.6,7.7-4.8,7.7-4.8L105.1-88.6z"/>
		<path class="st4" d="M18.8-141.7c0,0-13.2-9-6.6-15.6c6.6-6.6,22.7-6.6,22.7-6.6s7.6,8.5,7.6,11.8c0,3.3-3.3,10.4-3.3,10.4H18.8z"
			/>
		<path class="st4" d="M160.6-141.7c0,0-13.2-9-6.6-15.6c6.6-6.6,22.7-6.6,22.7-6.6s7.6,8.5,7.6,11.8c0,3.3-3.3,10.4-3.3,10.4H160.6
			z"/>
		<path class="st4" d="M18.8,0c0,0-13.2-9-6.6-15.6c6.6-6.6,22.7-6.6,22.7-6.6s7.6,8.5,7.6,11.8C42.4-7.1,39.1,0,39.1,0H18.8z"/>
		<path class="st4" d="M160.6,0c0,0-13.2-9-6.6-15.6c6.6-6.6,22.7-6.6,22.7-6.6s7.6,8.5,7.6,11.8c0,3.3-3.3,10.4-3.3,10.4H160.6z"/>
		<path class="st5" d="M68.4-36.8c0,0,8.1,6.5,4.1,11.3c-4.1,4.8-13.9,4.8-13.9,4.8s-4.6-6.2-4.6-8.6c0-2.4,2-7.5,2-7.5H68.4z"/>
		<path class="st6" d="M6.2-80.5C4.1-86.2,0-91,5-96.9c3.8-4.4,11-7.5,17.1-6c6.5,1.6,7.9,9,8.1,14.6c0.2,7.1-5.6,8.5-11.8,8.5
			c-3.8,0-7.6,0-11.4,0L6.2-80.5z"/>
		<path class="st1" d="M121.6-39.6c-1.6-4.4-4.8-8-0.9-12.5c2.9-3.4,8.4-5.8,13.1-4.6c5,1.3,6.1,6.9,6.2,11.2c0.2,5.4-4.3,6.5-9,6.5
			c-2.9,0-5.8,0-8.7,0L121.6-39.6z"/>
		<path class="st3" d="M87.8-148.7c-2.1-3.3-6.2-6.2-1.2-9.6c3.8-2.6,11-4.4,17.1-3.5c6.5,1,7.9,5.3,8.1,8.6c0.2,4.2-5.6,5-11.8,5
			c-3.8,0-7.6,0-11.4,0L87.8-148.7z"/>
		<path class="st3" d="M87.8-7c-2.1-3.3-6.2-6.2-1.2-9.6c3.8-2.6,11-4.4,17.1-3.5c6.5,1,7.9,5.3,8.1,8.6c0.2,4.2-5.6,5-11.8,5
			c-3.8,0-7.6,0-11.4,0L87.8-7z"/>
		<path class="st6" d="M147.9-80.5c-2.1-5.7-6.2-10.5-1.2-16.3c3.8-4.4,11-7.5,17.1-6c6.5,1.6,7.9,9,8.1,14.6
			c0.2,7.1-5.6,8.5-11.8,8.5c-3.8,0-7.6,0-11.4,0L147.9-80.5z"/>
	</g>
</pattern>
<g>
	<defs>
		<path id="SVGID_1_" d="M465.5,512H46.5C20.9,512,0,491.1,0,465.5V46.5C0,20.9,20.9,0,46.5,0h418.9C491.1,0,512,20.9,512,46.5
			v418.9C512,491.1,491.1,512,465.5,512z"/>
	</defs>
	<clipPath id="SVGID_00000160905461110360295690000016782580893070910362_">
		<use xlink:href="#SVGID_1_"  style="overflow:visible;"/>
	</clipPath>
	
		<rect x="-4.7" style="clip-path:url(#SVGID_00000160905461110360295690000016782580893070910362_);fill:#F6F0D3;" width="516.7" height="516.7"/>
</g>
<g>
	<path class="st8" d="M298.9,259.2c2.3,0.6,3.2,2.1,2.9,4.4c-0.5,1.6-1.9,2.7-4,3.3c-14.4,0.2-36.4,2.6-65.9,7.3
		c-5.7,7.2-12.1,14.5-19.3,21.8c-1,1.1-1.9,2.1-2.7,3c0.2-0.2,0.4-0.3,0.5-0.3c2-0.5,3.8,0,5.2,1.4c0.8,0.4,1.6,1.4,2.6,3
		c11.3-3.7,30.3-7.4,57.2-11.1c6.2-0.9,11.9-1.3,17.1-1.2c1.3,0.4,2.3,1.2,3.1,2.5c0.8,0.9,0.9,2,0.5,3.3c0.8,0.7-2.9,5.6-11,14.7
		l-9.7,11.6l9.5-0.4c4.1,0,6.7,0,7.9,0.1c2.1,0.5,3.5,1.7,4,3.7c-0.9,3.2-3.2,4.7-6.9,4.5c-5.3-1.6-16.3-1.3-33.2,0.8
		c-3.5,0.5-6.1,0.8-7.6,0.8c-0.9-0.2-1.7-0.6-2.6-1.4c-1.5-2.3-1.1-3.9,1.1-4.8c1.1-0.5,4.5-1.1,10.2-1.8c4.3-0.2,7.2-0.8,8.7-1.8
		c5.9-7.9,11.8-15.6,17.6-23.3c0.9-0.8,0.1-1.2-2.3-1.2c-9.2,0.2-24,2.4-44.3,6.7c-6.2,1.4-11.7,3.1-16.3,5.1l4.7,14.2l1.6,3.7
		c-0.4,2.4-1.9,3.7-4.4,4.1c-3.1-0.2-4.9-1.6-5.5-4.1c-2.1-10.2-4.9-18.1-8.2-23.7c-1.3-1.6-1.8-2.6-1.6-3.2
		c-6,6.3-12.3,12.6-18.9,18.8c-1.8,1.1-3.4,1.2-4.7,0.4c-1.5-1.6-1.7-3.4-0.5-5.2c1.7-1.6,7.9-7.6,18.7-17.9
		c7.5-7.9,13.9-14.9,19-21.1c-2.9,0.5-5.7,0.9-8.5,1.4c-12.4,2.2-23.5,4.6-33.5,7.1c-1.1,0.2-2.1,0.1-3.1-0.1
		c-1.9-0.6-3.1-1.6-3.4-2.9c-0.3-1-0.1-1.9,0.8-2.6c0.6-1.1,12.9-3.7,36.7-7.9c5.6-0.9,11.4-1.8,17.4-2.7c3.7-4.7,6.7-9,9-12.7
		c0.5-1.1,1-2.1,1.5-3.1c0.5-1,1.7-1.3,3.4-1c1.7,0.2,2.8,1.4,3.2,3.7c0,1.1-0.9,2.8-2.6,5.1c-1.5,2.2-3.1,4.3-4.7,6.4
		c16.5-2.3,34.8-4.5,54.8-6.7C295.8,259.3,297.9,259.1,298.9,259.2z M252.3,251.3c-2,1.1-4,1.1-5.8,0.1c-1.5-1.1-1.9-2.4-1.1-4
		c3.7-5.2,7-11,10.2-17.3c-12.1,1.3-24.1,2.6-35.9,4.1c1.5,4.8,3.3,9.5,5.3,14c0.5,1.8-0.2,3.4-2.3,4.7c-2.6,0.6-4.4,0-5.5-1.8
		c-1.6-2.1-3.5-7.4-5.8-16c-7.2,0.7-13.1,1.4-17.6,1.9c-2.9,0.3-4.9-1-6.1-3.7c-0.2-2,1.1-3.2,3.9-3.7c5-0.5,11.1-1,18.2-1.6
		c-0.6-2.6-1.2-5.1-1.8-7.3c-0.6-2.3-0.8-3.8-0.5-4.5c0.6-2,2.3-2.8,4.8-2.3c1.6,0.6,2.8,1.6,3.7,2.7l0.5,3.4
		c0.3,2.5,0.8,4.8,1.3,7.1c8.4-0.8,22.1-2.3,41.2-4.5c1.8-3.9,3.5-8,5-12.2c0.2-0.5,0.3-1.1,0.3-1.8v-1.1c0.8-0.7,2-1.1,3.9-1.1
		c2.8,1,4.3,2.7,4.5,5.1c-1.4,3.6-2.8,6.9-4.2,10c5.7-0.6,11.1-1.3,16.1-2.1c2-0.3,3.9-0.5,5.6-0.8c2.5,0.1,4.2,1.1,5.2,3.2
		c0.6,2.8-0.4,4.6-3.2,5.3c-0.6,0.1-1.3,0.1-1.9,0c-1.2-0.1-3,0-5.3,0.1c-6.8,0.6-13.5,1.3-20.1,1.9
		C260.8,237.3,256.6,244.7,252.3,251.3z"/>
	<path class="st8" d="M374.8,238.7c2.6,0.3,4.2,1.1,5,2.6c0.3,1.6,0.1,3-0.8,4c-0.4,0.6-1.1,1.1-2.1,1.2c-2.5,0.4-5.3,0.8-8.4,1.2
		c-2,0.5-4.4,1.1-6.9,1.8c-0.3,7.8-0.5,15.4-0.6,23c0.4,0,0.8,0,1.1,0.1c4.7,0.8,11.2,3.4,19.5,7.8c2.3,2.1,2.5,4.1,0.8,6
		c-1.7,1.4-3.7,1.3-5.8-0.3c-7.1-3-12-4.9-14.8-5.6c-0.4-0.2-0.7-0.3-0.8-0.3c-0.1,11.2,0.1,22.4,0.5,33.6c-0.2,1.4,0.5,3.6,2.1,6.6
		c0,2-1.2,3.6-3.5,4.7c-1.2,0.1-2.3,0-3.4-0.4c-7.8-5.1-15.4-14.4-22.7-27.8l-7.1,10.3c-0.3,0.8-0.4,1.8-0.3,2.9
		c0,0.6-0.5,1.2-1.5,1.8c-2,1.1-3.7,1.3-4.8,0.7c-2.2-0.7-3-2.8-2.6-6.3c3.5-5.2,6.6-9.6,9.2-13.3c1.7-2.6,2.7-4.4,3.1-5.3
		c0.1-0.5,0.3-1.1,0.6-1.6c0.8-0.7,1.7-1,2.9-1c2.6,0.1,4.1,0.8,4.7,2.1c2.8,8.8,6.9,16,12.4,21.8c1.5,1.8,2.4,2.5,2.7,1.9
		s0.4-1.5,0.3-2.9c-0.9-17.3-0.9-36.1-0.2-56.2c-4.8,1.4-10.2,3-16.1,4.9c-2.5,0.6-4.7,1-6.8,1c-2.2-0.4-3.3-1.2-3.4-2.6
		c-0.3-1.2-0.2-2.1,0.5-2.9c0.3-0.9,2.6-1.7,6.9-2.3c2.9-0.6,7.5-1.9,13.9-3.8c1.9-0.5,3.7-1,5.3-1.5c0.4-8.7,1-17.5,1.8-26.4
		c-0.3-1.2-0.5-2.6-0.5-4.1c0.1-1.2,0.6-2,1.6-2.3c3.5-0.8,6.1,0,7.6,2.3c0.4,0.7,0.2,2.7-0.6,6c-0.8,7.3-1.3,14.7-1.6,22.2
		c2.9-0.8,5.6-1.6,8.2-2.3C371.5,239.2,373,238.8,374.8,238.7z M414.9,219.1c1-2,3-2.5,6-1.4c1.8,1.5,2,3.3,0.5,5.6
		c-20.6,28.3-32.9,43.2-36.7,44.8c-1.8,0.6-3.4,0.5-4.7-0.4c-1.4-1.4-1.7-2.8-0.8-4.4c0.5-0.5,1.5-1.3,2.9-2.2
		c1.1-0.8,2.4-2,3.9-3.4C396,245.3,405.6,232.4,414.9,219.1z M464.8,323.4c-1,1.5-2.8,1.7-5.5,0.8c-2.2-1.5-4.1-3-6-4.5
		c-5.2-3.8-10.5-7.6-16-11.2c-11.8,2.2-25.8,6.4-42.1,12.7c-2.2,0.1-3.7-0.1-4.7-0.7c-1.5-1-2.4-2.3-2.7-3.8
		c0.1-2.5,2.5-5.8,7.3-10.1c4.1-6.8,8.7-14.7,13.9-23.4c5.2-7.9,9-14.5,11.4-19.6c1.1-0.8,2.4-1,4-0.4c2,0.5,3,1.8,2.9,3.8
		c0.4,1.7-2.5,7-8.9,15.9c-5.1,6.8-10.9,16.3-17.4,28.6c4.5-1.6,10.6-3.6,18.2-5.9c4-1.2,9-2.4,15.1-3.6c1.4-1.6,3.5-2.2,6.3-2.1
		c1,0.3,1.9,0.7,2.7,1.4c2.7,2.8,5.3,5.3,7.9,7.5c4.3,3.6,8.1,6.7,11.3,9.5C465.1,319.9,465.8,321.6,464.8,323.4z M460.2,257.3
		c-7-3.6-12.6-6.3-16.8-8.4c-9.2-3.7-17.1-7.2-23.7-10.7c-0.9-1.6-1-3.1-0.3-4.5c3-2.2,5.4-2.5,7.3-1c1.5,1.3,8.6,4.7,21.4,10.3
		c8.2,3.9,13.6,6.5,16.4,7.8c1.4,1,1.8,2.4,1.1,4.2C464.6,257.3,462.7,258,460.2,257.3z"/>
</g>
<g>
</g>
<g>
</g>
<g>
	
		<rect x="35.9" y="95.3" transform="matrix(0.9961 8.772416e-02 -8.772416e-02 0.9961 22.9181 -5.4965)" class="st9" width="76.1" height="325.3"/>
	<path class="st10" d="M80.5,109.6c3.5-2.9,5.4-0.3,6.4,1.2c1,1.5,6.3,7.9,7.3,10.6c1,2.6,0.9,5,0.1,6.6c-1,1.9-6.7,5.7-7.8,6.5
		c-1.5,1-4.9,0.8-5.9-0.7c-1-1.5,0-3,1.5-4.1c1.5-1,6.5-3.1,6.7-4.4c0.1-0.6,0.1-1.2-1-2.6c-1.8-2.1-7.7-8.8-8.6-10.1
		C78.3,111.4,78.9,110.9,80.5,109.6z"/>
	<path class="st10" d="M74.5,135c0.7-1.2,2.4-1.5,3.8,0.7c1,1.5,7.5,15.3,6.7,21.1c-1.1,8.2-4,13.5-10.8,14.1
		c-3.7,0.3-5-0.2-5.4-1.7c-0.3-1.3,0.1-3.9,2.9-4.7s6.5-1.8,7.2-4.3c0.9-3.6,0.3-5.7-1.6-10c-1.9-4.3-2.8-7.6-3.4-8.8
		C72.1,137.8,73.9,136,74.5,135z"/>
	<path class="st10" d="M65.6,147.9c1.8,0.3,1.4,1.4,0.8,2.8c-0.5,1.2-5.2,7-5.7,9.5c-0.5,2.6-2.2,9.9-4.8,9.7
		c-3.1-0.3-2-5.7-1.1-8.1C55.6,159.3,63,147.4,65.6,147.9z"/>
	<path class="st10" d="M99.9,152.8c-1.3,1.1,0.1,4.7,0.8,7c0.8,2.8-0.6,10.5,2,10.9c3,0.5,5.4-3.3,5-7.4c-0.4-3.3-2.5-7-4.5-11.5
		C102.5,150.6,100.6,152.2,99.9,152.8z"/>
	<path class="st10" d="M71.2,352.3c-1.2-0.1-1-3.2-0.9-3.8c0.2-1.8,7.7-5.1,11.5-4.4c4.2,0.8,7.2,2.5,7.3,7.9
		c0.1,6.8-12.2,17.3-12.9,14.3c-0.4-1.9,0.2-1.8,1.5-3c2.3-2,7.9-6.1,7.1-10.5c-0.8-4.4-3.3-4-5.8-3.6
		C75.6,349.8,72.6,352.4,71.2,352.3z"/>
	<g>
		<path class="st10" d="M81.1,380.3c0.3,0.2,0.5,1.3,0.4,1.9c-0.1,1.1-2.9,3.7-5.9,6.2c-3.3,2.8-6.5,5.8-8.1,8.5
			c-1.4,2.3-3.1,4.1,2.4,4.6c4.4,0.4,9.9-1,13.8-2.5c3.8-1.5,5.1-1.4,4.8,1.7c-0.2,2.8-11.6,7.4-20.1,6.1c-6.1-1-7.2-1.4-7-6.6
			C61.8,394.4,78.8,378.9,81.1,380.3z"/>
		<path class="st10" d="M63,375.7c7-8.4,5.2-0.1,5.3,3c0.1,4.9,3.4,8.7,1.9,10.3C68.7,390.6,61.6,377.4,63,375.7z"/>
	</g>
	<path class="st10" d="M109.3,127.9c-5.9-1.1-10.2,5.3-10.7,8.3c-0.5,3,2.3,9.6,6.3,10.3c4.9,0.9,9.4-6.5,9.9-9.4
		C115.3,134.1,113.2,128.6,109.3,127.9z M106.8,141.7c-3-0.5-5.2-5-4.8-7c0.4-2,2.7-3.6,5.7-3c2,0.4,4.4,3.9,4,5.8
		C111.2,139.5,109.7,142.2,106.8,141.7z"/>
	<g>
		<path class="st10" d="M82.9,197.5c2.9,2.9-2,6.4-5.5,11c-3.5,4.6-9.2,14.2-10.4,20.6s-0.4,9.2,3,12.4c3.4,3.3,16.3,12.2,19.2,18.1
			c2.9,5.8,6.8,13.2,3.8,29.8c-3,16.6-14,33.1-19,38.8c-5,5.7-26.3,27.9-27.6,28c-3.3,0.3-1.2-8.1,0.4-9.2
			c1.5-1,27.4-26.7,31.3-33.9c4-7.2,9.4-15.5,11.1-24.4c1.6-9-0.1-21.2-14-31.7c-13.9-10.5-15.8-14.8-14.2-23.7
			c1.6-9,8.4-23.5,13.3-29.3C77.6,200.1,81.1,195.7,82.9,197.5z"/>
		<path class="st10" d="M87.6,179.7c4.7-1.8,7.2,6.1,6.9,8.5c-0.3,2.6-0.8,9.5-2.9,9.1c-1.2-0.2-1.8-4.1-4.5-9.4
			c-0.8-1.5-1.6-3.2-2.3-5.1C84.2,181.5,85.9,180.4,87.6,179.7z"/>
	</g>
</g>
<g>
	<path class="st11" d="M165.1,145.9c-1.7,0.2-2.9-0.3-3.8-1.4c-1-1.7-1.2-3.2-0.5-4.4c0.5-1.3,1.9-2.1,4.3-2.6
		c2.7-7.7,6.9-17.1,12.7-28.1c0.3-1,0.1-1.4-0.8-1.3c-8.2,2.6-12.8,4-13.9,4c-1.7,0.1-2.9-0.7-3.7-2.3c-0.9-1.9-0.5-3.2,1.1-3.7
		c7.6-2.1,15.2-4.8,23-8.2c2.4-0.3,4,0.9,4.5,3.8c0.1,1.3-0.3,2.6-1.1,3.9c-6.1,8.7-11.1,19.1-15.1,31.4c11.6,0.9,43.7,4,96.4,9.2
		c3.2,0.2,5.1,1.2,5.8,3.2c0.3,3.3-1,5-3.8,5c-1-0.1-2.9-0.5-5.8-1.3c-5.6-1.7-31-4.3-76.2-7.9c-6.8-0.4-12.3-0.5-16.5-0.4
		C169.1,145,166.9,145.4,165.1,145.9z M174.6,83.5c-2.8-2.6-5.6-5.1-8.6-7.4c-1.2-1.9-1.2-3.5-0.1-4.7c0.8-0.9,1.9-1.2,3.2-0.9
		c3.9,1.4,8.3,5.4,13.2,11.9c0.9,1.7,0.4,3.4-1.5,5c-1.2,0.8-2.3,1.1-3.3,0.6c-0.7-0.3-1.2-1-1.5-2.1
		C175.6,84.6,175.2,83.8,174.6,83.5z M208.5,66.9c-0.2,4.6-0.4,9.4-0.8,14.4c3.1-1.1,8.2-2.6,15.4-4.4c11.2-3,24.7-5.8,40.6-8.3
		c1.7-0.3,2.7-0.5,3.2-0.4c1.9,0.6,2.8,2,2.5,4.3c-0.4,1.7-1.6,2.8-3.4,3.3c-4.7,0.1-11.1,0.9-19.1,2.5c-0.1,0.7-0.3,1.3-0.8,2
		c-0.1,0.7-0.1,1.4-0.1,2.1c-0.1,7,0,14.3,0.3,22c0.2,18.4-0.1,29.4-0.9,33.1c-0.8,1.9-2.1,2.8-3.9,2.9c-1.5-0.1-2.5-1.1-2.9-3.2
		c0.1-0.6,0.3-1.3,0.6-2.3c0.7-4.5,1-14.6,0.9-30.5c-0.1-7.1-0.3-15.4-0.5-24.7c-4.5,0.9-9.2,2.1-14.1,3.4c-5.9,1.6-11.2,3.3-16,5
		c-0.8,0.3-1.6,0.2-2.1-0.1c-0.6,8.7-1.3,18.1-2,28.1c-0.2,3.3-0.1,6.5,0.3,9.7c0.1,1.2,0.2,2.4,0.4,3.5c-0.5,2-1.6,3.1-3.4,3.3
		c-2-0.1-3.4-1.2-4-3.4c-0.4-2.2,0.5-14.9,2.6-38.2c1.1-17.4,1.4-27.2,1-29.4c-0.1-0.8-0.4-1.6-0.9-2.1c0.3-1.6,1.5-2.4,3.8-2.5
		c1.8,0.4,2.9,1.4,3.3,2.9c7.1-6.8,16.2-13.8,27.4-21.1c1.2-1,2.8-0.9,4.8,0.4c1.8,2.1,1.3,3.7-1.3,4.9
		c-8.1,4.2-18.1,11.6-30.2,22.1C208.9,66.4,208.7,66.6,208.5,66.9z"/>
	<path class="st11" d="M311.3,113.3c1.1-1.5,2.4-2,3.8-1.4c1.6,1.8,1.2,3.8-1.3,6.1c-4.9,6.4-9.7,12.4-14.5,17.9
		c-1.6,1.8-3.1,3.2-4.5,4.3c-1.1,0.4-2,0.5-2.8,0.4c-0.8-0.1-1.6-0.5-2.3-1.3c-0.8-1.8-0.8-2.9,0.1-3.4
		C295.1,132.1,302.2,124.6,311.3,113.3z M310.7,100.4c-1.3,1.3-2.9,1.2-4.5-0.3c-2.9-2.6-4.9-4.2-6.1-4.8c-0.8-0.4-1.7-0.8-2.6-1.3
		c-2.3-1.5-2.5-3.2-0.8-5.2c0.9-0.9,2.1-1.2,3.7-0.9c2.4,0.7,5.6,2.9,9.7,6.8C311.8,96.8,312,98.7,310.7,100.4z M313.4,68.9
		c-2.3-3-4.6-5.9-7.1-8.7c-1.2-1.9-1.2-3.5-0.1-4.7c0.8-0.9,1.9-1.2,3.2-0.9c3.3,1.7,7,6.3,11.2,13.9c0.9,1.7,0.4,3.4-1.5,5
		c-1.2,0.8-2.3,1.1-3.3,0.6c-0.6-0.3-1-1.2-1.3-2.5C314.2,70.2,313.8,69.2,313.4,68.9z M386.6,66.9c-2.9,0-5,0.1-6.4,0.4
		c-5.8,0.9-11.3,1.8-16.5,2.5c0.4,0.8,0.6,1.5,0.6,2.3c-0.3,11.5-1.3,25.8-2.8,42.8c-0.1,2.7,0,5.3,0.3,7.7c0.1,1.2,0.2,2.3,0.4,3.4
		c-0.2,0.8-0.3,1.3-0.5,1.5c12.2-0.8,25-1.1,38.5-0.9c2.9,0.3,4.3,1.9,4.2,4.7c-0.4,2.3-1.9,3.4-4.3,3.3c-11.4-1.1-24.8-1-40.1,0.3
		c-16.3,1.1-27.8,2.6-34.6,4.4c-2.3,1.4-4,1.3-5.2-0.5c-1.1-1.4-1.1-2.8-0.1-4.2c2.3-2.3,14.2-4.5,35.7-6.6c-0.4-0.6-0.8-1.3-1-2
		c-0.3-1.7,0.5-11.8,2.3-30.4c0.9-13.8,1.2-21.5,0.9-23.2c-0.1-0.7-0.3-1.2-0.5-1.5c-5.6,0.8-10.7,1.6-15.5,2.4
		c-1.8,0.3-3.5,0.5-5,0.9c-1.7,0.3-2.7-0.4-3-2c-0.3-2,0.4-3.6,2-4.7c15.6-2,31.6-4.5,48.1-7.3c2.3-0.3,3.7,0.4,4.4,2.3
		C388.5,64.4,388,65.9,386.6,66.9z"/>
</g>
<g>
	<path class="st11" d="M250.3,201.8c-2.4,4.2-7.8,19.4-16.4,45.5c-2.6,7.4-4.3,11.7-5.2,13c-1.5,1.2-2.9,1.4-4,0.8
		c-1.3-0.9-1.8-2.2-1.4-3.8c0.9-2,2.1-4.9,3.5-8.6c2.4-6.4,5.4-15.3,9.2-26.9c3.6-10.9,6.4-18.5,8.5-22.8c1.1-2.2,2.6-3,4.4-2.4
		C251,197.7,251.5,199.4,250.3,201.8z M329.6,270.6c-2.6,1.6-4.7,1.2-6.2-1.1c-3.7-7.4-7.3-14-10.7-19.8
		c-20.9-41.9-32.6-63.5-34.8-64.9c-1.7-2.6-3.5-4.8-5.6-6.4c-0.8,0.5-1.8,1.1-2.8,1.8c-1,0.3-1.9,0.2-2.5-0.5
		c-0.3-0.5-0.3-1.2,0.3-2c1.3-2.5,2.8-4.1,4.3-4.7c2.6-1.3,5.7,0.4,9.3,5c5,5.6,17.5,28.7,37.5,69.1c4.4,7.7,8.5,13.7,12.5,18.2
		C331.5,267.5,331.1,269.2,329.6,270.6z"/>
	<path class="st11" d="M367.2,174.8c0.3-1.6,1.5-2.4,3.8-2.5c2.3,0.5,3.4,2,3.5,4.5c-0.1,7.7-0.3,16.2-0.6,25.4
		c6.3-1.8,10.3-2.9,11.9-3.3c1.6-0.6,3.2-0.7,4.8-0.3c1.8,0.3,2.9,1.8,3.3,4.3c-0.8,2.5-1.3,4.5-1.6,6.1c-0.2,0.8-0.3,1.7-0.4,2.5
		c2.9-1.2,8.7-2.9,17.3-5.2c3.4-0.9,7-1.8,10.6-2.6c0.1-7.1,0.4-14.2,0.9-21.1c0.5-1.4,1.7-2,3.7-1.8c0.6,0.3,1.2,0.5,1.8,0.8
		c0.8,0.5,1.4,1.2,1.6,2.1c-0.3,1.5-0.6,3.1-0.8,4.7c-0.4,3.7-0.7,7.3-0.9,10.9c3.5-3.8,7-8.1,10.5-12.9c1.3-1.7,2.5-3.2,3.7-4.5
		c1-1.3,1.9-2.3,2.6-2.9c1.3-1.3,2.8-1.5,4.4-0.4c1.5,1.3,1.7,2.7,0.6,4.3c-0.3,0.6-1.8,2.2-4.5,4.9c-2.4,2.4-6.2,6.4-11.4,11.9
		c-0.9,0.8-1.9,1.4-2.8,1.9c7.1-1.4,14.6-2.8,22.7-4c1.8-0.3,2.9-0.5,3.4-0.4c1.9,0.6,2.8,2,2.5,4.3c-0.4,1.7-1.6,2.8-3.4,3.3
		c-6.6,0.2-16.2,1.7-28.6,4.5c0.1,9,0.8,17.9,2.3,26.6c0.1,0.5,0,0.9-0.4,1.3c4-0.6,8.2-1.1,12.5-1.5c2.4-0.3,5.3-0.3,8.5-0.1
		c3.9,0.4,6.5,0.5,7.8,0.3c1.8,0.3,3.2,1.1,4.2,2.3c0.6,1.9,0.3,3.7-0.8,5.2c-5,8.7-8.8,16.4-11.6,23.1c1.1,0.8,1.7,1.8,1.8,3.3
		c-0.3,2.3-1.3,3.6-2.8,4c-1-0.3-2-0.4-2.9-0.5c-1.3-0.2-2.7-0.1-4.2,0.1c-6.1,0.5-12.8,1.9-19.9,4.3c-2.3,0.3-3.4-0.6-3.4-2.6
		c-0.1-2.3,0.7-3.8,2.4-4.5c1-0.3,2.1-0.6,3.2-0.9c0.1-1.7,0.2-4.3,0.4-7.9c-1.7,0.6-3.5,1.2-5.4,1.8c-1.3,0.3-2.6,0.5-3.7,0.5
		c-2-0.4-3.1-1.3-3.2-2.8c-0.3-1.3-0.2-2.3,0.5-3.2c0.2-0.5,1.4-0.9,3.8-1.3c1.6-0.3,4.1-1,7.6-1.9c0.3-0.1,0.6-0.2,0.8-0.3
		c0.3-5.3,0.5-8.7,0.4-10.2c-2,0.4-4.1,1-6.3,1.6c-3.9,0.8-8.2,2.5-13,5c-1.3,0.5-2.3,0.7-3,0.6c1.8,7.2,5,14.1,9.6,20.6
		c0.4,1.7-0.2,3.1-1.8,4.3c-2,0.6-3.5,0-4.3-1.6c-2.1-1.9-4.7-6.9-7.8-15c-1-3.6-2.1-7-3.3-10.1c-0.7-1.9-0.8-3.2-0.5-3.8
		c0.5-1.9,1.8-2.7,4-2.1c0.9,0.4,1.7,1,2.3,1.6c0.6-0.8,1.4-1.2,2.4-1.4c5.9-2.5,12.8-4.5,20.8-5.9c-0.7-0.6-1.6-1.2-2.8-1.9
		c-3.8-2-7.3-4.8-10.5-8.3c-0.3-0.4-0.6-0.6-0.9-0.6c-0.3,0.3-0.7,0.7-1,1.3c-3.6,4.9-7.4,8.4-11.2,10.5c-1.2,0.8-2.1,1.1-2.8,0.9
		c-1.7-0.4-2.1-1.5-1.1-3.2c1-0.8,1.9-1.6,2.8-2.3c4.3-3.9,8.3-9.1,12-15.8c0.5-0.5,0.9-0.8,1.3-0.9c0.3,0.2,0.7,0.4,1,0.8
		c1.4,2.4,3.2,4.6,5.3,6.8c1.5,1.4,3.1,2.5,4.7,3.3c1.3,0.3,1.8,0,1.5-0.9c-0.5-5.8-0.8-11.5-1-17c-2.8,0.6-5.6,1.3-8.5,2
		c-6.2,1.6-11.9,3.4-16.9,5.3c-0.8,0.2-1.6,0.1-2.4-0.1c-0.6-0.2-1-0.4-1.3-0.6c-0.9,6.6-1.6,13.5-2.1,20.8
		c-0.2,0.8-0.4,1.7-0.6,2.5c-0.7,1.3-1.4,2.2-2.1,2.6h-2c-1.2-0.7-2-1.7-2.5-3c-0.4-1.3-0.3-2.6,0.5-3.7c0.5-1.3,0.8-2.8,1-4.3
		c0.7-8.8,1.6-16.9,2.9-24.1c0.4-2.4-0.2-3.2-1.9-2.4c-2.8,0.8-6.2,1.8-10.2,3.2c-0.5,13.7-1.1,28.7-1.9,45c-0.1,4.7,0,9.3,0.3,13.8
		c0.1,1.2,0.2,2.4,0.4,3.5c-0.5,2-1.6,3.1-3.4,3.3c-2-0.1-3.4-1.2-4-3.4c-0.3-2.9,0.5-20.6,2.3-53.2c0.1-2.4,0.2-4.8,0.3-6.9
		c-2.7,0.8-5.5,1.6-8.3,2.4c-1.1,0.5-2,0.8-2.6,0.8v4.2c0,6.1-0.4,13.2-1.1,21.5c-0.5,1.9-1.7,2.9-3.5,2.9c-1.4-0.2-2.4-1.1-3-2.9
		c0.7-8.3,1.1-15.6,1.4-21.7c0.1-7.1-0.5-12.2-1.8-15.4c0.2-0.8,0.9-1.5,2.3-2c1.8-0.3,3.3,0.4,4.5,2c0.3,0.3,0.4,0.7,0.4,1.1
		c0.2,1,0.3,2.1,0.5,3.4c0.8-0.4,1.8-0.7,3-0.9c3.4-0.8,6.3-1.5,8.6-2.1c0.5-15.7,0.6-24.8,0.4-27.1
		C368,176.2,367.7,175.5,367.2,174.8z M416.5,201.1c-0.8,0.9-2.1,1.2-3.7,0.9c-0.8-0.2-1.7-0.4-2.5-0.6c-2.8-1-5.5-2.7-8.1-5
		c-0.4-0.3-0.9-0.8-1.5-1.5c-0.9-1.3-1-2.6-0.3-3.9c0.8-1.1,2.1-1.5,3.7-1.1c0.8,0.2,1.8,0.8,2.8,1.8c3.2,3.5,5.9,5.5,8.2,6.1
		C416.7,198.5,417.2,199.6,416.5,201.1z M440.8,170.7c-0.7,0.6-1.9,1-3.5,1.1c-0.9,0.3-1.7,0.5-2.4,0.8c-3.4,0.8-9.3,3.1-17.9,6.7
		l-8.8,3.8c-1.9,0.6-3.3,0.5-4-0.1c-0.9-1.4-0.3-2.5,2-3.2c15.3-9.3,25.4-14.1,30.2-14.6c1.8-0.4,3.5,0.3,5,2
		C442,168.6,441.8,169.8,440.8,170.7z M430,243.1c-0.1,2.9-0.2,6.2-0.3,9.7c1.6-0.4,3.1-0.8,4.5-1.3c0.8-0.3,1.6-0.5,2.5-0.6
		c2.1,0.3,3.4,1.1,4,2.4c0.3,1.6,0.1,2.9-0.6,3.8c-0.3,0.3-0.8,0.5-1.3,0.6c-1.3,0.2-2.9,0.4-4.5,0.8c-1.5,0.3-3.2,0.8-5.2,1.3
		c-0.1,1.3-0.2,2.7-0.3,3.9c0,1.3,0,2.4,0.1,3.5v0.8c1.6-0.3,3.2-0.7,4.8-1c2.5-0.4,5-0.8,7.6-1c0.1-0.5,0.2-1,0.4-1.4
		c0.5-2.4,3.5-8.7,9-18.9c0.8-2.4,0.4-3.4-1.1-3.3C444.8,241.4,438.3,241.6,430,243.1z M432.1,219.1c-1-1.3-1.1-2.7-0.4-4.2
		c1-1.2,2.4-1.5,4.3-1c0.7,0.2,1.6,0.5,2.8,1.1c4,1.9,9.2,4.4,15.5,7.7l1.6,0.8c0.8,0.3,1.5,0.5,2,0.8c1.4,1.3,1.8,3.2,1.1,5.6
		c-0.8,1.4-2,2-3.5,1.6c-0.8-0.3-1.9-0.8-3.2-1.6c-5.7-3.5-11.7-6.7-17.8-9.6C433.8,219.9,432.9,219.5,432.1,219.1z"/>
</g>
<g>
</g>
<g>
</g>
<g>
</g>
<g>
	<g>
		<g>
			<polygon class="st12" points="178.4,276.5 160.4,319.4 270.5,319.4 252.5,276.5 			"/>
			<polygon class="st13" points="160.4,319.4 163.4,326.4 267.5,326.4 270.5,319.4 			"/>
			<rect x="163.4" y="326.4" class="st14" width="104.2" height="79.3"/>
			<rect x="163.4" y="348.9" class="st15" width="104.2" height="56.8"/>
			<g>
				<path class="st16" d="M165.5,404.2c0,0.3-0.3,0.6-0.6,0.6l0,0c-0.3,0-0.6-0.3-0.6-0.6v-53.8c0-0.3,0.3-0.6,0.6-0.6l0,0
					c0.3,0,0.6,0.3,0.6,0.6V404.2z"/>
				<path class="st16" d="M169.2,404.2v-53.8c0-0.3,0.3-0.6,0.6-0.6l0,0c0.3,0,0.6,0.3,0.6,0.6v53.8c0,0.3-0.3,0.6-0.6,0.6l0,0
					C169.4,404.7,169.2,404.5,169.2,404.2z"/>
				<path class="st16" d="M174,404.2v-53.8c0-0.3,0.3-0.6,0.6-0.6l0,0c0.3,0,0.6,0.3,0.6,0.6v53.8c0,0.3-0.3,0.6-0.6,0.6l0,0
					C174.2,404.7,174,404.5,174,404.2z"/>
				<path class="st16" d="M178.8,404.2v-53.8c0-0.3,0.3-0.6,0.6-0.6l0,0c0.3,0,0.6,0.3,0.6,0.6v53.8c0,0.3-0.3,0.6-0.6,0.6l0,0
					C179.1,404.7,178.8,404.5,178.8,404.2z"/>
				<path class="st16" d="M183.6,404.2v-53.8c0-0.3,0.3-0.6,0.6-0.6l0,0c0.3,0,0.6,0.3,0.6,0.6v53.8c0,0.3-0.3,0.6-0.6,0.6l0,0
					C183.9,404.7,183.6,404.5,183.6,404.2z"/>
				<path class="st16" d="M188.4,404.2v-53.8c0-0.3,0.3-0.6,0.6-0.6l0,0c0.3,0,0.6,0.3,0.6,0.6v53.8c0,0.3-0.3,0.6-0.6,0.6l0,0
					C188.7,404.7,188.4,404.5,188.4,404.2z"/>
				<path class="st16" d="M193.2,404.2v-53.8c0-0.3,0.3-0.6,0.6-0.6l0,0c0.3,0,0.6,0.3,0.6,0.6v53.8c0,0.3-0.3,0.6-0.6,0.6l0,0
					C193.5,404.7,193.2,404.5,193.2,404.2z"/>
				<path class="st16" d="M198.1,404.2v-53.8c0-0.3,0.3-0.6,0.6-0.6l0,0c0.3,0,0.6,0.3,0.6,0.6v53.8c0,0.3-0.3,0.6-0.6,0.6l0,0
					C198.3,404.7,198.1,404.5,198.1,404.2z"/>
				<path class="st16" d="M202.9,404.2v-53.8c0-0.3,0.3-0.6,0.6-0.6l0,0c0.3,0,0.6,0.3,0.6,0.6v53.8c0,0.3-0.3,0.6-0.6,0.6l0,0
					C203.1,404.7,202.9,404.5,202.9,404.2z"/>
				<path class="st16" d="M207.7,404.2v-53.8c0-0.3,0.3-0.6,0.6-0.6l0,0c0.3,0,0.6,0.3,0.6,0.6v53.8c0,0.3-0.3,0.6-0.6,0.6l0,0
					C207.9,404.7,207.7,404.5,207.7,404.2z"/>
				<path class="st16" d="M212.5,404.2v-53.8c0-0.3,0.3-0.6,0.6-0.6l0,0c0.3,0,0.6,0.3,0.6,0.6v53.8c0,0.3-0.3,0.6-0.6,0.6l0,0
					C212.7,404.7,212.5,404.5,212.5,404.2z"/>
				<path class="st16" d="M217.3,404.2v-53.8c0-0.3,0.3-0.6,0.6-0.6l0,0c0.3,0,0.6,0.3,0.6,0.6v53.8c0,0.3-0.3,0.6-0.6,0.6l0,0
					C217.6,404.7,217.3,404.5,217.3,404.2z"/>
				<path class="st16" d="M222.1,404.2v-53.8c0-0.3,0.3-0.6,0.6-0.6l0,0c0.3,0,0.6,0.3,0.6,0.6v53.8c0,0.3-0.3,0.6-0.6,0.6l0,0
					C222.4,404.7,222.1,404.5,222.1,404.2z"/>
				<path class="st16" d="M226.9,404.2v-53.8c0-0.3,0.3-0.6,0.6-0.6l0,0c0.3,0,0.6,0.3,0.6,0.6v53.8c0,0.3-0.3,0.6-0.6,0.6l0,0
					C227.2,404.7,226.9,404.5,226.9,404.2z"/>
				<path class="st16" d="M231.7,404.2v-53.8c0-0.3,0.3-0.6,0.6-0.6l0,0c0.3,0,0.6,0.3,0.6,0.6v53.8c0,0.3-0.3,0.6-0.6,0.6l0,0
					C232,404.7,231.7,404.5,231.7,404.2z"/>
				<path class="st16" d="M236.6,404.2v-53.8c0-0.3,0.3-0.6,0.6-0.6l0,0c0.3,0,0.6,0.3,0.6,0.6v53.8c0,0.3-0.3,0.6-0.6,0.6l0,0
					C236.8,404.7,236.6,404.5,236.6,404.2z"/>
				<path class="st16" d="M241.4,404.2v-53.8c0-0.3,0.3-0.6,0.6-0.6l0,0c0.3,0,0.6,0.3,0.6,0.6v53.8c0,0.3-0.3,0.6-0.6,0.6l0,0
					C241.6,404.7,241.4,404.5,241.4,404.2z"/>
				<path class="st16" d="M246.2,404.2v-53.8c0-0.3,0.3-0.6,0.6-0.6l0,0c0.3,0,0.6,0.3,0.6,0.6v53.8c0,0.3-0.3,0.6-0.6,0.6l0,0
					C246.4,404.7,246.2,404.5,246.2,404.2z"/>
				<path class="st16" d="M251,404.2v-53.8c0-0.3,0.3-0.6,0.6-0.6l0,0c0.3,0,0.6,0.3,0.6,0.6v53.8c0,0.3-0.3,0.6-0.6,0.6l0,0
					C251.2,404.7,251,404.5,251,404.2z"/>
				<path class="st16" d="M255.8,404.2v-53.8c0-0.3,0.3-0.6,0.6-0.6l0,0c0.3,0,0.6,0.3,0.6,0.6v53.8c0,0.3-0.3,0.6-0.6,0.6l0,0
					C256.1,404.7,255.8,404.5,255.8,404.2z"/>
				<path class="st16" d="M260.6,404.2v-53.8c0-0.3,0.3-0.6,0.6-0.6l0,0c0.3,0,0.6,0.3,0.6,0.6v53.8c0,0.3-0.3,0.6-0.6,0.6l0,0
					C260.9,404.7,260.6,404.5,260.6,404.2z"/>
				<path class="st16" d="M265.4,404.2c0,0.3,0.3,0.6,0.6,0.6l0,0c0.3,0,0.6-0.3,0.6-0.6v-53.8c0-0.3-0.3-0.6-0.6-0.6l0,0
					c-0.3,0-0.6,0.3-0.6,0.6V404.2z"/>
			</g>
			<g>
				<g>
					<path class="st17" d="M165.5,317.9c-0.2,0.4-0.7,0.7-1.3,0.7c-0.3,0-0.6,0-0.8,0c-0.6,0-0.9-0.3-0.7-0.7
						c5.5-13.2,10.9-26.4,16.4-39.6c0.2-0.4,0.6-0.7,1-0.7c0.2,0,0.4,0,0.6,0c0.4,0,0.6,0.3,0.4,0.7
						C175.8,291.5,170.7,304.7,165.5,317.9z"/>
					<path class="st17" d="M175.5,317.9c4.1-13.2,8.3-26.4,12.4-39.6c0.1-0.4,0.5-0.7,0.9-0.7c0.2,0,0.4,0,0.6,0
						c0.4,0,0.6,0.3,0.5,0.7c-3.8,13.2-7.7,26.4-11.5,39.6c-0.1,0.4-0.7,0.7-1.2,0.7c-0.3,0-0.6,0-0.8,0
						C175.7,318.6,175.4,318.3,175.5,317.9z"/>
					<path class="st17" d="M188.3,317.9c2.8-13.2,5.6-26.4,8.4-39.6c0.1-0.4,0.5-0.7,0.9-0.7c0.2,0,0.4,0,0.6,0
						c0.4,0,0.6,0.3,0.6,0.7c-2.5,13.2-5,26.4-7.5,39.6c-0.1,0.4-0.6,0.7-1.2,0.7c-0.3,0-0.6,0-0.8,0
						C188.6,318.6,188.2,318.3,188.3,317.9z"/>
					<path class="st17" d="M201.2,317.9c1.5-13.2,3-26.4,4.4-39.6c0-0.4,0.4-0.7,0.8-0.7c0.2,0,0.4,0,0.6,0c0.4,0,0.7,0.3,0.6,0.7
						c-1.2,13.2-2.4,26.4-3.5,39.6c0,0.4-0.5,0.7-1.1,0.7c-0.3,0-0.6,0-0.8,0C201.6,318.6,201.1,318.3,201.2,317.9z"/>
					<path class="st17" d="M214,317.9c0.1-13.2,0.3-26.4,0.4-39.6c0-0.4,0.3-0.7,0.7-0.7c0.2,0,0.4,0,0.6,0c0.4,0,0.7,0.3,0.7,0.7
						c0.1,13.2,0.3,26.4,0.4,39.6c0,0.4-0.5,0.7-1,0.7c-0.3,0-0.6,0-0.8,0C214.5,318.6,214,318.3,214,317.9z"/>
					<path class="st17" d="M226.9,317.9c-1.2-13.2-2.4-26.4-3.5-39.6c0-0.4,0.3-0.7,0.6-0.7c0.2,0,0.4,0,0.6,0
						c0.4,0,0.7,0.3,0.8,0.7c1.5,13.2,3,26.4,4.4,39.6c0,0.4-0.4,0.7-1,0.7c-0.3,0-0.6,0-0.8,0C227.4,318.6,226.9,318.3,226.9,317.9
						z"/>
					<path class="st17" d="M239.7,317.9c-2.5-13.2-5-26.4-7.5-39.6c-0.1-0.4,0.2-0.7,0.6-0.7c0.2,0,0.4,0,0.6,0
						c0.4,0,0.8,0.3,0.9,0.7c2.8,13.2,5.6,26.4,8.4,39.6c0.1,0.4-0.3,0.7-0.9,0.7c-0.3,0-0.6,0-0.8,0
						C240.3,318.6,239.8,318.3,239.7,317.9z"/>
					<path class="st17" d="M252.6,317.9c-3.8-13.2-7.7-26.4-11.5-39.6c-0.1-0.4,0.1-0.7,0.5-0.7c0.2,0,0.4,0,0.6,0
						c0.4,0,0.8,0.3,0.9,0.7c4.1,13.2,8.3,26.4,12.4,39.6c0.1,0.4-0.2,0.7-0.8,0.7c-0.3,0-0.6,0-0.8,0
						C253.2,318.6,252.7,318.3,252.6,317.9z"/>
					<path class="st17" d="M265.4,317.9c0.2,0.4,0.7,0.7,1.3,0.7c0.3,0,0.6,0,0.8,0c0.6,0,0.9-0.3,0.7-0.7
						c-5.5-13.2-10.9-26.4-16.4-39.6c-0.2-0.4-0.6-0.7-1-0.7c-0.2,0-0.4,0-0.6,0c-0.4,0-0.6,0.3-0.4,0.7
						C255.1,291.5,260.3,304.7,265.4,317.9z"/>
				</g>
				<g>
					<g>
						<g>
							<path class="st17" d="M186.8,279.1c0.1,0.2-0.1,0.7-0.5,0.9c-1.9,1.3-4,1.3-5,0c-0.2-0.3-0.1-0.7,0.2-0.9l0,0
								c0.3-0.2,0.6-0.2,0.7,0c0.8,1,2.4,1,3.9,0C186.4,278.9,186.7,278.9,186.8,279.1L186.8,279.1z"/>
						</g>
						<g>
							<path class="st17" d="M185.3,283.7c0.1,0.2-0.1,0.7-0.5,0.9c-2,1.3-4.2,1.3-5.3,0c-0.2-0.3-0.1-0.7,0.1-0.9l0,0
								c0.3-0.2,0.6-0.2,0.8,0c0.9,1,2.5,1,4.1,0C184.9,283.5,185.2,283.5,185.3,283.7L185.3,283.7z"/>
						</g>
						<g>
							<path class="st17" d="M183.9,288.3c0.1,0.2-0.1,0.7-0.5,1c-2.1,1.3-4.3,1.3-5.5,0c-0.2-0.3-0.2-0.7,0.1-1l0,0
								c0.3-0.2,0.6-0.2,0.8,0c0.9,1,2.7,1,4.3,0C183.4,288.1,183.7,288.1,183.9,288.3L183.9,288.3z"/>
						</g>
						<g>
							<path class="st17" d="M182.4,293c0.1,0.2-0.1,0.7-0.5,0.9c-2.1,1.3-4.5,1.3-5.8,0c-0.3-0.3-0.2-0.7,0.1-0.9l0,0
								c0.3-0.2,0.7-0.2,0.8,0c1,1,2.8,1,4.5,0C181.9,292.8,182.2,292.7,182.4,293L182.4,293z"/>
						</g>
						<g>
							<path class="st17" d="M180.9,297.6c0.1,0.2-0.1,0.7-0.6,1c-2.2,1.3-4.7,1.3-6,0c-0.3-0.3-0.2-0.7,0.1-1l0,0
								c0.3-0.2,0.7-0.2,0.9,0c1,1,3,1,4.7,0C180.4,297.4,180.7,297.3,180.9,297.6L180.9,297.6z"/>
						</g>
						<g>
							<path class="st17" d="M179.4,302.2c0.2,0.2-0.1,0.7-0.6,0.9c-2.3,1.3-4.9,1.3-6.3,0c-0.3-0.3-0.2-0.7,0.1-0.9l0,0
								c0.3-0.2,0.7-0.2,0.9,0c1.1,1,3.1,1,4.9,0C178.8,302,179.2,301.9,179.4,302.2L179.4,302.2z"/>
						</g>
						<g>
							<path class="st17" d="M177.9,306.8c0.2,0.2-0.1,0.7-0.6,0.9c-2.4,1.3-5.1,1.3-6.5,0c-0.3-0.3-0.2-0.7,0.1-0.9l0,0
								c0.3-0.2,0.7-0.2,1,0c1.2,1,3.2,1,5.1,0C177.3,306.6,177.8,306.5,177.9,306.8L177.9,306.8z"/>
						</g>
						<g>
							<path class="st17" d="M176.4,311.4c0.2,0.2-0.1,0.7-0.6,0.9c-2.5,1.3-5.2,1.3-6.8,0c-0.3-0.3-0.3-0.7,0.1-0.9l0,0
								c0.3-0.2,0.8-0.2,1,0c1.2,1,3.4,1,5.3,0C175.8,311.2,176.3,311.2,176.4,311.4L176.4,311.4z"/>
						</g>
						<g>
							<path class="st17" d="M174.9,316c0.2,0.2-0.1,0.7-0.6,1c-2.5,1.3-5.4,1.3-7,0c-0.3-0.3-0.3-0.7,0.1-1l0,0
								c0.3-0.2,0.8-0.2,1,0c1.3,1,3.5,1,5.5,0C174.3,315.8,174.8,315.8,174.9,316L174.9,316z"/>
						</g>
					</g>
					<g>
						<path class="st17" d="M190.4,279.1L190.4,279.1c0.2-0.2,0.6-0.2,0.7,0c0.9,1,2.5,1,3.9,0c0.3-0.2,0.6-0.2,0.7,0l0,0
							c0.1,0.2,0,0.7-0.4,0.9c-1.8,1.3-3.9,1.3-5,0C190.1,279.8,190.2,279.4,190.4,279.1z"/>
						<path class="st17" d="M189.1,283.7L189.1,283.7c0.3-0.2,0.6-0.2,0.8,0c1,1,2.6,1,4.1,0c0.3-0.2,0.6-0.2,0.8,0l0,0
							c0.1,0.2,0,0.7-0.4,0.9c-1.9,1.3-4,1.3-5.3,0C188.8,284.4,188.9,284,189.1,283.7z"/>
						<path class="st17" d="M187.8,288.3L187.8,288.3c0.3-0.2,0.6-0.2,0.8,0c1,1,2.8,1,4.3,0c0.3-0.2,0.7-0.2,0.8,0l0,0
							c0.1,0.2,0,0.7-0.4,1c-1.9,1.3-4.2,1.3-5.5,0C187.5,289,187.6,288.6,187.8,288.3z"/>
						<path class="st17" d="M186.5,293L186.5,293c0.3-0.2,0.6-0.2,0.8,0c1.1,1,2.9,1,4.5,0c0.3-0.2,0.7-0.2,0.8,0l0,0
							c0.2,0.2,0,0.7-0.5,0.9c-2,1.3-4.4,1.3-5.8,0C186.2,293.6,186.2,293.2,186.5,293z"/>
						<path class="st17" d="M185.2,297.6L185.2,297.6c0.3-0.2,0.7-0.2,0.9,0c1.1,1,3.1,1,4.7,0c0.3-0.2,0.7-0.2,0.9,0l0,0
							c0.2,0.2,0,0.7-0.5,1c-2.1,1.3-4.6,1.3-6,0C184.9,298.2,184.9,297.8,185.2,297.6z"/>
						<path class="st17" d="M183.9,302.2L183.9,302.2c0.3-0.2,0.7-0.2,0.9,0c1.2,1,3.2,1,4.9,0c0.3-0.2,0.7-0.2,0.9,0l0,0
							c0.2,0.2,0,0.7-0.5,0.9c-2.2,1.3-4.7,1.3-6.3,0C183.6,302.9,183.6,302.4,183.9,302.2z"/>
						<path class="st17" d="M182.6,306.8L182.6,306.8c0.3-0.2,0.7-0.2,1,0c1.3,1,3.3,1,5.1,0c0.4-0.2,0.8-0.2,1,0l0,0
							c0.2,0.2,0,0.7-0.5,0.9c-2.2,1.3-4.9,1.3-6.5,0C182.3,307.5,182.3,307,182.6,306.8z"/>
						<path class="st17" d="M181.3,311.4L181.3,311.4c0.3-0.2,0.7-0.2,1,0c1.3,1,3.5,1,5.3,0c0.4-0.2,0.8-0.2,1,0l0,0
							c0.2,0.2,0,0.7-0.5,0.9c-2.3,1.3-5.1,1.3-6.8,0C181,312.1,181,311.6,181.3,311.4z"/>
						<path class="st17" d="M180,316L180,316c0.3-0.2,0.8-0.2,1,0c1.4,1,3.6,1,5.5,0c0.4-0.2,0.8-0.2,1,0l0,0c0.2,0.2,0,0.7-0.5,1
							c-2.4,1.3-5.3,1.3-7,0C179.7,316.7,179.7,316.2,180,316z"/>
					</g>
					<g>
						<path class="st17" d="M199.4,279.1L199.4,279.1c0.2-0.2,0.5-0.2,0.7,0c1,1,2.6,1,3.9,0c0.3-0.2,0.6-0.2,0.7,0l0,0
							c0.2,0.2,0,0.7-0.3,0.9c-1.7,1.3-3.7,1.3-5,0C199.1,279.8,199.1,279.4,199.4,279.1z"/>
						<path class="st17" d="M198.5,283.7L198.5,283.7c0.2-0.2,0.6-0.2,0.8,0c1.1,1,2.7,1,4.1,0c0.3-0.2,0.6-0.2,0.8,0l0,0
							c0.2,0.2,0,0.7-0.3,0.9c-1.7,1.3-3.9,1.3-5.3,0C198.3,284.4,198.3,284,198.5,283.7z"/>
						<path class="st17" d="M197.7,288.3L197.7,288.3c0.2-0.2,0.6-0.2,0.8,0c1.1,1,2.9,1,4.3,0c0.3-0.2,0.6-0.2,0.8,0l0,0
							c0.2,0.2,0,0.7-0.3,1c-1.8,1.3-4.1,1.3-5.5,0C197.5,289,197.5,288.6,197.7,288.3z"/>
						<path class="st17" d="M196.9,293L196.9,293c0.3-0.2,0.6-0.2,0.8,0c1.2,1,3,1,4.5,0c0.3-0.2,0.7-0.2,0.8,0l0,0
							c0.2,0.2,0,0.7-0.4,0.9c-1.9,1.3-4.3,1.3-5.8,0C196.6,293.6,196.6,293.2,196.9,293z"/>
						<path class="st17" d="M196,297.6L196,297.6c0.3-0.2,0.6-0.2,0.9,0c1.2,1,3.2,1,4.7,0c0.3-0.2,0.7-0.2,0.9,0l0,0
							c0.2,0.2,0,0.7-0.4,1c-2,1.3-4.4,1.3-6,0C195.8,298.2,195.8,297.8,196,297.6z"/>
						<path class="st17" d="M195.2,302.2L195.2,302.2c0.3-0.2,0.7-0.2,0.9,0c1.3,1,3.3,1,4.9,0c0.3-0.2,0.7-0.2,0.9,0l0,0
							c0.2,0.2,0.1,0.7-0.4,0.9c-2,1.3-4.6,1.3-6.3,0C194.9,302.9,194.9,302.4,195.2,302.2z"/>
						<path class="st17" d="M194.4,306.8L194.4,306.8c0.3-0.2,0.7-0.2,1,0c1.4,1,3.4,1,5.1,0c0.3-0.2,0.7-0.2,1,0l0,0
							c0.2,0.2,0.1,0.7-0.4,0.9c-2.1,1.3-4.8,1.3-6.5,0C194.1,307.5,194.1,307,194.4,306.8z"/>
						<path class="st17" d="M193.5,311.4L193.5,311.4c0.3-0.2,0.7-0.2,1,0c1.4,1,3.6,1,5.3,0c0.3-0.2,0.8-0.2,1,0l0,0
							c0.2,0.2,0.1,0.7-0.4,0.9c-2.2,1.3-5,1.3-6.8,0C193.3,312.1,193.2,311.6,193.5,311.4z"/>
						<path class="st17" d="M192.7,316L192.7,316c0.3-0.2,0.7-0.2,1,0c1.5,1,3.7,1,5.5,0c0.4-0.2,0.8-0.2,1,0l0,0
							c0.2,0.2,0.1,0.7-0.4,1c-2.3,1.3-5.2,1.3-7.1,0C192.4,316.7,192.4,316.2,192.7,316z"/>
					</g>
					<g>
						<path class="st17" d="M208.3,279.1L208.3,279.1c0.2-0.2,0.5-0.2,0.7,0c1.1,1,2.7,1,3.9,0c0.2-0.2,0.6-0.2,0.7,0l0,0
							c0.2,0.2,0.1,0.7-0.2,0.9c-1.5,1.3-3.6,1.3-5,0C208.1,279.8,208.1,279.4,208.3,279.1z"/>
						<path class="st17" d="M207.9,283.7L207.9,283.7c0.2-0.2,0.5-0.2,0.8,0c1.2,1,2.8,1,4.1,0c0.3-0.2,0.6-0.2,0.8,0l0,0
							c0.2,0.2,0.1,0.7-0.2,0.9c-1.6,1.3-3.8,1.3-5.3,0C207.8,284.4,207.7,284,207.9,283.7z"/>
						<path class="st17" d="M207.6,288.3L207.6,288.3c0.2-0.2,0.6-0.2,0.8,0c1.2,1,3,1,4.3,0c0.3-0.2,0.6-0.2,0.8,0l0,0
							c0.2,0.2,0.1,0.7-0.2,1c-1.7,1.3-4,1.3-5.5,0C207.4,289,207.4,288.6,207.6,288.3z"/>
						<path class="st17" d="M207.2,293L207.2,293c0.2-0.2,0.6-0.2,0.8,0c1.3,1,3.1,1,4.5,0c0.3-0.2,0.6-0.2,0.8,0l0,0
							c0.2,0.2,0.1,0.7-0.3,0.9c-1.8,1.3-4.1,1.3-5.8,0C207,293.6,207,293.2,207.2,293z"/>
						<path class="st17" d="M206.8,297.6L206.8,297.6c0.2-0.2,0.6-0.2,0.9,0c1.3,1,3.3,1,4.7,0c0.3-0.2,0.7-0.2,0.9,0l0,0
							c0.2,0.2,0.1,0.7-0.3,1c-1.8,1.3-4.3,1.3-6,0C206.6,298.2,206.6,297.8,206.8,297.6z"/>
						<path class="st17" d="M206.5,302.2L206.5,302.2c0.2-0.2,0.6-0.2,0.9,0c1.4,1,3.4,1,4.9,0c0.3-0.2,0.7-0.2,0.9,0l0,0
							c0.2,0.2,0.1,0.7-0.3,0.9c-1.9,1.3-4.5,1.3-6.3,0C206.3,302.9,206.2,302.4,206.5,302.2z"/>
						<path class="st17" d="M206.1,306.8L206.1,306.8c0.3-0.2,0.7-0.2,1,0c1.5,1,3.5,1,5.1,0c0.3-0.2,0.7-0.2,1,0l0,0
							c0.2,0.2,0.1,0.7-0.3,0.9c-2,1.3-4.7,1.3-6.5,0C205.9,307.5,205.8,307,206.1,306.8z"/>
						<path class="st17" d="M205.7,311.4L205.7,311.4c0.3-0.2,0.7-0.2,1,0c1.5,1,3.7,1,5.3,0c0.3-0.2,0.8-0.2,1,0l0,0
							c0.2,0.2,0.1,0.7-0.3,0.9c-2.1,1.3-4.9,1.3-6.8,0C205.5,312.1,205.4,311.6,205.7,311.4z"/>
						<path class="st17" d="M205.3,316L205.3,316c0.3-0.2,0.7-0.2,1,0c1.6,1,3.8,1,5.5,0c0.3-0.2,0.8-0.2,1,0l0,0
							c0.3,0.2,0.1,0.7-0.3,1c-2.1,1.3-5,1.3-7,0C205.1,316.7,205.1,316.2,205.3,316z"/>
					</g>
					<g>
						<path class="st17" d="M217.3,279.1L217.3,279.1c0.2-0.2,0.5-0.2,0.7,0c1.2,1,2.8,1,3.9,0c0.2-0.2,0.5-0.2,0.7,0l0,0
							c0.2,0.2,0.2,0.7-0.1,0.9c-1.4,1.3-3.5,1.3-5,0C217.2,279.8,217.1,279.4,217.3,279.1z"/>
						<path class="st17" d="M217.4,283.7L217.4,283.7c0.2-0.2,0.5-0.2,0.8,0c1.3,1,2.9,1,4.1,0c0.2-0.2,0.6-0.2,0.8,0l0,0
							c0.2,0.2,0.2,0.7-0.1,0.9c-1.5,1.3-3.6,1.3-5.3,0C217.3,284.4,217.2,284,217.4,283.7z"/>
						<path class="st17" d="M217.4,288.3L217.4,288.3c0.2-0.2,0.5-0.2,0.8,0c1.3,1,3.1,1,4.3,0c0.2-0.2,0.6-0.2,0.8,0l0,0
							c0.2,0.2,0.2,0.7-0.2,1c-1.6,1.3-3.8,1.3-5.5,0C217.3,289,217.2,288.6,217.4,288.3z"/>
						<path class="st17" d="M217.5,293L217.5,293c0.2-0.2,0.6-0.2,0.8,0c1.4,1,3.2,1,4.5,0c0.3-0.2,0.6-0.2,0.8,0l0,0
							c0.2,0.2,0.2,0.7-0.2,0.9c-1.6,1.3-4,1.3-5.8,0C217.4,293.6,217.3,293.2,217.5,293z"/>
						<path class="st17" d="M217.6,297.6L217.6,297.6c0.2-0.2,0.6-0.2,0.9,0c1.4,1,3.4,1,4.7,0c0.3-0.2,0.6-0.2,0.9,0l0,0
							c0.2,0.2,0.2,0.7-0.2,1c-1.7,1.3-4.2,1.3-6,0C217.5,298.2,217.4,297.8,217.6,297.6z"/>
						<path class="st17" d="M217.7,302.2L217.7,302.2c0.2-0.2,0.6-0.2,0.9,0c1.5,1,3.5,1,4.9,0c0.3-0.2,0.7-0.2,0.9,0l0,0
							c0.2,0.2,0.2,0.7-0.2,0.9c-1.8,1.3-4.4,1.3-6.3,0C217.6,302.9,217.5,302.4,217.7,302.2z"/>
						<path class="st17" d="M217.8,306.8L217.8,306.8c0.2-0.2,0.6-0.2,1,0c1.6,1,3.6,1,5.1,0c0.3-0.2,0.7-0.2,1,0l0,0
							c0.3,0.2,0.2,0.7-0.2,0.9c-1.9,1.3-4.5,1.3-6.5,0C217.7,307.5,217.6,307,217.8,306.8z"/>
						<path class="st17" d="M217.9,311.4L217.9,311.4c0.2-0.2,0.7-0.2,1,0c1.6,1,3.8,1,5.3,0c0.3-0.2,0.7-0.2,1,0l0,0
							c0.3,0.2,0.2,0.7-0.2,0.9c-1.9,1.3-4.7,1.3-6.8,0C217.8,312.1,217.7,311.6,217.9,311.4z"/>
						<path class="st17" d="M218,316L218,316c0.3-0.2,0.7-0.2,1,0c1.7,1,3.9,1,5.5,0c0.3-0.2,0.8-0.2,1,0l0,0c0.3,0.2,0.2,0.7-0.2,1
							c-2,1.3-4.9,1.3-7,0C217.9,316.7,217.8,316.2,218,316z"/>
					</g>
					<g>
						<path class="st17" d="M226.2,279.1L226.2,279.1c0.2-0.2,0.5-0.2,0.7,0c1.3,1,2.9,1,3.9,0c0.2-0.2,0.5-0.2,0.7,0l0,0
							c0.2,0.2,0.2,0.7,0,0.9c-1.3,1.3-3.3,1.3-5,0C226.2,279.8,226,279.4,226.2,279.1z"/>
						<path class="st17" d="M226.8,283.7L226.8,283.7c0.2-0.2,0.5-0.2,0.8,0c1.4,1,3,1,4.1,0c0.2-0.2,0.5-0.2,0.8,0l0,0
							c0.2,0.2,0.2,0.7,0,0.9c-1.4,1.3-3.5,1.3-5.3,0C226.7,284.4,226.6,284,226.8,283.7z"/>
						<path class="st17" d="M227.3,288.3L227.3,288.3c0.2-0.2,0.5-0.2,0.8,0c1.4,1,3.2,1,4.3,0c0.2-0.2,0.6-0.2,0.8,0l0,0
							c0.2,0.2,0.2,0.7-0.1,1c-1.4,1.3-3.7,1.3-5.5,0C227.3,289,227.1,288.6,227.3,288.3z"/>
						<path class="st17" d="M227.9,293L227.9,293c0.2-0.2,0.5-0.2,0.8,0c1.5,1,3.3,1,4.5,0c0.2-0.2,0.6-0.2,0.8,0l0,0
							c0.3,0.2,0.2,0.7-0.1,0.9c-1.5,1.3-3.9,1.3-5.8,0C227.8,293.6,227.7,293.2,227.9,293z"/>
						<path class="st17" d="M228.4,297.6L228.4,297.6c0.2-0.2,0.6-0.2,0.9,0c1.5,1,3.5,1,4.7,0c0.2-0.2,0.6-0.2,0.9,0l0,0
							c0.3,0.2,0.3,0.7-0.1,1c-1.6,1.3-4.1,1.3-6,0C228.4,298.2,228.2,297.8,228.4,297.6z"/>
						<path class="st17" d="M229,302.2L229,302.2c0.2-0.2,0.6-0.2,0.9,0c1.6,1,3.6,1,4.9,0c0.3-0.2,0.7-0.2,0.9,0l0,0
							c0.3,0.2,0.3,0.7-0.1,0.9c-1.7,1.3-4.2,1.3-6.3,0C228.9,302.9,228.8,302.4,229,302.2z"/>
						<path class="st17" d="M229.5,306.8L229.5,306.8c0.2-0.2,0.6-0.2,1,0c1.7,1,3.7,1,5.1,0c0.3-0.2,0.7-0.2,1,0l0,0
							c0.3,0.2,0.3,0.7-0.1,0.9c-1.7,1.3-4.4,1.3-6.5,0C229.5,307.5,229.3,307,229.5,306.8z"/>
						<path class="st17" d="M230.1,311.4L230.1,311.4c0.2-0.2,0.7-0.2,1,0c1.7,1,3.9,1,5.3,0c0.3-0.2,0.7-0.2,1,0l0,0
							c0.3,0.2,0.3,0.7-0.1,0.9c-1.8,1.3-4.6,1.3-6.8,0C230,312.1,229.9,311.6,230.1,311.4z"/>
						<path class="st17" d="M230.7,316L230.7,316c0.2-0.2,0.7-0.2,1,0c1.8,1,4,1,5.5,0c0.3-0.2,0.7-0.2,1,0l0,0
							c0.3,0.2,0.3,0.7-0.1,1c-1.9,1.3-4.8,1.3-7,0C230.6,316.7,230.4,316.2,230.7,316z"/>
					</g>
					<g>
						<path class="st17" d="M235.1,279.1L235.1,279.1c0.1-0.2,0.5-0.2,0.7,0c1.4,1,3,1,3.9,0c0.2-0.2,0.5-0.2,0.7,0l0,0
							c0.2,0.2,0.3,0.7,0.1,0.9c-1.1,1.3-3.2,1.3-5,0C235.2,279.8,235,279.4,235.1,279.1z"/>
						<path class="st17" d="M236.2,283.7L236.2,283.7c0.1-0.2,0.5-0.2,0.8,0c1.5,1,3.1,1,4.1,0c0.2-0.2,0.5-0.2,0.8,0l0,0
							c0.3,0.2,0.3,0.7,0,0.9c-1.2,1.3-3.4,1.3-5.3,0C236.2,284.4,236,284,236.2,283.7z"/>
						<path class="st17" d="M237.2,288.3L237.2,288.3c0.2-0.2,0.5-0.2,0.8,0c1.5,1,3.3,1,4.3,0c0.2-0.2,0.5-0.2,0.8,0l0,0
							c0.3,0.2,0.3,0.7,0,1c-1.3,1.3-3.6,1.3-5.5,0C237.2,289,237,288.6,237.2,288.3z"/>
						<path class="st17" d="M238.2,293L238.2,293c0.2-0.2,0.5-0.2,0.8,0c1.6,1,3.4,1,4.5,0c0.2-0.2,0.6-0.2,0.8,0l0,0
							c0.3,0.2,0.3,0.7,0,0.9c-1.4,1.3-3.7,1.3-5.8,0C238.2,293.6,238.1,293.2,238.2,293z"/>
						<path class="st17" d="M239.2,297.6L239.2,297.6c0.2-0.2,0.6-0.2,0.9,0c1.6,1,3.6,1,4.7,0c0.2-0.2,0.6-0.2,0.9,0l0,0
							c0.3,0.2,0.3,0.7,0,1c-1.5,1.3-3.9,1.3-6,0C239.3,298.2,239.1,297.8,239.2,297.6z"/>
						<path class="st17" d="M240.3,302.2L240.3,302.2c0.2-0.2,0.6-0.2,0.9,0c1.7,1,3.7,1,4.9,0c0.2-0.2,0.6-0.2,0.9,0l0,0
							c0.3,0.2,0.3,0.7,0,0.9c-1.5,1.3-4.1,1.3-6.3,0C240.3,302.9,240.1,302.4,240.3,302.2z"/>
						<path class="st17" d="M241.3,306.8L241.3,306.8c0.2-0.2,0.6-0.2,1,0c1.8,1,3.8,1,5.1,0c0.3-0.2,0.7-0.2,1,0l0,0
							c0.3,0.2,0.3,0.7,0,0.9c-1.6,1.3-4.3,1.3-6.5,0C241.3,307.5,241.1,307,241.3,306.8z"/>
						<path class="st17" d="M242.3,311.4L242.3,311.4c0.2-0.2,0.6-0.2,1,0c1.8,1,4,1,5.3,0c0.3-0.2,0.7-0.2,1,0l0,0
							c0.3,0.2,0.3,0.7,0,0.9c-1.7,1.3-4.5,1.3-6.8,0C242.3,312.1,242.1,311.6,242.3,311.4z"/>
						<path class="st17" d="M243.3,316L243.3,316c0.2-0.2,0.7-0.2,1,0c1.9,1,4.1,1,5.5,0c0.3-0.2,0.7-0.2,1,0l0,0
							c0.3,0.2,0.3,0.7,0,1c-1.8,1.3-4.6,1.3-7,0C243.3,316.7,243.1,316.2,243.3,316z"/>
					</g>
					<g>
						<g>
							<path class="st17" d="M244.1,279.1c-0.1,0.2,0.1,0.7,0.5,0.9c1.9,1.3,4,1.3,5,0c0.2-0.3,0.1-0.7-0.2-0.9l0,0
								c-0.3-0.2-0.6-0.2-0.7,0c-0.8,1-2.4,1-3.9,0C244.5,278.9,244.2,278.9,244.1,279.1L244.1,279.1z"/>
						</g>
						<g>
							<path class="st17" d="M245.6,283.7c-0.1,0.2,0.1,0.7,0.5,0.9c2,1.3,4.2,1.3,5.3,0c0.2-0.3,0.1-0.7-0.1-0.9l0,0
								c-0.3-0.2-0.6-0.2-0.8,0c-0.9,1-2.5,1-4.1,0C246,283.5,245.7,283.5,245.6,283.7L245.6,283.7z"/>
						</g>
						<g>
							<path class="st17" d="M247.1,288.3c-0.1,0.2,0.1,0.7,0.5,1c2.1,1.3,4.3,1.3,5.5,0c0.2-0.3,0.2-0.7-0.1-1l0,0
								c-0.3-0.2-0.6-0.2-0.8,0c-0.9,1-2.7,1-4.3,0C247.5,288.1,247.2,288.1,247.1,288.3L247.1,288.3z"/>
						</g>
						<g>
							<path class="st17" d="M248.6,293c-0.1,0.2,0.1,0.7,0.5,0.9c2.1,1.3,4.5,1.3,5.8,0c0.3-0.3,0.2-0.7-0.1-0.9l0,0
								c-0.3-0.2-0.7-0.2-0.8,0c-1,1-2.8,1-4.5,0C249.1,292.8,248.7,292.7,248.6,293L248.6,293z"/>
						</g>
						<g>
							<path class="st17" d="M250,297.6c-0.1,0.2,0.1,0.7,0.6,1c2.2,1.3,4.7,1.3,6,0c0.3-0.3,0.2-0.7-0.1-1l0,0
								c-0.3-0.2-0.7-0.2-0.9,0c-1,1-3,1-4.7,0C250.6,297.4,250.2,297.3,250,297.6L250,297.6z"/>
						</g>
						<g>
							<path class="st17" d="M251.5,302.2c-0.2,0.2,0.1,0.7,0.6,0.9c2.3,1.3,4.9,1.3,6.3,0c0.3-0.3,0.2-0.7-0.1-0.9l0,0
								c-0.3-0.2-0.7-0.2-0.9,0c-1.1,1-3.1,1-4.9,0C252.1,302,251.7,301.9,251.5,302.2L251.5,302.2z"/>
						</g>
						<g>
							<path class="st17" d="M253,306.8c-0.2,0.2,0.1,0.7,0.6,0.9c2.4,1.3,5.1,1.3,6.5,0c0.3-0.3,0.2-0.7-0.1-0.9l0,0
								c-0.3-0.2-0.7-0.2-1,0c-1.2,1-3.2,1-5.1,0C253.6,306.6,253.2,306.5,253,306.8L253,306.8z"/>
						</g>
						<g>
							<path class="st17" d="M254.5,311.4c-0.2,0.2,0.1,0.7,0.6,0.9c2.5,1.3,5.2,1.3,6.8,0c0.3-0.3,0.3-0.7-0.1-0.9l0,0
								c-0.3-0.2-0.8-0.2-1,0c-1.2,1-3.4,1-5.3,0C255.1,311.2,254.7,311.2,254.5,311.4L254.5,311.4z"/>
						</g>
						<g>
							<path class="st17" d="M256,316c-0.2,0.2,0.1,0.7,0.6,1c2.5,1.3,5.4,1.3,7.1,0c0.3-0.3,0.3-0.7-0.1-1l0,0
								c-0.3-0.2-0.8-0.2-1,0c-1.3,1-3.5,1-5.5,0C256.6,315.8,256.2,315.8,256,316L256,316z"/>
						</g>
					</g>
				</g>
			</g>
			<g>
				<g>
					<rect x="193.2" y="332.5" class="st18" width="15.5" height="9.2"/>
					<path class="st19" d="M192.6,332v10.3h16.6V332H192.6z M208.2,333.1c0,0.9,0,7.3,0,8.2c-1,0-13.5,0-14.5,0c0-0.9,0-7.3,0-8.2
						C194.6,333.1,207.2,333.1,208.2,333.1z"/>
				</g>
				<rect x="200.6" y="333.1" class="st19" width="0.7" height="8.2"/>
			</g>
			<g>
				<g>
					<rect x="221.3" y="332.5" class="st18" width="15.5" height="9.2"/>
					<path class="st19" d="M220.8,332v10.3h16.6V332H220.8z M236.3,333.1c0,0.9,0,7.3,0,8.2c-1,0-13.5,0-14.5,0c0-0.9,0-7.3,0-8.2
						C222.8,333.1,235.4,333.1,236.3,333.1z"/>
				</g>
				<rect x="228.7" y="333.1" class="st19" width="0.7" height="8.2"/>
			</g>
			<g>
				<rect x="195.5" y="357.2" class="st20" width="10.7" height="14.4"/>
				<path class="st21" d="M194.9,356.6v15.6h11.9v-15.6H194.9z M205.6,357.8c0,1.1,0,12.1,0,13.2c-1,0-8.5,0-9.5,0
					c0-1.1,0-12.1,0-13.2C197.1,357.8,204.6,357.8,205.6,357.8z"/>
			</g>
			<g>
				<rect x="221.5" y="361.8" class="st20" width="9" height="9"/>
				<path class="st21" d="M220.9,361.2v10.2h10.2v-10.2H220.9z M229.9,362.4c0,1,0,6.8,0,7.8c-1,0-6.8,0-7.8,0c0-1,0-6.8,0-7.8
					C223.1,362.4,229,362.4,229.9,362.4z"/>
			</g>
			<g>
				<rect x="196.8" y="389.9" class="st20" width="9" height="9"/>
				<path class="st21" d="M196.2,389.3v10.2h10.2v-10.2H196.2z M205.2,390.5c0,1,0,6.8,0,7.8c-1,0-6.8,0-7.8,0c0-1,0-6.8,0-7.8
					C198.4,390.5,204.3,390.5,205.2,390.5z"/>
			</g>
			<polygon class="st22" points="207,353.2 194.7,353.2 193.1,356.6 208.6,356.6 			"/>
		</g>
		<g>
			<polygon class="st23" points="267.5,405.7 215.5,405.7 163.4,405.7 159.3,420.4 215.5,420.4 271.6,420.4 			"/>
			
				<pattern  id="SVGID_00000068677739926285849020000013096943593564053436_" xlink:href="#Unnamed_Pattern_2" patternTransform="matrix(0.1408 0 0 0.1408 -6779.9731 -6752.6553)">
			</pattern>
			<polygon style="fill:url(#SVGID_00000068677739926285849020000013096943593564053436_);" points="267.5,405.7 215.5,405.7 
				163.4,405.7 159.3,420.4 215.5,420.4 271.6,420.4 			"/>
		</g>
	</g>
	<g>
		<g>
			<polygon class="st12" points="293.9,288.8 274.6,330.3 423.9,330.3 404.6,288.8 			"/>
			<polygon class="st13" points="274.6,330.3 277.3,336.1 421.2,336.1 423.9,330.3 			"/>
			<rect x="277.3" y="336.1" class="st14" width="143.9" height="62.9"/>
			<rect x="277.3" y="363.5" class="st15" width="143.9" height="35.5"/>
			<g>
				<g>
					<path class="st17" d="M279.5,328.2c-0.2,0.4-0.7,0.7-1.3,0.7c-0.3,0-0.6,0-0.9,0c-0.5,0-0.8-0.3-0.6-0.7
						c5.7-12.4,11.5-24.9,17.2-37.3c0.2-0.4,0.6-0.7,1-0.7c0.2,0,0.5,0,0.7,0c0.4,0,0.6,0.3,0.4,0.7
						C290.6,303.3,285.1,315.8,279.5,328.2z"/>
					<path class="st17" d="M289.7,328.2c4.7-12.4,9.4-24.9,14.2-37.3c0.1-0.4,0.6-0.7,1-0.7c0.2,0,0.5,0,0.7,0
						c0.4,0,0.6,0.3,0.5,0.7c-4.5,12.4-9,24.9-13.5,37.3c-0.1,0.4-0.7,0.7-1.2,0.7c-0.3,0-0.6,0-0.9,0
						C289.8,328.9,289.5,328.6,289.7,328.2z"/>
					<path class="st17" d="M302.6,328.2c3.7-12.4,7.4-24.9,11.1-37.3c0.1-0.4,0.5-0.7,0.9-0.7c0.2,0,0.5,0,0.7,0
						c0.4,0,0.6,0.3,0.5,0.7c-3.5,12.4-6.9,24.9-10.4,37.3c-0.1,0.4-0.6,0.7-1.1,0.7c-0.3,0-0.6,0-0.9,0
						C302.8,328.9,302.5,328.6,302.6,328.2z"/>
					<path class="st17" d="M315.5,328.2c2.7-12.4,5.3-24.9,8-37.3c0.1-0.4,0.5-0.7,0.9-0.7c0.2,0,0.5,0,0.7,0c0.4,0,0.6,0.3,0.6,0.7
						c-2.5,12.4-4.9,24.9-7.4,37.3c-0.1,0.4-0.6,0.7-1.1,0.7c-0.3,0-0.6,0-0.9,0C315.8,328.9,315.4,328.6,315.5,328.2z"/>
					<path class="st17" d="M328.5,328.2c1.6-12.4,3.3-24.9,4.9-37.3c0.1-0.4,0.4-0.7,0.8-0.7c0.2,0,0.5,0,0.7,0
						c0.4,0,0.7,0.3,0.6,0.7c-1.4,12.4-2.9,24.9-4.3,37.3c0,0.4-0.5,0.7-1,0.7c-0.3,0-0.6,0-0.9,0
						C328.8,328.9,328.4,328.6,328.5,328.2z"/>
					<path class="st17" d="M341.4,328.2c0.6-12.4,1.2-24.9,1.9-37.3c0-0.4,0.4-0.7,0.7-0.7c0.2,0,0.5,0,0.7,0c0.4,0,0.7,0.3,0.7,0.7
						c-0.4,12.4-0.8,24.9-1.2,37.3c0,0.4-0.4,0.7-1,0.7c-0.3,0-0.6,0-0.9,0C341.8,328.9,341.4,328.6,341.4,328.2z"/>
					<path class="st17" d="M354.3,328.2c-0.4-12.4-0.8-24.9-1.2-37.3c0-0.4,0.3-0.7,0.7-0.7c0.2,0,0.5,0,0.7,0
						c0.4,0,0.7,0.3,0.7,0.7c0.6,12.4,1.2,24.9,1.9,37.3c0,0.4-0.4,0.7-0.9,0.7c-0.3,0-0.6,0-0.9,0
						C354.8,328.9,354.3,328.6,354.3,328.2z"/>
					<path class="st17" d="M367.2,328.2c-1.4-12.4-2.9-24.9-4.3-37.3c0-0.4,0.2-0.7,0.6-0.7c0.2,0,0.5,0,0.7,0
						c0.4,0,0.8,0.3,0.8,0.7c1.6,12.4,3.3,24.9,4.9,37.3c0.1,0.4-0.3,0.7-0.8,0.7c-0.3,0-0.6,0-0.9,0
						C367.7,328.9,367.3,328.6,367.2,328.2z"/>
					<path class="st17" d="M380.2,328.2c-2.4-12.4-4.9-24.9-7.4-37.3c-0.1-0.4,0.2-0.7,0.6-0.7c0.2,0,0.5,0,0.7,0
						c0.4,0,0.8,0.3,0.9,0.7c2.7,12.4,5.3,24.9,8,37.3c0.1,0.4-0.3,0.7-0.8,0.7c-0.3,0-0.6,0-0.9,0
						C380.7,328.9,380.2,328.6,380.2,328.2z"/>
					<path class="st17" d="M393.1,328.2c-3.5-12.4-7-24.9-10.4-37.3c-0.1-0.4,0.1-0.7,0.5-0.7c0.2,0,0.5,0,0.7,0
						c0.4,0,0.8,0.3,0.9,0.7c3.7,12.4,7.4,24.9,11.1,37.3c0.1,0.4-0.2,0.7-0.7,0.7c-0.3,0-0.6,0-0.9,0
						C393.7,328.9,393.2,328.6,393.1,328.2z"/>
					<path class="st17" d="M406,328.2c-4.5-12.4-9-24.9-13.5-37.3c-0.1-0.4,0.1-0.7,0.5-0.7c0.2,0,0.5,0,0.7,0c0.4,0,0.8,0.3,1,0.7
						c4.7,12.4,9.4,24.9,14.2,37.3c0.1,0.4-0.2,0.7-0.7,0.7c-0.3,0-0.6,0-0.9,0C406.7,328.9,406.2,328.6,406,328.2z"/>
					<path class="st17" d="M419,328.2c0.2,0.4,0.7,0.7,1.3,0.7c0.3,0,0.6,0,0.9,0c0.5,0,0.8-0.3,0.6-0.7
						c-5.7-12.4-11.5-24.9-17.2-37.3c-0.2-0.4-0.6-0.7-1-0.7c-0.2,0-0.5,0-0.7,0c-0.4,0-0.6,0.3-0.4,0.7
						C407.9,303.3,413.4,315.8,419,328.2z"/>
				</g>
				<g>
					<g>
						<g>
							<path class="st17" d="M302.8,291.3c0.1,0.2-0.2,0.7-0.6,1c-2.2,1.3-4.5,1.3-5.6,0c-0.2-0.3-0.1-0.7,0.2-1l0,0
								c0.3-0.2,0.6-0.2,0.8,0c0.9,1,2.7,1,4.4,0C302.3,291.1,302.7,291.1,302.8,291.3L302.8,291.3z"/>
						</g>
						<g>
							<path class="st17" d="M301.1,295.7c0.1,0.2-0.2,0.7-0.6,1c-2.3,1.3-4.6,1.3-5.8,0c-0.2-0.3-0.1-0.7,0.2-1l0,0
								c0.3-0.2,0.7-0.2,0.8,0c0.9,1,2.8,1,4.5,0C300.6,295.5,301,295.5,301.1,295.7L301.1,295.7z"/>
						</g>
						<g>
							<path class="st17" d="M299.4,300.1c0.1,0.2-0.2,0.7-0.6,1c-2.3,1.3-4.7,1.3-6,0c-0.3-0.3-0.1-0.7,0.2-1l0,0
								c0.3-0.2,0.7-0.2,0.9,0c1,1,2.9,1,4.7,0C298.9,299.8,299.3,299.8,299.4,300.1L299.4,300.1z"/>
						</g>
						<g>
							<path class="st17" d="M297.7,304.4c0.1,0.2-0.2,0.7-0.6,1c-2.4,1.3-4.9,1.3-6.2,0c-0.3-0.3-0.2-0.7,0.2-1l0,0
								c0.3-0.2,0.7-0.2,0.9,0c1,1,3,1,4.9,0C297.2,304.2,297.6,304.2,297.7,304.4L297.7,304.4z"/>
						</g>
						<g>
							<path class="st17" d="M296,308.8c0.1,0.2-0.1,0.7-0.6,1c-2.4,1.3-5,1.3-6.4,0c-0.3-0.3-0.2-0.7,0.2-1l0,0
								c0.3-0.2,0.7-0.2,0.9,0c1.1,1,3.1,1,5,0C295.5,308.6,295.9,308.5,296,308.8L296,308.8z"/>
						</g>
						<g>
							<path class="st17" d="M294.4,313.1c0.1,0.2-0.1,0.7-0.7,1c-2.5,1.3-5.2,1.3-6.6,0c-0.3-0.3-0.2-0.7,0.1-1l0,0
								c0.3-0.2,0.7-0.2,1,0c1.1,1,3.2,1,5.2,0C293.8,312.9,294.2,312.9,294.4,313.1L294.4,313.1z"/>
						</g>
						<g>
							<path class="st17" d="M292.7,317.5c0.1,0.2-0.1,0.7-0.7,1c-2.6,1.3-5.3,1.3-6.8,0c-0.3-0.3-0.2-0.7,0.1-1l0,0
								c0.3-0.2,0.8-0.2,1,0c1.2,1,3.3,1,5.3,0C292.1,317.3,292.5,317.3,292.7,317.5L292.7,317.5z"/>
						</g>
						<g>
							<path class="st17" d="M291,321.9c0.2,0.2-0.1,0.7-0.7,1c-2.6,1.3-5.4,1.3-7,0c-0.3-0.3-0.2-0.7,0.1-1l0,0
								c0.4-0.2,0.8-0.2,1,0c1.2,1,3.4,1,5.5,0C290.4,321.6,290.8,321.6,291,321.9L291,321.9z"/>
						</g>
						<g>
							<path class="st17" d="M289.3,326.2c0.2,0.2-0.1,0.7-0.7,1c-2.7,1.3-5.6,1.3-7.2,0c-0.3-0.3-0.2-0.7,0.1-1l0,0
								c0.4-0.2,0.8-0.2,1.1,0c1.3,1,3.5,1,5.7,0C288.7,326,289.1,326,289.3,326.2L289.3,326.2z"/>
						</g>
					</g>
					<g>
						<path class="st17" d="M306.7,291.3L306.7,291.3c0.3-0.2,0.6-0.2,0.8,0c1,1,2.7,1,4.4,0c0.3-0.2,0.7-0.2,0.8,0l0,0
							c0.1,0.2-0.1,0.7-0.5,1c-2.1,1.3-4.4,1.3-5.6,0C306.3,292,306.4,291.6,306.7,291.3z"/>
						<path class="st17" d="M305.1,295.7L305.1,295.7c0.3-0.2,0.6-0.2,0.8,0c1,1,2.9,1,4.5,0c0.3-0.2,0.7-0.2,0.8,0l0,0
							c0.1,0.2-0.1,0.7-0.5,1c-2.1,1.3-4.5,1.3-5.8,0C304.8,296.4,304.8,295.9,305.1,295.7z"/>
						<path class="st17" d="M303.6,300.1L303.6,300.1c0.3-0.2,0.7-0.2,0.9,0c1.1,1,3,1,4.7,0c0.3-0.2,0.7-0.2,0.9,0l0,0
							c0.1,0.2-0.1,0.7-0.5,1c-2.2,1.3-4.6,1.3-6,0C303.2,300.8,303.3,300.3,303.6,300.1z"/>
						<path class="st17" d="M302,304.4L302,304.4c0.3-0.2,0.7-0.2,0.9,0c1.1,1,3.1,1,4.9,0c0.3-0.2,0.7-0.2,0.9,0l0,0
							c0.1,0.2-0.1,0.7-0.6,1c-2.3,1.3-4.8,1.3-6.2,0C301.7,305.1,301.7,304.7,302,304.4z"/>
						<path class="st17" d="M300.5,308.8L300.5,308.8c0.3-0.2,0.7-0.2,0.9,0c1.2,1,3.2,1,5,0c0.4-0.2,0.8-0.2,0.9,0l0,0
							c0.2,0.2-0.1,0.7-0.6,1c-2.3,1.3-4.9,1.3-6.4,0C300.1,309.5,300.2,309,300.5,308.8z"/>
						<path class="st17" d="M298.9,313.1L298.9,313.1c0.3-0.2,0.7-0.2,1,0c1.2,1,3.3,1,5.2,0c0.4-0.2,0.8-0.2,0.9,0l0,0
							c0.2,0.2-0.1,0.7-0.6,1c-2.4,1.3-5.1,1.3-6.6,0C298.6,313.8,298.6,313.4,298.9,313.1z"/>
						<path class="st17" d="M297.4,317.5L297.4,317.5c0.3-0.2,0.7-0.2,1,0c1.3,1,3.4,1,5.3,0c0.4-0.2,0.8-0.2,1,0l0,0
							c0.2,0.2-0.1,0.7-0.6,1c-2.4,1.3-5.2,1.3-6.8,0C297,318.2,297.1,317.7,297.4,317.5z"/>
						<path class="st17" d="M295.9,321.9L295.9,321.9c0.3-0.2,0.8-0.2,1,0c1.3,1,3.5,1,5.5,0c0.4-0.2,0.8-0.2,1,0l0,0
							c0.2,0.2-0.1,0.7-0.6,1c-2.5,1.3-5.3,1.3-7,0C295.5,322.6,295.5,322.1,295.9,321.9z"/>
						<path class="st17" d="M294.3,326.2L294.3,326.2c0.3-0.2,0.8-0.2,1.1,0c1.3,1,3.6,1,5.7,0c0.4-0.2,0.9-0.2,1,0l0,0
							c0.2,0.2-0.1,0.7-0.6,1c-2.6,1.3-5.5,1.3-7.2,0C293.9,326.9,294,326.5,294.3,326.2z"/>
					</g>
					<g>
						<path class="st17" d="M316.6,291.3L316.6,291.3c0.3-0.2,0.6-0.2,0.8,0c1.1,1,2.8,1,4.4,0c0.3-0.2,0.7-0.2,0.8,0l0,0
							c0.1,0.2,0,0.7-0.5,1c-2,1.3-4.3,1.3-5.6,0C316.3,292,316.3,291.6,316.6,291.3z"/>
						<path class="st17" d="M315.4,295.7L315.4,295.7c0.3-0.2,0.6-0.2,0.8,0c1.1,1,2.9,1,4.5,0c0.3-0.2,0.7-0.2,0.8,0l0,0
							c0.2,0.2,0,0.7-0.5,1c-2,1.3-4.4,1.3-5.8,0C315.1,296.4,315.1,295.9,315.4,295.7z"/>
						<path class="st17" d="M314.2,300.1L314.2,300.1c0.3-0.2,0.6-0.2,0.9,0c1.1,1,3.1,1,4.7,0c0.3-0.2,0.7-0.2,0.9,0l0,0
							c0.2,0.2,0,0.7-0.5,1c-2.1,1.3-4.5,1.3-6,0C313.9,300.8,313.9,300.3,314.2,300.1z"/>
						<path class="st17" d="M313,304.4L313,304.4c0.3-0.2,0.7-0.2,0.9,0c1.2,1,3.2,1,4.9,0c0.3-0.2,0.7-0.2,0.9,0l0,0
							c0.2,0.2,0,0.7-0.5,1c-2.2,1.3-4.7,1.3-6.2,0C312.7,305.1,312.7,304.7,313,304.4z"/>
						<path class="st17" d="M311.8,308.8L311.8,308.8c0.3-0.2,0.7-0.2,0.9,0c1.2,1,3.3,1,5,0c0.3-0.2,0.7-0.2,0.9,0l0,0
							c0.2,0.2,0,0.7-0.5,1c-2.2,1.3-4.8,1.3-6.4,0C311.5,309.5,311.5,309,311.8,308.8z"/>
						<path class="st17" d="M310.6,313.1L310.6,313.1c0.3-0.2,0.7-0.2,1,0c1.3,1,3.4,1,5.2,0c0.4-0.2,0.8-0.2,0.9,0l0,0
							c0.2,0.2,0,0.7-0.5,1c-2.3,1.3-5,1.3-6.6,0C310.3,313.8,310.3,313.4,310.6,313.1z"/>
						<path class="st17" d="M309.4,317.5L309.4,317.5c0.3-0.2,0.7-0.2,1,0c1.3,1,3.5,1,5.3,0c0.4-0.2,0.8-0.2,1,0l0,0
							c0.2,0.2,0,0.7-0.5,1c-2.3,1.3-5.1,1.3-6.8,0C309.1,318.2,309.1,317.7,309.4,317.5z"/>
						<path class="st17" d="M308.3,321.9L308.3,321.9c0.3-0.2,0.7-0.2,1,0c1.4,1,3.6,1,5.5,0c0.4-0.2,0.8-0.2,1,0l0,0
							c0.2,0.2,0,0.7-0.5,1c-2.4,1.3-5.2,1.3-7,0C307.9,322.6,307.9,322.1,308.3,321.9z"/>
						<path class="st17" d="M307.1,326.2L307.1,326.2c0.3-0.2,0.8-0.2,1,0c1.4,1,3.7,1,5.7,0c0.4-0.2,0.8-0.2,1,0l0,0
							c0.2,0.2,0,0.7-0.5,1c-2.5,1.3-5.4,1.3-7.2,0C306.7,326.9,306.8,326.5,307.1,326.2z"/>
					</g>
					<g>
						<path class="st17" d="M326.5,291.3L326.5,291.3c0.2-0.2,0.6-0.2,0.8,0c1.1,1,2.9,1,4.4,0c0.3-0.2,0.6-0.2,0.8,0l0,0
							c0.2,0.2,0,0.7-0.4,1c-1.9,1.3-4.1,1.3-5.6,0C326.2,292,326.2,291.6,326.5,291.3z"/>
						<path class="st17" d="M325.6,295.7L325.6,295.7c0.3-0.2,0.6-0.2,0.8,0c1.2,1,3,1,4.5,0c0.3-0.2,0.7-0.2,0.8,0l0,0
							c0.2,0.2,0,0.7-0.4,1c-1.9,1.3-4.3,1.3-5.8,0C325.4,296.4,325.4,295.9,325.6,295.7z"/>
						<path class="st17" d="M324.8,300.1L324.8,300.1c0.3-0.2,0.6-0.2,0.9,0c1.2,1,3.1,1,4.7,0c0.3-0.2,0.7-0.2,0.9,0l0,0
							c0.2,0.2,0,0.7-0.4,1c-2,1.3-4.4,1.3-6,0C324.6,300.8,324.6,300.3,324.8,300.1z"/>
						<path class="st17" d="M324,304.4L324,304.4c0.3-0.2,0.6-0.2,0.9,0c1.3,1,3.2,1,4.9,0c0.3-0.2,0.7-0.2,0.9,0l0,0
							c0.2,0.2,0,0.7-0.4,1c-2.1,1.3-4.6,1.3-6.2,0C323.7,305.1,323.7,304.7,324,304.4z"/>
						<path class="st17" d="M323.2,308.8L323.2,308.8c0.3-0.2,0.7-0.2,0.9,0c1.3,1,3.4,1,5,0c0.3-0.2,0.7-0.2,0.9,0l0,0
							c0.2,0.2,0,0.7-0.4,1c-2.1,1.3-4.7,1.3-6.4,0C322.9,309.5,322.9,309,323.2,308.8z"/>
						<path class="st17" d="M322.3,313.1L322.3,313.1c0.3-0.2,0.7-0.2,1,0c1.4,1,3.5,1,5.2,0c0.3-0.2,0.8-0.2,1,0l0,0
							c0.2,0.2,0,0.7-0.4,1c-2.2,1.3-4.8,1.3-6.6,0C322.1,313.8,322,313.4,322.3,313.1z"/>
						<path class="st17" d="M321.5,317.5L321.5,317.5c0.3-0.2,0.7-0.2,1,0c1.4,1,3.6,1,5.3,0c0.3-0.2,0.8-0.2,1,0l0,0
							c0.2,0.2,0,0.7-0.4,1c-2.2,1.3-5,1.3-6.8,0C321.2,318.2,321.2,317.7,321.5,317.5z"/>
						<path class="st17" d="M320.7,321.9L320.7,321.9c0.3-0.2,0.7-0.2,1,0c1.5,1,3.7,1,5.5,0c0.4-0.2,0.8-0.2,1,0l0,0
							c0.2,0.2,0,0.7-0.4,1c-2.3,1.3-5.1,1.3-7,0C320.4,322.6,320.4,322.1,320.7,321.9z"/>
						<path class="st17" d="M319.8,326.2L319.8,326.2c0.3-0.2,0.7-0.2,1,0c1.5,1,3.8,1,5.7,0c0.4-0.2,0.8-0.2,1,0l0,0
							c0.2,0.2,0,0.7-0.4,1c-2.4,1.3-5.3,1.3-7.2,0C319.6,326.9,319.5,326.5,319.8,326.2z"/>
					</g>
					<g>
						<path class="st17" d="M336.4,291.3L336.4,291.3c0.2-0.2,0.6-0.2,0.8,0c1.2,1,3,1,4.4,0c0.3-0.2,0.6-0.2,0.8,0l0,0
							c0.2,0.2,0.1,0.7-0.3,1c-1.8,1.3-4,1.3-5.6,0C336.2,292,336.1,291.6,336.4,291.3z"/>
						<path class="st17" d="M335.9,295.7L335.9,295.7c0.2-0.2,0.6-0.2,0.8,0c1.3,1,3.1,1,4.5,0c0.3-0.2,0.6-0.2,0.8,0l0,0
							c0.2,0.2,0.1,0.7-0.3,1c-1.8,1.3-4.2,1.3-5.8,0C335.7,296.4,335.7,295.9,335.9,295.7z"/>
						<path class="st17" d="M335.4,300.1L335.4,300.1c0.2-0.2,0.6-0.2,0.9,0c1.3,1,3.2,1,4.7,0c0.3-0.2,0.7-0.2,0.9,0l0,0
							c0.2,0.2,0.1,0.7-0.3,1c-1.9,1.3-4.3,1.3-6,0C335.2,300.8,335.2,300.3,335.4,300.1z"/>
						<path class="st17" d="M335,304.4L335,304.4c0.2-0.2,0.6-0.2,0.9,0c1.4,1,3.3,1,4.9,0c0.3-0.2,0.7-0.2,0.9,0l0,0
							c0.2,0.2,0.1,0.7-0.3,1c-1.9,1.3-4.5,1.3-6.2,0C334.8,305.1,334.7,304.7,335,304.4z"/>
						<path class="st17" d="M334.5,308.8C334.5,308.8,334.5,308.8,334.5,308.8c0.3-0.2,0.7-0.2,0.9,0c1.4,1,3.4,1,5,0
							c0.3-0.2,0.7-0.2,0.9,0l0,0c0.2,0.2,0.1,0.7-0.3,1c-2,1.3-4.6,1.3-6.4,0C334.3,309.5,334.2,309,334.5,308.8z"/>
						<path class="st17" d="M334,313.1L334,313.1c0.3-0.2,0.7-0.2,1,0c1.5,1,3.6,1,5.2,0c0.3-0.2,0.7-0.2,1,0l0,0
							c0.2,0.2,0.1,0.7-0.3,1c-2.1,1.3-4.7,1.3-6.6,0C333.8,313.8,333.8,313.4,334,313.1z"/>
						<path class="st17" d="M333.5,317.5L333.5,317.5c0.3-0.2,0.7-0.2,1,0c1.5,1,3.7,1,5.3,0c0.3-0.2,0.8-0.2,1,0l0,0
							c0.2,0.2,0.1,0.7-0.3,1c-2.1,1.3-4.9,1.3-6.8,0C333.3,318.2,333.3,317.7,333.5,317.5z"/>
						<path class="st17" d="M333.1,321.9L333.1,321.9c0.3-0.2,0.7-0.2,1,0c1.6,1,3.8,1,5.5,0c0.3-0.2,0.8-0.2,1,0l0,0
							c0.2,0.2,0.1,0.7-0.3,1c-2.2,1.3-5,1.3-7,0C332.9,322.6,332.8,322.1,333.1,321.9z"/>
						<path class="st17" d="M332.6,326.2L332.6,326.2c0.3-0.2,0.7-0.2,1,0c1.6,1,3.9,1,5.7,0c0.3-0.2,0.8-0.2,1,0l0,0
							c0.2,0.2,0.1,0.7-0.4,1c-2.2,1.3-5.2,1.3-7.2,0C332.4,326.9,332.3,326.5,332.6,326.2z"/>
					</g>
					<g>
						<path class="st17" d="M346.2,291.3L346.2,291.3c0.2-0.2,0.6-0.2,0.8,0c1.3,1,3.1,1,4.4,0c0.3-0.2,0.6-0.2,0.8,0l0,0
							c0.2,0.2,0.1,0.7-0.2,1c-1.7,1.3-3.9,1.3-5.6,0C346.1,292,346,291.6,346.2,291.3z"/>
						<path class="st17" d="M346.1,295.7L346.1,295.7c0.2-0.2,0.6-0.2,0.8,0c1.4,1,3.2,1,4.5,0c0.3-0.2,0.6-0.2,0.8,0l0,0
							c0.2,0.2,0.1,0.7-0.2,1c-1.7,1.3-4.1,1.3-5.8,0C346,296.4,345.9,295.9,346.1,295.7z"/>
						<path class="st17" d="M346,300.1L346,300.1c0.2-0.2,0.6-0.2,0.9,0c1.4,1,3.3,1,4.7,0c0.3-0.2,0.6-0.2,0.9,0l0,0
							c0.2,0.2,0.1,0.7-0.2,1c-1.8,1.3-4.2,1.3-6,0C345.9,300.8,345.8,300.3,346,300.1z"/>
						<path class="st17" d="M345.9,304.4L345.9,304.4c0.2-0.2,0.6-0.2,0.9,0c1.4,1,3.4,1,4.9,0c0.3-0.2,0.7-0.2,0.9,0l0,0
							c0.2,0.2,0.1,0.7-0.2,1c-1.8,1.3-4.4,1.3-6.2,0C345.8,305.1,345.7,304.7,345.9,304.4z"/>
						<path class="st17" d="M345.8,308.8L345.8,308.8c0.2-0.2,0.6-0.2,0.9,0c1.5,1,3.5,1,5,0c0.3-0.2,0.7-0.2,0.9,0l0,0
							c0.2,0.2,0.1,0.7-0.2,1c-1.9,1.3-4.5,1.3-6.4,0C345.7,309.5,345.6,309,345.8,308.8z"/>
						<path class="st17" d="M345.7,313.1L345.7,313.1c0.2-0.2,0.7-0.2,1,0c1.5,1,3.6,1,5.2,0c0.3-0.2,0.7-0.2,1,0l0,0
							c0.2,0.2,0.1,0.7-0.3,1c-2,1.3-4.6,1.3-6.6,0C345.6,313.8,345.5,313.4,345.7,313.1z"/>
						<path class="st17" d="M345.6,317.5L345.6,317.5c0.2-0.2,0.7-0.2,1,0c1.6,1,3.8,1,5.3,0c0.3-0.2,0.7-0.2,1,0l0,0
							c0.2,0.2,0.2,0.7-0.3,1c-2,1.3-4.8,1.3-6.8,0C345.4,318.2,345.3,317.7,345.6,317.5z"/>
						<path class="st17" d="M345.5,321.9L345.5,321.9c0.3-0.2,0.7-0.2,1,0c1.6,1,3.9,1,5.5,0c0.3-0.2,0.8-0.2,1,0l0,0
							c0.3,0.2,0.2,0.7-0.3,1c-2.1,1.3-4.9,1.3-7,0C345.3,322.6,345.2,322.1,345.5,321.9z"/>
						<path class="st17" d="M345.4,326.2L345.4,326.2c0.3-0.2,0.7-0.2,1,0c1.7,1,4,1,5.7,0c0.3-0.2,0.8-0.2,1,0l0,0
							c0.3,0.2,0.2,0.7-0.3,1c-2.1,1.3-5.1,1.3-7.2,0C345.2,326.9,345.1,326.5,345.4,326.2z"/>
					</g>
					<g>
						<path class="st17" d="M356.1,291.3L356.1,291.3c0.2-0.2,0.5-0.2,0.8,0c1.4,1,3.2,1,4.4,0c0.2-0.2,0.6-0.2,0.8,0l0,0
							c0.2,0.2,0.2,0.7-0.1,1c-1.5,1.3-3.8,1.3-5.6,0C356.1,292,356,291.6,356.1,291.3z"/>
						<path class="st17" d="M356.4,295.7L356.4,295.7c0.2-0.2,0.6-0.2,0.8,0c1.4,1,3.3,1,4.5,0c0.3-0.2,0.6-0.2,0.8,0l0,0
							c0.2,0.2,0.2,0.7-0.1,1c-1.6,1.3-4,1.3-5.8,0C356.3,296.4,356.2,295.9,356.4,295.7z"/>
						<path class="st17" d="M356.6,300.1L356.6,300.1c0.2-0.2,0.6-0.2,0.9,0c1.5,1,3.4,1,4.7,0c0.3-0.2,0.6-0.2,0.9,0l0,0
							c0.2,0.2,0.2,0.7-0.1,1c-1.7,1.3-4.1,1.3-6,0C356.6,300.8,356.4,300.3,356.6,300.1z"/>
						<path class="st17" d="M356.9,304.4L356.9,304.4c0.2-0.2,0.6-0.2,0.9,0c1.5,1,3.5,1,4.9,0c0.3-0.2,0.7-0.2,0.9,0l0,0
							c0.2,0.2,0.2,0.7-0.2,1c-1.7,1.3-4.2,1.3-6.2,0C356.8,305.1,356.7,304.7,356.9,304.4z"/>
						<path class="st17" d="M357.1,308.8L357.1,308.8c0.2-0.2,0.6-0.2,0.9,0c1.6,1,3.6,1,5,0c0.3-0.2,0.7-0.2,0.9,0l0,0
							c0.3,0.2,0.2,0.7-0.2,1c-1.8,1.3-4.4,1.3-6.4,0C357.1,309.5,356.9,309,357.1,308.8z"/>
						<path class="st17" d="M357.4,313.1L357.4,313.1c0.2-0.2,0.6-0.2,1,0c1.6,1,3.7,1,5.2,0c0.3-0.2,0.7-0.2,1,0l0,0
							c0.3,0.2,0.2,0.7-0.2,1c-1.9,1.3-4.5,1.3-6.6,0C357.3,313.8,357.2,313.4,357.4,313.1z"/>
						<path class="st17" d="M357.6,317.5L357.6,317.5c0.2-0.2,0.7-0.2,1,0c1.7,1,3.8,1,5.3,0c0.3-0.2,0.7-0.2,1,0l0,0
							c0.3,0.2,0.2,0.7-0.2,1c-1.9,1.3-4.7,1.3-6.8,0C357.5,318.2,357.4,317.7,357.6,317.5z"/>
						<path class="st17" d="M357.9,321.9L357.9,321.9c0.2-0.2,0.7-0.2,1,0c1.7,1,3.9,1,5.5,0c0.3-0.2,0.7-0.2,1,0l0,0
							c0.3,0.2,0.2,0.7-0.2,1c-2,1.3-4.8,1.3-7,0C357.8,322.6,357.7,322.1,357.9,321.9z"/>
						<path class="st17" d="M358.1,326.2L358.1,326.2c0.2-0.2,0.7-0.2,1,0c1.8,1,4.1,1,5.7,0c0.3-0.2,0.8-0.2,1,0l0,0
							c0.3,0.2,0.2,0.7-0.2,1c-2,1.3-4.9,1.3-7.2,0C358,326.9,357.9,326.5,358.1,326.2z"/>
					</g>
					<g>
						<path class="st17" d="M366,291.3L366,291.3c0.2-0.2,0.5-0.2,0.8,0c1.5,1,3.3,1,4.4,0c0.2-0.2,0.6-0.2,0.8,0l0,0
							c0.2,0.2,0.2,0.7-0.1,1c-1.4,1.3-3.7,1.3-5.6,0C366,292,365.9,291.6,366,291.3z"/>
						<path class="st17" d="M366.6,295.7L366.6,295.7c0.2-0.2,0.5-0.2,0.8,0c1.5,1,3.4,1,4.5,0c0.2-0.2,0.6-0.2,0.8,0l0,0
							c0.3,0.2,0.2,0.7-0.1,1c-1.5,1.3-3.9,1.3-5.8,0C366.6,296.4,366.5,295.9,366.6,295.7z"/>
						<path class="st17" d="M367.3,300.1L367.3,300.1c0.2-0.2,0.6-0.2,0.9,0c1.6,1,3.5,1,4.7,0c0.2-0.2,0.6-0.2,0.9,0l0,0
							c0.3,0.2,0.3,0.7-0.1,1c-1.6,1.3-4,1.3-6,0C367.2,300.8,367.1,300.3,367.3,300.1z"/>
						<path class="st17" d="M367.9,304.4L367.9,304.4c0.2-0.2,0.6-0.2,0.9,0c1.6,1,3.6,1,4.9,0c0.3-0.2,0.6-0.2,0.9,0l0,0
							c0.3,0.2,0.3,0.7-0.1,1c-1.6,1.3-4.1,1.3-6.2,0C367.8,305.1,367.7,304.7,367.9,304.4z"/>
						<path class="st17" d="M368.5,308.8L368.5,308.8c0.2-0.2,0.6-0.2,0.9,0c1.7,1,3.7,1,5,0c0.3-0.2,0.7-0.2,0.9,0l0,0
							c0.3,0.2,0.3,0.7-0.1,1c-1.7,1.3-4.3,1.3-6.4,0C368.4,309.5,368.3,309,368.5,308.8z"/>
						<path class="st17" d="M369.1,313.1L369.1,313.1c0.2-0.2,0.6-0.2,1,0c1.7,1,3.8,1,5.2,0c0.3-0.2,0.7-0.2,1,0l0,0
							c0.3,0.2,0.3,0.7-0.1,1c-1.7,1.3-4.4,1.3-6.6,0C369.1,313.8,368.9,313.4,369.1,313.1z"/>
						<path class="st17" d="M369.7,317.5L369.7,317.5c0.2-0.2,0.6-0.2,1,0c1.8,1,3.9,1,5.3,0c0.3-0.2,0.7-0.2,1,0l0,0
							c0.3,0.2,0.3,0.7-0.1,1c-1.8,1.3-4.6,1.3-6.8,0C369.7,318.2,369.5,317.7,369.7,317.5z"/>
						<path class="st17" d="M370.3,321.9L370.3,321.9c0.2-0.2,0.7-0.2,1,0c1.8,1,4,1,5.5,0c0.3-0.2,0.7-0.2,1,0l0,0
							c0.3,0.2,0.3,0.7-0.1,1c-1.9,1.3-4.7,1.3-7,0C370.3,322.6,370.1,322.1,370.3,321.9z"/>
						<path class="st17" d="M370.9,326.2L370.9,326.2c0.2-0.2,0.7-0.2,1,0c1.9,1,4.1,1,5.7,0c0.3-0.2,0.7-0.2,1,0l0,0
							c0.3,0.2,0.3,0.7-0.1,1c-1.9,1.3-4.8,1.3-7.2,0C370.9,326.9,370.7,326.5,370.9,326.2z"/>
					</g>
					<g>
						<path class="st17" d="M375.9,291.3L375.9,291.3c0.1-0.2,0.5-0.2,0.8,0c1.6,1,3.3,1,4.4,0c0.2-0.2,0.6-0.2,0.8,0l0,0
							c0.3,0.2,0.3,0.7,0,1c-1.3,1.3-3.6,1.3-5.6,0C376,292,375.8,291.6,375.9,291.3z"/>
						<path class="st17" d="M376.9,295.7L376.9,295.7c0.2-0.2,0.5-0.2,0.8,0c1.6,1,3.4,1,4.5,0c0.2-0.2,0.6-0.2,0.8,0l0,0
							c0.3,0.2,0.3,0.7,0,1c-1.4,1.3-3.7,1.3-5.8,0C376.9,296.4,376.7,295.9,376.9,295.7z"/>
						<path class="st17" d="M377.9,300.1L377.9,300.1c0.2-0.2,0.5-0.2,0.9,0c1.7,1,3.6,1,4.7,0c0.2-0.2,0.6-0.2,0.9,0l0,0
							c0.3,0.2,0.3,0.7,0,1c-1.5,1.3-3.9,1.3-6,0C377.9,300.8,377.7,300.3,377.9,300.1z"/>
						<path class="st17" d="M378.8,304.4L378.8,304.4c0.2-0.2,0.6-0.2,0.9,0c1.7,1,3.7,1,4.9,0c0.2-0.2,0.6-0.2,0.9,0l0,0
							c0.3,0.2,0.3,0.7,0,1c-1.5,1.3-4,1.3-6.2,0C378.9,305.1,378.7,304.7,378.8,304.4z"/>
						<path class="st17" d="M379.8,308.8L379.8,308.8c0.2-0.2,0.6-0.2,0.9,0c1.8,1,3.8,1,5,0c0.2-0.2,0.6-0.2,0.9,0l0,0
							c0.3,0.2,0.3,0.7,0,1c-1.6,1.3-4.2,1.3-6.4,0C379.8,309.5,379.6,309,379.8,308.8z"/>
						<path class="st17" d="M380.8,313.1L380.8,313.1c0.2-0.2,0.6-0.2,0.9,0c1.8,1,3.9,1,5.2,0c0.3-0.2,0.7-0.2,1,0l0,0
							c0.3,0.2,0.3,0.7,0,1c-1.6,1.3-4.3,1.3-6.6,0C380.8,313.8,380.6,313.4,380.8,313.1z"/>
						<path class="st17" d="M381.7,317.5L381.7,317.5c0.2-0.2,0.6-0.2,1,0c1.8,1,4,1,5.3,0c0.3-0.2,0.7-0.2,1,0l0,0
							c0.3,0.2,0.3,0.7,0,1c-1.7,1.3-4.5,1.3-6.8,0C381.8,318.2,381.6,317.7,381.7,317.5z"/>
						<path class="st17" d="M382.7,321.9L382.7,321.9c0.2-0.2,0.6-0.2,1,0c1.9,1,4.1,1,5.5,0c0.3-0.2,0.7-0.2,1,0l0,0
							c0.3,0.2,0.3,0.7,0,1c-1.8,1.3-4.6,1.3-7,0C382.7,322.6,382.5,322.1,382.7,321.9z"/>
						<path class="st17" d="M383.7,326.2L383.7,326.2c0.2-0.2,0.7-0.2,1,0c1.9,1,4.2,1,5.7,0c0.3-0.2,0.7-0.2,1,0l0,0
							c0.3,0.2,0.3,0.7,0,1c-1.8,1.3-4.7,1.3-7.2,0C383.7,326.9,383.5,326.5,383.7,326.2z"/>
					</g>
					<g>
						<path class="st17" d="M385.8,291.3L385.8,291.3c0.1-0.2,0.5-0.2,0.8,0c1.6,1,3.4,1,4.4,0c0.2-0.2,0.5-0.2,0.8,0l0,0
							c0.3,0.2,0.4,0.7,0.1,1c-1.2,1.3-3.5,1.3-5.6,0C385.9,292,385.7,291.6,385.8,291.3z"/>
						<path class="st17" d="M387.1,295.7L387.1,295.7c0.1-0.2,0.5-0.2,0.8,0c1.7,1,3.5,1,4.5,0c0.2-0.2,0.6-0.2,0.8,0l0,0
							c0.3,0.2,0.4,0.7,0.1,1c-1.3,1.3-3.6,1.3-5.8,0C387.2,296.4,387,295.9,387.1,295.7z"/>
						<path class="st17" d="M388.5,300.1L388.5,300.1c0.1-0.2,0.5-0.2,0.9,0c1.7,1,3.6,1,4.7,0c0.2-0.2,0.6-0.2,0.9,0l0,0
							c0.3,0.2,0.4,0.7,0.1,1c-1.3,1.3-3.8,1.3-6,0C388.6,300.8,388.3,300.3,388.5,300.1z"/>
						<path class="st17" d="M389.8,304.4L389.8,304.4c0.1-0.2,0.5-0.2,0.9,0c1.8,1,3.8,1,4.9,0c0.2-0.2,0.6-0.2,0.9,0l0,0
							c0.3,0.2,0.4,0.7,0.1,1c-1.4,1.3-3.9,1.3-6.2,0C389.9,305.1,389.7,304.7,389.8,304.4z"/>
						<path class="st17" d="M391.1,308.8L391.1,308.8c0.2-0.2,0.6-0.2,0.9,0c1.8,1,3.9,1,5,0c0.2-0.2,0.6-0.2,0.9,0l0,0
							c0.3,0.2,0.4,0.7,0.1,1c-1.5,1.3-4.1,1.3-6.4,0C391.2,309.5,391,309,391.1,308.8z"/>
						<path class="st17" d="M392.5,313.1L392.5,313.1c0.2-0.2,0.6-0.2,0.9,0c1.9,1,4,1,5.2,0c0.2-0.2,0.6-0.2,1,0l0,0
							c0.3,0.2,0.4,0.7,0.1,1c-1.5,1.3-4.2,1.3-6.6,0C392.5,313.8,392.3,313.4,392.5,313.1z"/>
						<path class="st17" d="M393.8,317.5L393.8,317.5c0.2-0.2,0.6-0.2,1,0c1.9,1,4.1,1,5.3,0c0.2-0.2,0.7-0.2,1,0l0,0
							c0.3,0.2,0.4,0.7,0.1,1c-1.6,1.3-4.3,1.3-6.8,0C393.9,318.2,393.6,317.7,393.8,317.5z"/>
						<path class="st17" d="M395.1,321.9L395.1,321.9c0.2-0.2,0.6-0.2,1,0c2,1,4.2,1,5.5,0c0.3-0.2,0.7-0.2,1,0l0,0
							c0.3,0.2,0.4,0.7,0.1,1c-1.7,1.3-4.5,1.3-7,0C395.2,322.6,394.9,322.1,395.1,321.9z"/>
						<path class="st17" d="M396.4,326.2L396.4,326.2c0.2-0.2,0.6-0.2,1,0c2,1,4.3,1,5.7,0c0.3-0.2,0.7-0.2,1.1,0l0,0
							c0.3,0.2,0.4,0.7,0,1c-1.7,1.3-4.6,1.3-7.2,0C396.5,326.9,396.3,326.5,396.4,326.2z"/>
					</g>
					<g>
						<g>
							<path class="st17" d="M395.7,291.3c-0.1,0.2,0.2,0.7,0.6,1c2.2,1.3,4.5,1.3,5.6,0c0.2-0.3,0.1-0.7-0.2-1l0,0
								c-0.3-0.2-0.6-0.2-0.8,0c-0.9,1-2.7,1-4.4,0C396.2,291.1,395.8,291.1,395.7,291.3L395.7,291.3z"/>
						</g>
						<g>
							<path class="st17" d="M397.4,295.7c-0.1,0.2,0.2,0.7,0.6,1c2.3,1.3,4.6,1.3,5.8,0c0.2-0.3,0.1-0.7-0.2-1l0,0
								c-0.3-0.2-0.7-0.2-0.8,0c-0.9,1-2.8,1-4.5,0C397.9,295.5,397.5,295.5,397.4,295.7L397.4,295.7z"/>
						</g>
						<g>
							<path class="st17" d="M399.1,300.1c-0.1,0.2,0.2,0.7,0.6,1c2.3,1.3,4.7,1.3,6,0c0.3-0.3,0.1-0.7-0.2-1l0,0
								c-0.3-0.2-0.7-0.2-0.9,0c-1,1-2.9,1-4.7,0C399.6,299.8,399.2,299.8,399.1,300.1L399.1,300.1z"/>
						</g>
						<g>
							<path class="st17" d="M400.8,304.4c-0.1,0.2,0.2,0.7,0.6,1c2.4,1.3,4.9,1.3,6.2,0c0.3-0.3,0.2-0.7-0.2-1l0,0
								c-0.3-0.2-0.7-0.2-0.9,0c-1,1-3,1-4.9,0C401.3,304.2,400.9,304.2,400.8,304.4L400.8,304.4z"/>
						</g>
						<g>
							<path class="st17" d="M402.5,308.8c-0.1,0.2,0.1,0.7,0.6,1c2.4,1.3,5,1.3,6.4,0c0.3-0.3,0.2-0.7-0.2-1l0,0
								c-0.3-0.2-0.7-0.2-0.9,0c-1.1,1-3.1,1-5,0C403,308.6,402.6,308.5,402.5,308.8L402.5,308.8z"/>
						</g>
						<g>
							<path class="st17" d="M404.1,313.1c-0.1,0.2,0.1,0.7,0.7,1c2.5,1.3,5.2,1.3,6.6,0c0.3-0.3,0.2-0.7-0.1-1l0,0
								c-0.3-0.2-0.7-0.2-1,0c-1.1,1-3.2,1-5.2,0C404.7,312.9,404.3,312.9,404.1,313.1L404.1,313.1z"/>
						</g>
						<g>
							<path class="st17" d="M405.8,317.5c-0.1,0.2,0.1,0.7,0.7,1c2.6,1.3,5.3,1.3,6.8,0c0.3-0.3,0.2-0.7-0.1-1l0,0
								c-0.3-0.2-0.8-0.2-1,0c-1.2,1-3.3,1-5.3,0C406.4,317.3,406,317.3,405.8,317.5L405.8,317.5z"/>
						</g>
						<g>
							<path class="st17" d="M407.5,321.9c-0.2,0.2,0.1,0.7,0.7,1c2.6,1.3,5.4,1.3,7,0c0.3-0.3,0.2-0.7-0.1-1l0,0
								c-0.4-0.2-0.8-0.2-1,0c-1.2,1-3.4,1-5.5,0C408.1,321.6,407.7,321.6,407.5,321.9L407.5,321.9z"/>
						</g>
						<g>
							<path class="st17" d="M409.2,326.2c-0.2,0.2,0.1,0.7,0.7,1c2.7,1.3,5.6,1.3,7.2,0c0.3-0.3,0.2-0.7-0.1-1l0,0
								c-0.4-0.2-0.8-0.2-1.1,0c-1.3,1-3.5,1-5.7,0C409.8,326,409.4,326,409.2,326.2L409.2,326.2z"/>
						</g>
					</g>
				</g>
			</g>
			<g>
				<g>
					<rect x="301.6" y="340.9" class="st20" width="8.7" height="18.2"/>
					<rect x="301.6" y="340.9" class="st25" width="8.7" height="1.7"/>
					<rect x="300.3" y="359.1" class="st25" width="11.4" height="2.1"/>
				</g>
				<g>
					<rect x="318.9" y="340.9" class="st20" width="8.7" height="18.2"/>
					<rect x="318.9" y="340.9" class="st25" width="8.7" height="1.7"/>
					<rect x="317.6" y="359.1" class="st25" width="11.4" height="2.1"/>
				</g>
				<g>
					<rect x="336.3" y="340.9" class="st20" width="8.7" height="18.2"/>
					<rect x="336.3" y="340.9" class="st25" width="8.7" height="1.7"/>
					<rect x="334.9" y="359.1" class="st25" width="11.4" height="2.1"/>
				</g>
				<g>
					<rect x="353.6" y="340.9" class="st20" width="8.7" height="18.2"/>
					<rect x="353.6" y="340.9" class="st25" width="8.7" height="1.7"/>
					<rect x="352.2" y="359.1" class="st25" width="11.4" height="2.1"/>
				</g>
				<g>
					<rect x="370.9" y="340.9" class="st20" width="8.7" height="18.2"/>
					<rect x="370.9" y="340.9" class="st25" width="8.7" height="1.7"/>
					<rect x="369.5" y="359.1" class="st25" width="11.4" height="2.1"/>
				</g>
				<g>
					<rect x="388.2" y="340.9" class="st20" width="8.7" height="18.2"/>
					<rect x="388.2" y="340.9" class="st25" width="8.7" height="1.7"/>
					<rect x="386.8" y="359.1" class="st25" width="11.4" height="2.1"/>
				</g>
			</g>
			<g>
				<path class="st16" d="M279.4,397.5c0,0.4-0.3,0.6-0.6,0.6l0,0c-0.4,0-0.6-0.3-0.6-0.6V365c0-0.4,0.3-0.6,0.6-0.6l0,0
					c0.4,0,0.6,0.3,0.6,0.6V397.5z"/>
				<path class="st16" d="M284.9,397.5V365c0-0.4,0.3-0.6,0.6-0.6l0,0c0.4,0,0.6,0.3,0.6,0.6v32.5c0,0.4-0.3,0.6-0.6,0.6l0,0
					C285.1,398.2,284.9,397.9,284.9,397.5z"/>
				<path class="st16" d="M291.6,397.5V365c0-0.4,0.3-0.6,0.6-0.6l0,0c0.4,0,0.6,0.3,0.6,0.6v32.5c0,0.4-0.3,0.6-0.6,0.6l0,0
					C291.9,398.2,291.6,397.9,291.6,397.5z"/>
				<path class="st16" d="M298.3,397.5V365c0-0.4,0.3-0.6,0.6-0.6l0,0c0.4,0,0.6,0.3,0.6,0.6v32.5c0,0.4-0.3,0.6-0.6,0.6l0,0
					C298.6,398.2,298.3,397.9,298.3,397.5z"/>
				<path class="st16" d="M305,397.5V365c0-0.4,0.3-0.6,0.6-0.6l0,0c0.4,0,0.6,0.3,0.6,0.6v32.5c0,0.4-0.3,0.6-0.6,0.6l0,0
					C305.3,398.2,305,397.9,305,397.5z"/>
				<path class="st16" d="M311.7,397.5V365c0-0.4,0.3-0.6,0.6-0.6l0,0c0.4,0,0.6,0.3,0.6,0.6v32.5c0,0.4-0.3,0.6-0.6,0.6l0,0
					C312,398.2,311.7,397.9,311.7,397.5z"/>
				<path class="st16" d="M318.4,397.5V365c0-0.4,0.3-0.6,0.6-0.6l0,0c0.4,0,0.6,0.3,0.6,0.6v32.5c0,0.4-0.3,0.6-0.6,0.6l0,0
					C318.7,398.2,318.4,397.9,318.4,397.5z"/>
				<path class="st16" d="M325.1,397.5V365c0-0.4,0.3-0.6,0.6-0.6l0,0c0.4,0,0.6,0.3,0.6,0.6v32.5c0,0.4-0.3,0.6-0.6,0.6l0,0
					C325.4,398.2,325.1,397.9,325.1,397.5z"/>
				<path class="st16" d="M331.8,397.5V365c0-0.4,0.3-0.6,0.6-0.6l0,0c0.4,0,0.6,0.3,0.6,0.6v32.5c0,0.4-0.3,0.6-0.6,0.6l0,0
					C332.1,398.2,331.8,397.9,331.8,397.5z"/>
				<path class="st16" d="M338.5,397.5V365c0-0.4,0.3-0.6,0.6-0.6l0,0c0.4,0,0.6,0.3,0.6,0.6v32.5c0,0.4-0.3,0.6-0.6,0.6l0,0
					C338.8,398.2,338.5,397.9,338.5,397.5z"/>
				<path class="st16" d="M345.3,397.5V365c0-0.4,0.3-0.6,0.6-0.6l0,0c0.4,0,0.6,0.3,0.6,0.6v32.5c0,0.4-0.3,0.6-0.6,0.6l0,0
					C345.5,398.2,345.3,397.9,345.3,397.5z"/>
				<path class="st16" d="M352,397.5V365c0-0.4,0.3-0.6,0.6-0.6l0,0c0.4,0,0.6,0.3,0.6,0.6v32.5c0,0.4-0.3,0.6-0.6,0.6l0,0
					C352.2,398.2,352,397.9,352,397.5z"/>
				<path class="st16" d="M358.7,397.5V365c0-0.4,0.3-0.6,0.6-0.6l0,0c0.4,0,0.6,0.3,0.6,0.6v32.5c0,0.4-0.3,0.6-0.6,0.6l0,0
					C359,398.2,358.7,397.9,358.7,397.5z"/>
				<path class="st16" d="M365.4,397.5V365c0-0.4,0.3-0.6,0.6-0.6l0,0c0.4,0,0.6,0.3,0.6,0.6v32.5c0,0.4-0.3,0.6-0.6,0.6l0,0
					C365.7,398.2,365.4,397.9,365.4,397.5z"/>
				<path class="st16" d="M372.1,397.5V365c0-0.4,0.3-0.6,0.6-0.6l0,0c0.4,0,0.6,0.3,0.6,0.6v32.5c0,0.4-0.3,0.6-0.6,0.6l0,0
					C372.4,398.2,372.1,397.9,372.1,397.5z"/>
				<path class="st16" d="M378.8,397.5V365c0-0.4,0.3-0.6,0.6-0.6l0,0c0.4,0,0.6,0.3,0.6,0.6v32.5c0,0.4-0.3,0.6-0.6,0.6l0,0
					C379.1,398.2,378.8,397.9,378.8,397.5z"/>
				<path class="st16" d="M385.5,397.5V365c0-0.4,0.3-0.6,0.6-0.6l0,0c0.4,0,0.6,0.3,0.6,0.6v32.5c0,0.4-0.3,0.6-0.6,0.6l0,0
					C385.8,398.2,385.5,397.9,385.5,397.5z"/>
				<path class="st16" d="M392.2,397.5V365c0-0.4,0.3-0.6,0.6-0.6l0,0c0.4,0,0.6,0.3,0.6,0.6v32.5c0,0.4-0.3,0.6-0.6,0.6l0,0
					C392.5,398.2,392.2,397.9,392.2,397.5z"/>
				<path class="st16" d="M398.9,397.5V365c0-0.4,0.3-0.6,0.6-0.6l0,0c0.4,0,0.6,0.3,0.6,0.6v32.5c0,0.4-0.3,0.6-0.6,0.6l0,0
					C399.2,398.2,398.9,397.9,398.9,397.5z"/>
				<path class="st16" d="M405.6,397.5V365c0-0.4,0.3-0.6,0.6-0.6l0,0c0.4,0,0.6,0.3,0.6,0.6v32.5c0,0.4-0.3,0.6-0.6,0.6l0,0
					C405.9,398.2,405.6,397.9,405.6,397.5z"/>
				<path class="st16" d="M412.4,397.5V365c0-0.4,0.3-0.6,0.6-0.6l0,0c0.4,0,0.6,0.3,0.6,0.6v32.5c0,0.4-0.3,0.6-0.6,0.6l0,0
					C412.6,398.2,412.4,397.9,412.4,397.5z"/>
				<path class="st16" d="M419.1,397.5c0,0.4,0.3,0.6,0.6,0.6l0,0c0.4,0,0.6-0.3,0.6-0.6V365c0-0.4-0.3-0.6-0.6-0.6l0,0
					c-0.4,0-0.6,0.3-0.6,0.6V397.5z"/>
			</g>
		</g>
		<polygon class="st23" points="421.2,399 277.3,399 272.8,420.4 425.7,420.4 		"/>
		
			<pattern  id="SVGID_00000091702543008927408690000010941435274932914073_" xlink:href="#Unnamed_Pattern_2" patternTransform="matrix(0.1408 0 0 0.1408 -6793.6782 -6749.2998)">
		</pattern>
		<polygon style="fill:url(#SVGID_00000091702543008927408690000010941435274932914073_);" points="421.2,399 277.3,399 
			272.8,420.4 425.7,420.4 		"/>
	</g>
	<polygon class="st27" points="439,431 146,431 159.3,420.4 425.7,420.4 	"/>
	<path class="st28" d="M429.6,413.9c0.2-0.3,0.2-0.7,0.2-1.1c0-1.5-1.3-2.7-2.8-2.7c-0.5,0-0.9,0.1-1.3,0.3
		c-0.4-1.1-1.4-1.9-2.7-1.9c-1,0-2,0.6-2.4,1.4c-0.4-0.2-0.8-0.2-1.2-0.2c-1.3,0-2.4,0.9-2.7,2.1c-1.2,0.3-2,1.4-2,2.6
		c0,1.1,0.7,2.1,1.7,2.5c-0.1,0.3-0.2,0.6-0.2,0.9c0,1.2,0.8,2.2,1.9,2.6c0.3,1.1,1.4,1.9,2.7,1.9c1,0,1.8-0.5,2.3-1.2
		c0.5,0.7,1.4,1.2,2.3,1.2c1.6,0,2.8-1.2,2.8-2.7c0-0.2,0-0.3,0-0.5c0.1,0,0.2,0,0.4,0c1.5,0,2.8-1.2,2.8-2.7
		C431.4,415.3,430.6,414.2,429.6,413.9z"/>
	<path class="st28" d="M275.7,413.8c0.2-0.4,0.3-0.8,0.3-1.3c0-1.8-1.5-3.3-3.4-3.3c-0.6,0-1.1,0.1-1.6,0.4
		c-0.4-1.3-1.7-2.2-3.2-2.2c-1.3,0-2.4,0.7-2.9,1.7c-0.4-0.2-0.9-0.3-1.4-0.3c-1.6,0-2.9,1.1-3.3,2.5c-1.4,0.4-2.4,1.7-2.4,3.1
		c0,1.4,0.8,2.5,2.1,3c-0.1,0.4-0.2,0.7-0.2,1.1c0,1.4,1,2.7,2.3,3.1c0.4,1.3,1.7,2.3,3.2,2.3c1.2,0,2.2-0.6,2.8-1.5
		c0.6,0.9,1.6,1.5,2.8,1.5c1.9,0,3.4-1.5,3.4-3.3c0-0.2,0-0.4,0-0.5c0.1,0,0.3,0,0.5,0c1.9,0,3.4-1.5,3.4-3.3
		C277.9,415.5,277,414.3,275.7,413.8z"/>
	<path class="st28" d="M199.7,413.8c0.2-0.4,0.3-0.8,0.3-1.3c0-1.8-1.5-3.3-3.4-3.3c-0.6,0-1.1,0.1-1.6,0.4
		c-0.4-1.3-1.7-2.2-3.2-2.2c-1.3,0-2.4,0.7-2.9,1.7c-0.4-0.2-0.9-0.3-1.4-0.3c-1.6,0-2.9,1.1-3.3,2.5c-1.4,0.4-2.4,1.7-2.4,3.1
		c0,1.4,0.8,2.5,2.1,3c-0.1,0.4-0.2,0.7-0.2,1.1c0,1.4,1,2.7,2.3,3.1c0.4,1.3,1.7,2.3,3.2,2.3c1.2,0,2.2-0.6,2.8-1.5
		c0.6,0.9,1.6,1.5,2.8,1.5c1.9,0,3.4-1.5,3.4-3.3c0-0.2,0-0.4,0-0.5c0.1,0,0.3,0,0.5,0c1.9,0,3.4-1.5,3.4-3.3
		C201.9,415.5,201,414.3,199.7,413.8z"/>
	<path class="st28" d="M287.8,413.3c0.2-0.4,0.3-0.8,0.3-1.3c0-1.8-1.5-3.3-3.4-3.3c-0.6,0-1.1,0.1-1.6,0.4
		c-0.4-1.3-1.7-2.2-3.2-2.2c-1.3,0-2.4,0.7-2.9,1.7c-0.4-0.2-0.9-0.3-1.4-0.3c-1.6,0-2.9,1.1-3.3,2.5c-1.4,0.4-2.4,1.7-2.4,3.1
		c0,1.4,0.8,2.5,2.1,3c-0.1,0.4-0.2,0.7-0.2,1.1c0,1.4,1,2.7,2.3,3.1c0.4,1.3,1.7,2.3,3.2,2.3c1.2,0,2.2-0.6,2.8-1.5
		c0.6,0.9,1.6,1.5,2.8,1.5c1.9,0,3.4-1.5,3.4-3.3c0-0.2,0-0.4,0-0.5c0.2,0,0.3,0,0.5,0c1.9,0,3.4-1.5,3.4-3.3
		C290,415,289.1,413.8,287.8,413.3z"/>
	<path class="st28" d="M355.3,412.8c0.2-0.4,0.3-0.8,0.3-1.3c0-1.8-1.5-3.3-3.4-3.3c-0.6,0-1.1,0.1-1.6,0.4
		c-0.4-1.3-1.7-2.2-3.2-2.2c-1.3,0-2.4,0.7-2.9,1.7c-0.4-0.2-0.9-0.3-1.4-0.3c-1.6,0-2.9,1.1-3.3,2.5c-1.4,0.4-2.4,1.7-2.4,3.1
		c0,1.4,0.8,2.5,2.1,3c-0.1,0.4-0.2,0.7-0.2,1.1c0,1.4,1,2.7,2.3,3.1c0.4,1.3,1.7,2.3,3.2,2.3c1.2,0,2.2-0.6,2.8-1.5
		c0.6,0.9,1.6,1.5,2.8,1.5c1.9,0,3.4-1.5,3.4-3.3c0-0.2,0-0.4,0-0.5c0.1,0,0.3,0,0.5,0c1.9,0,3.4-1.5,3.4-3.3
		C357.5,414.5,356.6,413.2,355.3,412.8z"/>
	<rect x="146" y="431" class="st23" width="293" height="11.3"/>
	
		<pattern  id="SVGID_00000100372354927965061640000001911005662952455576_" xlink:href="#Unnamed_Pattern_2" patternTransform="matrix(0.1759 0 0 0.1759 -6530.4531 -6524.3086)">
	</pattern>
	<rect x="146" y="431" style="fill:url(#SVGID_00000100372354927965061640000001911005662952455576_);" width="293" height="11.3"/>
	<path class="st30" d="M292.5,442.3H146c0,0,0.6,26.3,146.5,26.3S439,442.3,439,442.3H292.5z"/>
	<g class="st31">
		<path class="st10" d="M171.4,445.9c0,0.3-2.1,0.5-4.7,0.5c-2.6,0-4.7-0.2-4.7-0.5c0-0.3,2.1-0.5,4.7-0.5
			C169.3,445.4,171.4,445.6,171.4,445.9z"/>
		<path class="st10" d="M194.2,454.1c0,0.3-2.1,0.5-4.7,0.5c-2.6,0-4.7-0.2-4.7-0.5c0-0.3,2.1-0.5,4.7-0.5
			C192.1,453.6,194.2,453.9,194.2,454.1z"/>
		<path class="st10" d="M217.7,452c0,0.3-2.1,0.5-4.7,0.5c-2.6,0-4.7-0.2-4.7-0.5c0-0.3,2.1-0.5,4.7-0.5
			C215.6,451.5,217.7,451.7,217.7,452z"/>
		<path class="st10" d="M234.8,461.7c0,0.3-2.1,0.5-4.7,0.5c-2.6,0-4.7-0.2-4.7-0.5c0-0.3,2.1-0.5,4.7-0.5
			C232.7,461.2,234.8,461.5,234.8,461.7z"/>
		<path class="st10" d="M244.3,460.3c0,0.3-2.1,0.5-4.7,0.5c-2.6,0-4.7-0.2-4.7-0.5c0-0.3,2.1-0.5,4.7-0.5
			C242.2,459.8,244.3,460,244.3,460.3z"/>
		<path class="st10" d="M257.1,453.5c0,0.3-2.1,0.5-4.7,0.5c-2.6,0-4.7-0.2-4.7-0.5c0-0.3,2.1-0.5,4.7-0.5
			C255,453,257.1,453.2,257.1,453.5z"/>
		<path class="st10" d="M242.1,447c0,0.3-2.1,0.5-4.7,0.5c-2.6,0-4.7-0.2-4.7-0.5c0-0.3,2.1-0.5,4.7-0.5
			C240,446.5,242.1,446.7,242.1,447z"/>
		<path class="st10" d="M206.2,447c0,0.3-2.1,0.5-4.7,0.5c-2.6,0-4.7-0.2-4.7-0.5c0-0.3,2.1-0.5,4.7-0.5
			C204.1,446.5,206.2,446.7,206.2,447z"/>
		<path class="st10" d="M273.4,465.1c0,0.3-2.1,0.5-4.7,0.5c-2.6,0-4.7-0.2-4.7-0.5c0-0.3,2.1-0.5,4.7-0.5
			C271.3,464.6,273.4,464.8,273.4,465.1z"/>
		<path class="st10" d="M309.4,455.6c0,0.3-2.1,0.5-4.7,0.5c-2.6,0-4.7-0.2-4.7-0.5c0-0.3,2.1-0.5,4.7-0.5
			C307.3,455.2,309.4,455.4,309.4,455.6z"/>
		<path class="st10" d="M290,450.6c0,0.3-2.1,0.5-4.7,0.5c-2.6,0-4.7-0.2-4.7-0.5c0-0.3,2.1-0.5,4.7-0.5
			C287.9,450.1,290,450.3,290,450.6z"/>
		<path class="st10" d="M334.5,463c0,0.3-2.1,0.5-4.7,0.5c-2.6,0-4.7-0.2-4.7-0.5c0-0.3,2.1-0.5,4.7-0.5
			C332.3,462.5,334.5,462.7,334.5,463z"/>
		<path class="st10" d="M359.5,455.1c0,0.3-2.1,0.5-4.7,0.5c-2.6,0-4.7-0.2-4.7-0.5c0-0.3,2.1-0.5,4.7-0.5
			C357.4,454.6,359.5,454.8,359.5,455.1z"/>
		<path class="st10" d="M337.3,452c0,0.3-2.1,0.5-4.7,0.5c-2.6,0-4.7-0.2-4.7-0.5c0-0.3,2.1-0.5,4.7-0.5
			C335.2,451.5,337.3,451.7,337.3,452z"/>
		<path class="st10" d="M412.7,450c0,0.3-2.1,0.5-4.7,0.5c-2.6,0-4.7-0.2-4.7-0.5c0-0.3,2.1-0.5,4.7-0.5
			C410.6,449.5,412.7,449.7,412.7,450z"/>
		<path class="st10" d="M417.8,455.1c0,0.3-2.1,0.5-4.7,0.5c-2.6,0-4.7-0.2-4.7-0.5c0-0.3,2.1-0.5,4.7-0.5
			C415.7,454.6,417.8,454.8,417.8,455.1z"/>
		<path class="st10" d="M386.2,459.6c0,0.3-2.1,0.5-4.7,0.5c-2.6,0-4.7-0.2-4.7-0.5c0-0.3,2.1-0.5,4.7-0.5
			C384.1,459.1,386.2,459.3,386.2,459.6z"/>
		<path class="st10" d="M381.2,450.3c0,0.3-2.1,0.5-4.7,0.5s-4.7-0.2-4.7-0.5c0-0.3,2.1-0.5,4.7-0.5S381.2,450,381.2,450.3z"/>
	</g>
	<path class="st28" d="M231.3,436.4c0.2-0.4,0.3-0.8,0.3-1.3c0-1.7-1.4-3.1-3.2-3.1c-0.5,0-1.1,0.1-1.5,0.4c-0.4-1.2-1.6-2.1-3-2.1
		c-1.2,0-2.2,0.6-2.7,1.6c-0.4-0.2-0.8-0.3-1.3-0.3c-0.8,0-1.5,0.3-2,0.7c-0.4-0.2-0.8-0.3-1.3-0.3c-0.5,0-1.1,0.1-1.5,0.4
		c-0.4-1.2-1.6-2.1-3-2.1c-1.2,0-2.2,0.6-2.8,1.6c-0.4-0.2-0.8-0.3-1.3-0.3c-1.3,0-2.4,0.8-2.9,1.9c-0.3,0.1-0.6,0.2-0.8,0.3
		c-0.4-1.2-1.6-2.1-3-2.1c-1.2,0-2.2,0.6-2.7,1.6c-0.4-0.2-0.8-0.3-1.3-0.3c-0.9,0-1.7,0.4-2.3,1c-0.5-0.3-1.1-0.6-1.8-0.6
		c-0.5,0-1.1,0.1-1.5,0.4c-0.4-1.2-1.6-2.1-3-2.1c-0.5,0-1,0.1-1.4,0.3c-0.4-1.3-1.6-2.2-3-2.2c-0.5,0-1.1,0.1-1.5,0.4
		c-0.4-1.2-1.6-2.1-3-2.1c-1.2,0-2.2,0.6-2.8,1.6c-0.4-0.2-0.8-0.3-1.3-0.3c-1.5,0-2.7,1-3.1,2.4c-0.7,0.2-1.3,0.6-1.7,1.2
		c-0.2,0.1-0.3,0.1-0.4,0.2c-0.4-1.2-1.6-2.1-3-2.1c-1.2,0-2.2,0.6-2.7,1.6c-0.4-0.2-0.8-0.3-1.3-0.3c-0.4,0-0.8,0.1-1.2,0.2
		c-0.6-0.8-1.5-1.2-2.5-1.2c-0.5,0-1.1,0.1-1.5,0.4c-0.4-1.2-1.6-2.1-3-2.1c-1.2,0-2.2,0.6-2.7,1.6c-0.4-0.2-0.8-0.3-1.3-0.3
		c-1.5,0-2.7,1-3.1,2.4c-1.3,0.4-2.3,1.6-2.3,3c0,1.3,0.8,2.4,1.9,2.9c-0.1,0.3-0.2,0.7-0.2,1.1c0,1.4,0.9,2.6,2.1,3
		c0.4,1.3,1.6,2.2,3,2.2c1.1,0,2.1-0.6,2.6-1.4c0.6,0.8,1.5,1.4,2.6,1.4c1.2,0,2.2-0.6,2.7-1.5c0.3,0.4,0.8,0.6,1.2,0.8
		c0.4,1.3,1.6,2.2,3,2.2c1.1,0,2.1-0.6,2.6-1.4c0.6,0.8,1.5,1.4,2.6,1.4c1.7,0,3.1-1.4,3.2-3.1c0.2,0.2,0.5,0.3,0.8,0.4
		c0.4,1.3,1.6,2.2,3,2.2c1.1,0,2.1-0.6,2.6-1.4c0.6,0.8,1.5,1.4,2.6,1.4c0.4,0,0.8-0.1,1.1-0.2c0.6,0.8,1.5,1.3,2.6,1.3
		c1.1,0,2.1-0.6,2.6-1.4c0.6,0.8,1.5,1.4,2.6,1.4c1.7,0,3.1-1.3,3.2-3c0.3,0.3,0.8,0.6,1.2,0.8c0.4,1.3,1.6,2.2,3,2.2
		c1.1,0,2.1-0.6,2.6-1.4c0.6,0.8,1.5,1.4,2.6,1.4c1.5,0,2.8-1.1,3.1-2.5c0.6,0.7,1.4,1.1,2.4,1.1c1.1,0,2.1-0.6,2.6-1.4
		c0.6,0.8,1.5,1.4,2.6,1.4c1.5,0,2.7-1,3.1-2.4c0.1,0.1,0.3,0.1,0.5,0.2c0.4,1.3,1.6,2.2,3,2.2c1.1,0,2.1-0.6,2.6-1.4
		c0.6,0.8,1.5,1.4,2.6,1.4c1.7,0,3.2-1.4,3.2-3.1c0-0.2,0-0.4,0-0.5c0.1,0,0.3,0,0.4,0c1.7,0,3.2-1.4,3.2-3.1
		C233.3,438,232.5,436.8,231.3,436.4z"/>
	<path class="st28" d="M302.8,436.4c0.2-0.4,0.3-0.8,0.3-1.3c0-1.7-1.4-3.1-3.2-3.1c-0.5,0-1.1,0.1-1.5,0.4c-0.4-1.2-1.6-2.1-3-2.1
		c-0.3,0-0.7,0.1-1,0.1c-0.3-1.4-1.6-2.4-3.1-2.4c-0.5,0-1.1,0.1-1.5,0.4c-0.4-1.2-1.6-2.1-3-2.1c-1.2,0-2.2,0.6-2.7,1.6
		c-0.4-0.2-0.8-0.3-1.3-0.3c-1.5,0-2.7,1-3.1,2.4c-1,0.3-1.8,1.1-2.1,2.1c-0.3,0.2-0.5,0.4-0.7,0.6c-0.5-0.4-1.1-0.6-1.8-0.6
		c-0.5,0-1.1,0.1-1.5,0.4c-0.4-1.2-1.6-2.1-3-2.1c-1.2,0-2.2,0.6-2.7,1.6c-0.4-0.2-0.8-0.3-1.3-0.3c-1.3,0-2.4,0.8-2.9,1.9
		c-0.6-0.8-1.5-1.4-2.6-1.4c-0.5,0-1.1,0.1-1.5,0.4c-0.4-1.2-1.6-2.1-3-2.1c-1.2,0-2.2,0.6-2.7,1.6c-0.4-0.2-0.8-0.3-1.3-0.3
		c-1.5,0-2.7,1-3.1,2.4c-1.3,0.4-2.3,1.6-2.3,3c0,1.3,0.8,2.4,1.9,2.9c-0.1,0.3-0.2,0.7-0.2,1.1c0,1.4,0.9,2.6,2.1,3
		c0.4,1.3,1.6,2.2,3,2.2c1.1,0,2.1-0.6,2.6-1.4c0.6,0.8,1.5,1.4,2.6,1.4c1.7,0,3.2-1.4,3.2-3.1c0-0.2,0-0.4,0-0.5c0.1,0,0.3,0,0.4,0
		c0.2,0,0.3,0,0.5,0c0.4,0.7,1,1.2,1.7,1.4c0.4,1.3,1.6,2.2,3,2.2c1.1,0,2.1-0.6,2.6-1.4c0.6,0.8,1.5,1.4,2.6,1.4
		c1.7,0,3.1-1.3,3.2-3c0.3,0.3,0.8,0.6,1.2,0.8c0.4,1.3,1.6,2.2,3,2.2c1.1,0,2.1-0.6,2.6-1.4c0.6,0.8,1.5,1.4,2.6,1.4
		c1.5,0,2.8-1.1,3.1-2.6c0.2,0.1,0.5,0.3,0.7,0.3c0.4,1.3,1.6,2.2,3,2.2c1.1,0,2.1-0.6,2.6-1.4c0.6,0.8,1.5,1.4,2.6,1.4
		c1.7,0,3.2-1.4,3.2-3.1c0-0.2,0-0.4,0-0.5c0.1,0,0.3,0,0.4,0c1.7,0,3.2-1.4,3.2-3.1C304.9,438,304,436.8,302.8,436.4z"/>
	<path class="st28" d="M403.3,436.6c0.2-0.4,0.3-0.8,0.3-1.3c0-1.7-1.4-3.1-3.2-3.1c-0.5,0-1.1,0.1-1.5,0.4c-0.4-1.2-1.6-2.1-3-2.1
		c-1.2,0-2.2,0.6-2.7,1.6c-0.4-0.2-0.8-0.3-1.3-0.3c-0.6,0-1.2,0.2-1.6,0.5c-0.4-0.2-0.9-0.3-1.4-0.3c-0.5,0-0.9,0.1-1.3,0.3
		c-0.1-0.2-0.3-0.3-0.4-0.5c-0.2-0.4-0.6-0.8-0.9-1c0.1-0.3,0.1-0.6,0.1-0.9c0-1.7-1.4-3.1-3.2-3.1c-0.5,0-1.1,0.1-1.5,0.4
		c-0.4-1.2-1.6-2.1-3-2.1c-1.2,0-2.2,0.6-2.7,1.6c-0.4-0.2-0.8-0.3-1.3-0.3c-1.5,0-2.7,1-3.1,2.4c-1.2,0.4-2.1,1.4-2.2,2.7
		c-0.7,0.1-1.4,0.4-1.9,0.9c-0.5-0.3-1-0.4-1.6-0.4c-0.5,0-1.1,0.1-1.5,0.4c-0.4-1.2-1.6-2.1-3-2.1c-1.2,0-2.2,0.6-2.7,1.6
		c-0.4-0.2-0.8-0.3-1.3-0.3c-0.9,0-1.6,0.3-2.2,0.9c-0.2-0.1-0.3-0.2-0.5-0.2c0.1-0.3,0.2-0.7,0.2-1.1c0-1.7-1.4-3.1-3.2-3.1
		c-0.5,0-1.1,0.1-1.5,0.4c-0.4-1.2-1.6-2.1-3-2.1c-1.2,0-2.2,0.6-2.7,1.6c-0.4-0.2-0.8-0.3-1.3-0.3c-1.5,0-2.7,1-3.1,2.4
		c-0.3,0.1-0.6,0.2-0.9,0.4c-0.3-0.1-0.5-0.1-0.8-0.1c-1.2,0-2.2,0.6-2.8,1.6c-0.4-0.2-0.8-0.3-1.3-0.3c-1,0-2,0.5-2.5,1.3
		c-0.6-0.5-1.3-0.8-2.1-0.8c-0.5,0-1.1,0.1-1.5,0.4c-0.4-1.2-1.6-2.1-3-2.1c-1.2,0-2.2,0.6-2.7,1.6c-0.4-0.2-0.8-0.3-1.3-0.3
		c-1.5,0-2.7,1-3.1,2.4c-1.3,0.4-2.3,1.6-2.3,3c0,1.3,0.8,2.4,1.9,2.9c-0.1,0.3-0.2,0.7-0.2,1.1c0,1.4,0.9,2.6,2.1,3
		c0.4,1.3,1.6,2.2,3,2.2c1.1,0,2.1-0.6,2.6-1.4c0.6,0.8,1.5,1.4,2.6,1.4c1.7,0,3.2-1.4,3.2-3.1c0-0.2,0-0.4,0-0.5c0,0,0.1,0,0.1,0
		c0.4,0.7,1,1.2,1.7,1.4c0.4,1.3,1.6,2.2,3,2.2c1.1,0,2.1-0.6,2.6-1.4c0.6,0.8,1.5,1.4,2.6,1.4c1.2,0,2.2-0.6,2.7-1.5
		c0.6,0.9,1.6,1.5,2.7,1.5c1.1,0,2.1-0.6,2.6-1.4c0.6,0.8,1.5,1.4,2.6,1.4c1.6,0,2.9-1.2,3.1-2.8c0.3,0.2,0.6,0.4,1,0.5
		c0.4,1.3,1.6,2.2,3,2.2c1.1,0,2.1-0.6,2.6-1.4c0.6,0.8,1.5,1.4,2.6,1.4c1.6,0,2.9-1.2,3.1-2.8c0.3,0.2,0.6,0.4,1,0.5
		c0.4,1.3,1.6,2.2,3,2.2c1.1,0,2.1-0.6,2.6-1.4c0.6,0.8,1.5,1.4,2.6,1.4c1.1,0,2.1-0.6,2.7-1.5c0.5,1,1.6,1.6,2.8,1.6
		c1.1,0,2.1-0.6,2.6-1.4c0.6,0.8,1.5,1.4,2.6,1.4c1.4,0,2.5-0.8,3-2c0.1,0,0.2,0.1,0.3,0.1c0.4,1.3,1.6,2.2,3,2.2
		c1.1,0,2.1-0.6,2.6-1.4c0.6,0.8,1.5,1.4,2.6,1.4c1.7,0,3.2-1.4,3.2-3.1c0-0.2,0-0.4,0-0.5c0.1,0,0.3,0,0.4,0c1.7,0,3.2-1.4,3.2-3.1
		C405.4,438.2,404.5,437.1,403.3,436.6z"/>
	<g>
		<path class="st32" d="M363.5,443.9l-1-3.7c-0.2-0.7-0.7-1.6-1.2-1.9c-0.5-0.4-1.4-0.6-2.1-0.5l-5.3,0.7c-0.6,0.1-1.6,0.4-2,0.7
			c-0.3,0.2-0.7,0.7-0.9,1.1l-8.7-1.3l-0.2,1.3l8.4,1.3l-0.6,2.4c-0.2,0.7-0.2,1.7,0,2.2c0.2,0.5,0.9,0.9,1.6,0.9c0,0,5,2,5,3.3
			c0,1.2,0,5.7,0,5.7h3c0,0,0-4.4,0-5.9c0-1.5,2.3-3,2.3-3c0.6,0,1.4-0.4,1.6-0.9C363.7,445.5,363.7,444.5,363.5,443.9z"/>
		<g>
			<g>
				<g>
					<g>
						<rect x="271.6" y="428.3" class="st33" width="2.1" height="16.5"/>
						<rect x="286.4" y="428.3" class="st33" width="2.1" height="16.5"/>
						<rect x="301.1" y="428.3" class="st33" width="2.1" height="16.5"/>
						<rect x="315.9" y="428.3" class="st33" width="2.1" height="16.5"/>
						<rect x="330.7" y="428.3" class="st33" width="2.1" height="16.5"/>
					</g>
					<polygon class="st34" points="332.2,416.5 272.1,416.5 266.6,428.3 337.7,428.3 					"/>
					<rect x="266.6" y="428.3" class="st19" width="71.1" height="1.1"/>
					<g>
						<path class="st19" d="M268.4,427.7c-0.1,0.2-0.4,0.4-0.6,0.4l0,0c-0.2,0-0.4-0.2-0.3-0.4c1.6-3.5,3.2-7,4.8-10.5
							c0.1-0.2,0.3-0.4,0.5-0.4l0,0c0.2,0,0.3,0.2,0.2,0.4C271.5,420.7,270,424.2,268.4,427.7z"/>
						<path class="st19" d="M271.8,427.7c1.4-3.5,2.8-7,4.2-10.5c0.1-0.2,0.3-0.4,0.5-0.4l0,0c0.2,0,0.3,0.2,0.2,0.4
							c-1.4,3.5-2.7,7-4.1,10.5c-0.1,0.2-0.3,0.4-0.6,0.4l0,0C271.8,428,271.7,427.9,271.8,427.7z"/>
						<path class="st19" d="M276.1,427.7c1.2-3.5,2.4-7,3.6-10.5c0.1-0.2,0.3-0.4,0.5-0.4l0,0c0.2,0,0.3,0.2,0.2,0.4
							c-1.2,3.5-2.3,7-3.5,10.5c-0.1,0.2-0.3,0.4-0.6,0.4l0,0C276.1,428,276,427.9,276.1,427.7z"/>
						<path class="st19" d="M280.4,427.7c1-3.5,2-7,3-10.5c0.1-0.2,0.3-0.4,0.5-0.4l0,0c0.2,0,0.3,0.2,0.3,0.4
							c-1,3.5-1.9,7-2.9,10.5c-0.1,0.2-0.3,0.4-0.5,0.4l0,0C280.4,428,280.3,427.9,280.4,427.7z"/>
						<path class="st19" d="M284.6,427.7c0.8-3.5,1.6-7,2.4-10.5c0-0.2,0.3-0.4,0.5-0.4l0,0c0.2,0,0.3,0.2,0.3,0.4
							c-0.8,3.5-1.5,7-2.3,10.5c0,0.2-0.3,0.4-0.5,0.4l0,0C284.7,428,284.6,427.9,284.6,427.7z"/>
						<path class="st19" d="M288.9,427.7c0.6-3.5,1.2-7,1.8-10.5c0-0.2,0.2-0.4,0.4-0.4l0,0c0.2,0,0.3,0.2,0.3,0.4
							c-0.6,3.5-1.1,7-1.7,10.5c0,0.2-0.3,0.4-0.5,0.4l0,0C289,428,288.9,427.9,288.9,427.7z"/>
						<path class="st19" d="M293.2,427.7c0.4-3.5,0.8-7,1.2-10.5c0-0.2,0.2-0.4,0.4-0.4l0,0c0.2,0,0.4,0.2,0.3,0.4
							c-0.4,3.5-0.8,7-1.1,10.5c0,0.2-0.2,0.4-0.5,0.4l0,0C293.3,428,293.2,427.9,293.2,427.7z"/>
						<path class="st19" d="M297.5,427.7c0.2-3.5,0.4-7,0.7-10.5c0-0.2,0.2-0.4,0.4-0.4l0,0c0.2,0,0.4,0.2,0.4,0.4
							c-0.2,3.5-0.4,7-0.5,10.5c0,0.2-0.2,0.4-0.5,0.4l0,0C297.6,428,297.5,427.9,297.5,427.7z"/>
						<path class="st19" d="M301.7,427.7c0-3.5,0-7,0.1-10.5c0-0.2,0.2-0.4,0.4-0.4l0,0c0.2,0,0.4,0.2,0.4,0.4c0,3.5,0,7,0.1,10.5
							c0,0.2-0.2,0.4-0.4,0.4l0,0C301.9,428,301.7,427.9,301.7,427.7z"/>
						<path class="st19" d="M306,427.7c-0.2-3.5-0.4-7-0.5-10.5c0-0.2,0.1-0.4,0.4-0.4l0,0c0.2,0,0.4,0.2,0.4,0.4
							c0.2,3.5,0.4,7,0.7,10.5c0,0.2-0.2,0.4-0.4,0.4l0,0C306.2,428,306,427.9,306,427.7z"/>
						<path class="st19" d="M310.3,427.7c-0.4-3.5-0.8-7-1.1-10.5c0-0.2,0.1-0.4,0.3-0.4l0,0c0.2,0,0.4,0.2,0.4,0.4
							c0.4,3.5,0.8,7,1.2,10.5c0,0.2-0.2,0.4-0.4,0.4l0,0C310.5,428,310.3,427.9,310.3,427.7z"/>
						<path class="st19" d="M314.6,427.7c-0.6-3.5-1.1-7-1.7-10.5c0-0.2,0.1-0.4,0.3-0.4l0,0c0.2,0,0.4,0.2,0.4,0.4
							c0.6,3.5,1.2,7,1.8,10.5c0,0.2-0.1,0.4-0.4,0.4l0,0C314.8,428,314.6,427.9,314.6,427.7z"/>
						<path class="st19" d="M318.9,427.7c-0.8-3.5-1.5-7-2.3-10.5c0-0.2,0.1-0.4,0.3-0.4l0,0c0.2,0,0.4,0.2,0.5,0.4
							c0.8,3.5,1.6,7,2.4,10.5c0,0.2-0.1,0.4-0.4,0.4l0,0C319.1,428,318.9,427.9,318.9,427.7z"/>
						<path class="st19" d="M323.1,427.7c-1-3.5-1.9-7-2.9-10.5c-0.1-0.2,0.1-0.4,0.3-0.4l0,0c0.2,0,0.4,0.2,0.5,0.4
							c1,3.5,2,7,3,10.5c0.1,0.2-0.1,0.4-0.3,0.4l0,0C323.4,428,323.2,427.9,323.1,427.7z"/>
						<path class="st19" d="M327.4,427.7c-1.2-3.5-2.3-7-3.5-10.5c-0.1-0.2,0-0.4,0.2-0.4l0,0c0.2,0,0.4,0.2,0.5,0.4
							c1.2,3.5,2.4,7,3.6,10.5c0.1,0.2-0.1,0.4-0.3,0.4l0,0C327.7,428,327.5,427.9,327.4,427.7z"/>
						<path class="st19" d="M331.7,427.7c-1.4-3.5-2.7-7-4.1-10.5c-0.1-0.2,0-0.4,0.2-0.4l0,0c0.2,0,0.4,0.2,0.5,0.4
							c1.4,3.5,2.8,7,4.2,10.5c0.1,0.2,0,0.4-0.3,0.4l0,0C332,428,331.8,427.9,331.7,427.7z"/>
						<path class="st19" d="M336,427.7c0.1,0.2,0.4,0.4,0.6,0.4l0,0c0.2,0,0.4-0.2,0.3-0.4c-1.6-3.5-3.2-7-4.8-10.5
							c-0.1-0.2-0.3-0.4-0.5-0.4l0,0c-0.2,0-0.3,0.2-0.2,0.4C332.9,420.7,334.4,424.2,336,427.7z"/>
					</g>
				</g>
				<g>
					<rect x="273.6" y="429.3" class="st35" width="12.7" height="15.4"/>
					<rect x="273.6" y="429.3" class="st36" width="0.8" height="15.4"/>
					<g>
						<rect x="273.6" y="429.3" class="st36" width="12.7" height="0.8"/>
						<rect x="273.6" y="434.3" class="st36" width="12.7" height="0.8"/>
						<rect x="273.6" y="439.3" class="st36" width="12.7" height="0.8"/>
						<rect x="273.6" y="444.3" class="st36" width="12.7" height="0.8"/>
					</g>
					<rect x="277.6" y="429.3" class="st36" width="0.8" height="15.4"/>
					<rect x="281.6" y="429.3" class="st36" width="0.8" height="15.4"/>
					<rect x="285.6" y="429.3" class="st36" width="0.8" height="15.4"/>
				</g>
				<g>
					<rect x="288.4" y="429.3" class="st35" width="12.7" height="15.4"/>
					<rect x="288.4" y="429.3" class="st36" width="0.8" height="15.4"/>
					<g>
						<rect x="288.4" y="429.3" class="st36" width="12.7" height="0.8"/>
						<rect x="288.4" y="434.3" class="st36" width="12.7" height="0.8"/>
						<rect x="288.4" y="439.3" class="st36" width="12.7" height="0.8"/>
						<rect x="288.4" y="444.3" class="st36" width="12.7" height="0.8"/>
					</g>
					<rect x="292.4" y="429.3" class="st36" width="0.8" height="15.4"/>
					<rect x="296.4" y="429.3" class="st36" width="0.8" height="15.4"/>
					<rect x="300.4" y="429.3" class="st36" width="0.8" height="15.4"/>
				</g>
				<g>
					<rect x="303.2" y="429.3" class="st35" width="12.7" height="15.4"/>
					<rect x="303.2" y="429.3" class="st36" width="0.8" height="15.4"/>
					<g>
						<rect x="303.2" y="429.3" class="st36" width="12.7" height="0.8"/>
						<rect x="303.2" y="434.3" class="st36" width="12.7" height="0.8"/>
						<rect x="303.2" y="439.3" class="st36" width="12.7" height="0.8"/>
						<rect x="303.2" y="444.3" class="st36" width="12.7" height="0.8"/>
					</g>
					<rect x="307.2" y="429.3" class="st36" width="0.8" height="15.4"/>
					<rect x="311.2" y="429.3" class="st36" width="0.8" height="15.4"/>
					<rect x="315.1" y="429.3" class="st36" width="0.8" height="15.4"/>
				</g>
				<g>
					<rect x="318" y="429.3" class="st35" width="12.7" height="15.4"/>
					<rect x="318" y="429.3" class="st36" width="0.8" height="15.4"/>
					<g>
						<rect x="318" y="429.3" class="st36" width="12.7" height="0.8"/>
						<rect x="318" y="434.3" class="st36" width="12.7" height="0.8"/>
						<rect x="318" y="439.3" class="st36" width="12.7" height="0.8"/>
						<rect x="318" y="444.3" class="st36" width="12.7" height="0.8"/>
					</g>
					<rect x="322" y="429.3" class="st36" width="0.8" height="15.4"/>
					<rect x="326" y="429.3" class="st36" width="0.8" height="15.4"/>
					<rect x="329.9" y="429.3" class="st36" width="0.8" height="15.4"/>
				</g>
			</g>
			<g>
				<path class="st37" d="M245.3,440.3c0,0,5.3,13.3,10.6,15.6h97.3l3.2-13.3C356.4,442.6,274.9,444.5,245.3,440.3z"/>
				<g>
					<path class="st38" d="M357.1,440.8c-37.7,2.5-75.6,2-113.3-1.5c0.3,0.8,0.6,1.6,0.9,2.4c37.8,3.4,75.7,3.9,113.6,1.3
						C357.8,442.3,357.5,441.5,357.1,440.8z"/>
				</g>
			</g>
		</g>
	</g>
</g>
<g>
</g>
<g>
</g>
<g>
</g>
<g>
</g>
<g>
</g>
<g>
</g>
<g>
</g>
<g>
</g>
<g>
</g>
<g>
</g>
<g>
</g>
<g>
</g>
<g>
</g>
<g>
</g>
<g>
</g>
</svg>
