<?xml version="1.0" encoding="utf-8"?>
<!-- Generator: Adobe Illustrator 28.3.0, SVG Export Plug-In . SVG Version: 6.00 Build 0)  -->
<svg version="1.1" id="レイヤー_1" xmlns="http://www.w3.org/2000/svg" xmlns:xlink="http://www.w3.org/1999/xlink" x="0px"
	 y="0px" viewBox="0 0 512 512" style="enable-background:new 0 0 512 512;" xml:space="preserve">
<style type="text/css">
	.st0{fill:#FFFFFF;stroke:#000000;stroke-miterlimit:10;}
	
		.st1{clip-path:url(#SVGID_00000183235992288577103060000014839218865340126884_);fill:#FFFFFF;stroke:#000000;stroke-miterlimit:10;}
	.st2{fill:#161616;}
</style>
<g>
	<g>
		<path id="SVGID_1_" class="st0" d="M465.5,512h-419C20.9,512,0,491.1,0,465.5v-419C0,20.9,20.9,0,46.5,0h418.9
			C491.1,0,512,20.9,512,46.5v418.9C512,491.1,491.1,512,465.5,512z"/>
	</g>
	<g>
		<defs>
			<path id="SVGID_00000126307641832431429560000003737737991190451072_" d="M465.5,512h-419C20.9,512,0,491.1,0,465.5v-419
				C0,20.9,20.9,0,46.5,0h418.9C491.1,0,512,20.9,512,46.5v418.9C512,491.1,491.1,512,465.5,512z"/>
		</defs>
		<use xlink:href="#SVGID_00000126307641832431429560000003737737991190451072_"  style="overflow:visible;fill:#FFFFFF;"/>
		<clipPath id="SVGID_00000156579993479323011170000008153380476636873109_">
			<use xlink:href="#SVGID_00000126307641832431429560000003737737991190451072_"  style="overflow:visible;"/>
		</clipPath>
		
			<rect x="-4.7" y="0" style="clip-path:url(#SVGID_00000156579993479323011170000008153380476636873109_);fill:#FFFFFF;stroke:#000000;stroke-miterlimit:10;" width="516.7" height="516.7"/>
		
			<use xlink:href="#SVGID_00000126307641832431429560000003737737991190451072_"  style="overflow:visible;fill:none;stroke:#000000;stroke-miterlimit:10;"/>
	</g>
</g>
<path class="st2" d="M348.2,158.2c-9.3-16-22-28.9-37.8-38.2h0c-15.8-9.3-34.1-14-54.1-14c-19.8,0-37.9,4.7-53.8,14
	c-15.8,9.3-28.5,22.2-37.7,38.2c-9.2,16-13.9,34.3-14.2,54.4V379c0,6.8,2.3,12.5,6.9,17.1c4.5,4.5,10.3,6.9,17.1,6.9
	c7.1,0,12.9-2.3,17.3-6.9l122.2-91.1c14.8-9.3,26.7-22.1,35.2-38.1c8.5-15.9,12.8-34.1,12.8-54.1
	C362.3,192.6,357.5,174.3,348.2,158.2z M307.9,244.9c-5.2,9.5-12.4,17-21.3,22.5c-8.8,5.4-19,8.1-30.4,8.1
	c-11.1,0-21.3-2.7-30.2-8.2c-9-5.4-16.1-13-21.2-22.4c-5.1-9.5-7.7-20.3-7.7-32.3c0-12.2,2.6-23.1,7.7-32.6
	c5.1-9.4,12.2-17,21.2-22.4c9-5.4,19.1-8.2,30.2-8.2c11.3,0,21.6,2.7,30.4,8.1c8.9,5.4,16,13,21.3,22.5c5.2,9.5,7.9,20.5,7.9,32.6
	C315.8,224.6,313.1,235.4,307.9,244.9z"/>
</svg>
