<?xml version="1.0" encoding="utf-8"?>
<!-- Generator: Adobe Illustrator 25.2.1, SVG Export Plug-In . SVG Version: 6.00 Build 0)  -->
<svg version="1.1" id="レイヤー_1" xmlns="http://www.w3.org/2000/svg" xmlns:xlink="http://www.w3.org/1999/xlink" x="0px"
	 y="0px" viewBox="0 0 512 512" style="enable-background:new 0 0 512 512;" xml:space="preserve">
<style type="text/css">
	.st0{clip-path:url(#SVGID_2_);fill:#F6F0D3;}
	.st1{fill:#4F0A0A;}
	.st2{fill:#BEB1AA;}
	.st3{fill:#D29836;}
	.st4{fill:#F5F2E9;}
	.st5{fill:#00A273;}
	.st6{clip-path:url(#SVGID_4_);fill:#F5F2E9;}
	.st7{clip-path:url(#SVGID_4_);fill:#FFF5D7;}
	.st8{clip-path:url(#SVGID_4_);fill:#6BBC6E;}
	.st9{clip-path:url(#SVGID_4_);fill:#00A273;}
	.st10{clip-path:url(#SVGID_4_);fill:#C3D94E;}
	.st11{clip-path:url(#SVGID_4_);fill:#8FC31F;}
	.st12{clip-path:url(#SVGID_4_);fill:#D9E474;}
	.st13{fill:#6BBC6E;}
	.st14{fill:#533C32;}
	.st15{clip-path:url(#SVGID_6_);fill:#533C32;}
	.st16{clip-path:url(#SVGID_8_);fill:#533C32;}
	.st17{fill:#CE0909;}
	.st18{fill:#FFFFFF;}
</style>
<g>
	<g>
		<defs>
			<path id="SVGID_1_" d="M465.5,512h-419C20.9,512,0,491.1,0,465.5v-419C0,20.9,20.9,0,46.5,0h418.9C491.1,0,512,20.9,512,46.5
				v418.9C512,491.1,491.1,512,465.5,512z"/>
		</defs>
		<clipPath id="SVGID_2_">
			<use xlink:href="#SVGID_1_"  style="overflow:visible;"/>
		</clipPath>
		<rect x="-4.7" class="st0" width="516.7" height="516.7"/>
	</g>
</g>
<g>
	<path class="st1" d="M231.7,103.9c-11.7,1.3-25.3,5.4-40.8,12.5c-1.6,0.5-2.9,0.2-4-0.9c-1.7-2.8-0.9-5.4,2.4-7.6
		c14.6-6.1,30.3-10.3,47.1-12.7c3-0.1,5,0.5,6.2,1.7c1.4,1.3,1.7,3,1.1,5.1c-0.8,2.2-3.3,6.4-7.4,12.5
		c-10.3,16.9-21.5,35.8-33.5,56.6c-2.4,4.3-4.2,6.8-5.2,7.4c-2.1,1.4-4.1,1.6-6,0.8c-1.7-1.3-2.3-2.9-1.7-4.9
		c0.1-0.4,0.5-0.8,1.1-1.1c0.9,0.1,1.8-0.2,2.5-0.9c1.5-0.6,7-10.2,16.6-28.8C217.2,130.3,224.4,117.1,231.7,103.9z M219,164
		c0.6-0.9,1.7-1.3,3.3-0.9c18.6,10.7,28.1,15.5,28.6,14.6c-2.1-40.1-2.2-79.8-0.2-119.3c0-3.5,1.3-5.2,4-5.1c2.8,0.3,4.4,1.6,4.7,4
		c-1.8,17.6-2.5,38.4-2.1,62.3c0.8-0.1,1.7,0,2.5,0.3c1.1,0.5,2.2,1.2,3.3,2.1c0.7-0.5,1.4-1,2.1-1.4c0.9-0.8,2.2-2,3.6-3.3
		c9.9-11.9,19.5-24.3,28.6-37c0.8-2.5,2.8-3.1,6-1.7c1.8,1.7,2,4,0.5,7c-18.4,23.6-30,37.3-35,41c12.4,9.5,28.1,22.5,46.8,39.1
		l5.4,4c2.4,1.5,4.4,2.6,6,3.3c2,2.1,2.5,4.9,1.6,8.2c-1.3,1.9-3,2.6-5.1,2.2c-2.4-1.3-5.5-3.9-9.3-7.8
		c-16.9-16-34.3-30.5-52.2-43.3c-1.7-0.9-3.3-2.1-4.7-3.3c0.4,17.6,1.3,36.8,2.7,57.6c-0.2,2.5-0.9,4.6-2.1,6.2
		c-1.5,1.3-2.8,1.2-4-0.3c-1.8-1.3-4-3.4-6.6-6.3c-3.7-4-12.7-10-27.1-18C219.3,166.8,218.7,165.5,219,164z"/>
	<path class="st1" d="M384.1,147.9c-5.5,14.2-11.2,27.4-17.1,39.6c-2,1.3-3.9,1.3-5.7,0.2c-1.5-1.3-1.8-2.8-1.1-4.6
		c11.1-20.6,21-46.1,29.7-76.7c0.2-0.5,0.3-0.9,0.3-1.3c-4,1.1-8,2.2-12,3.3c-3.5,1.1-5.3-0.2-5.4-3.6c0.3-2.4,1.6-4,4-4.6
		c12.5-3.7,25.4-6.9,38.4-9.7c18.9-4.5,33.7-7.1,44.6-7.6c4.2,0.3,7.3,1.7,9.2,4.1c0.6,1.8,0.3,3.7-1.1,5.7l-20.1,26.3l-2.4,2.5
		c0.8-0.2,1.5-0.4,2.1-0.5c1.9-0.5,3.1-0.7,3.6-0.6c2.4,0.7,3.5,2.5,3.2,5.4c-0.5,2.1-2,3.5-4.3,4.1c-9.3,0.2-24.4,3.9-45.2,10.9
		c-6.5,2.3-12.4,4.8-17.7,7.4c-0.9,0.2-1.8,0.2-2.7-0.2L384.1,147.9z M455.7,58.8c-4.4,0.1-7.8,0.4-10,0.8
		c-23.1,4.2-42.9,7.7-59.3,10.4c-2.6,0.4-5.2,0.9-7.8,1.6c-2.1,0.3-3.4-0.4-3.8-2.2c-0.3-2.7,0.5-4.8,2.5-6.2
		c24.2-3.5,49.1-7.8,74.8-12.8c2.8-0.4,4.7,0.5,5.5,2.8C458.1,55.9,457.4,57.7,455.7,58.8z M456.2,93.6c1.2-1.8,0.5-2.6-1.9-2.4
		c-5.6,0-16.2,1.8-32,5.5c-7.7,1.6-15.7,3.5-24,5.9c0.4,0.7,0.6,1.4,0.6,2.1c-3.7,11.9-7.5,23.3-11.4,34.2c3.5-1.6,8.4-3.4,14.7-5.5
		c9.9-3.6,21.4-6.9,34.3-9.8c0-1.1,0.3-2,0.8-2.8c3.4-4.1,5.9-7.3,7.4-9.5C450.7,103,454.5,97.2,456.2,93.6z"/>
</g>
<g>
	<path class="st2" d="M307.4,248.2c0,0,0.2-3.6,1.3-3.6c1,0,7.5,1.2,7.5,1.2l33,5.3l61.4,19.3l-3.9,2.6l-11.7,3.6l5.2,10.2l-3.9-0.1
		l0.1,11.1l66.7,24.4l-18.5,2.4l-0.3,43.6l-4.7,2.7l2-39.5l-5.8-0.8l0.6,31.1c0,0-2.1,1.7-4.4,1.5c-2.3-0.3-3.8-1.7-3.8-1.7
		l-2.6,3.1c0,0-5.5-0.2-5.9,2.5c-0.3,2.7-1.2,3.7-1.2,3.7s-9.1-3.6-15.9,0.6l-2.3,1.9l-59.6,7.3l-10.4-2.2l-0.8,0.9
		c0,0-55.3-8.8-66.9-16l-57.3,2l-4-5.1l-0.1-26.5l-22.2-0.9l-1.9-5.1c0,0,45.2-14.8,53.5-23.2l1.9-5l24.6,1.6l-0.9-14.6l-11.6-1.4
		l31.5-29.7L307.4,248.2L307.4,248.2z"/>
	<path class="st3" d="M201.2,333.6c0,0,43.8-1.2,51.4-3.9c0,0,44-2.2,64.1-11c0,0,80.1,5.4,101.8,5.9l0.3,7.5l-91.1,0.9l-5.6,1.2
		l-68.9,2.7l-52.3,0.6L201.2,333.6L201.2,333.6z"/>
	<polygon class="st4" points="399.8,335.4 418.6,333.9 417.9,356.6 399.5,357.5 399.8,335.4 	"/>
	<polygon class="st4" points="384.7,335.4 384.1,348.5 398.3,352.5 399.1,334.5 384.7,335.4 	"/>
	<polygon class="st4" points="360.3,335.7 327.9,336.7 322.6,337.4 323.4,359.2 337.6,361.7 359.3,359.2 360.3,335.7 	"/>
	<polygon class="st5" points="201.4,339.3 222.1,340.6 223.5,353.9 206.5,355.9 202.3,355.5 201.4,339.3 	"/>
	<polygon class="st4" points="242.3,338.5 277.3,338.4 277.9,352.8 256.5,353.7 256,350.3 243.2,350.9 242.3,338.5 	"/>
	<polygon class="st4" points="288,337.9 304,338.5 304.3,358.8 286.9,355.2 288,337.9 	"/>
	<polygon class="st4" points="328.3,269.6 338.1,270.3 338.2,284.6 335.9,285.5 336.5,288.6 333.1,289.4 326.8,287.9 328.3,269.6 	
		"/>
	<polygon class="st4" points="370.5,275.6 379.5,275.7 380.8,292.2 370,289.4 370.5,275.6 	"/>
	<polygon class="st4" points="294,266.6 286.4,271.2 286.7,285.8 295.4,287.2 294,266.6 	"/>
	<g>
		<defs>
			<rect id="SVGID_3_" x="146.7" y="219.4" width="352.9" height="228.7"/>
		</defs>
		<clipPath id="SVGID_4_">
			<use xlink:href="#SVGID_3_"  style="overflow:visible;"/>
		</clipPath>
		<polygon class="st6" points="222.2,339 243.5,338.4 242.9,355.4 222.6,355.5 222.2,339 		"/>
		<path class="st7" d="M174.9,364l26-5.4l2,3.1l3.6,4.6l56-3.2l71.1,27.9l68.5-11.4l3.8,1.9c0,0,162.8,35.2,53.9,58.2
			c0,0-190.1,24.8-265.8-11.3C194,428.5,134.9,397.2,174.9,364L174.9,364z"/>
		<path class="st8" d="M437.7,373.6c0,0,5.6-12.5,13.5-14.9l4-6.7l1.2-27.7l7.1-3.2L395.8,299l0.5-11l3.8-1.2l-5.2-10.2l13.5-5.7
			l-7.8-2.7l-57-17.9c0,0-3.2-7.8,7.3-11.2c0,0-1.7-16.5,12.4-6.7c0,0,9.7-6,15,8.4c0,0,7.2-11.9,20.7-2.1c0,0-0.6-14,9.1-14.3
			c0,0,11.5-1.7,14.2,16.4c0,0,0.2-19.1,17.8-18.8c0,0,15.1,1.6,14,16.8c0,0,14.7-10.5,22.9,0.3c0,0,27-2.4,16.6,22.1
			c0,0-12.2,30.7-4.7,48.4c7.5,17.6,20,65.1-3.8,83C485.3,392.4,433.6,388.2,437.7,373.6L437.7,373.6z"/>
		<path class="st9" d="M200.9,358.7l0.9-4.2l-0.6-20.9l-22.2-0.9l-1.9-5.1l19.1-6.6c0,0-6.3-13.4-17.8-6c0,0-21.3-5.1-20.7,15.2
			c0,0,1.6,7.2,7.8,9.3c0,0-10.5,8.3-3.9,20.4C161.7,360,170.9,370,200.9,358.7L200.9,358.7z"/>
		<path class="st10" d="M382.6,396.3c0,0,2.2-7.5,11.3-8.4l10.3-0.2c0,0-0.3-12,17-11.7c0,0,4.6-6.2,20.5-4.6l9.6,6.2
			c0,0-0.7-7,19.7-4.6c0,0,12.8,1.5,13.8,13.7c0,0,22.9,10.7,0,22.7c0,0-10.2,2.5-14.2-2.5c0,0-8.8,7-13.4,2.3c0,0-7.5,1.7-13.4-1.9
			c0,0-5.6,1.5-9.7-3.9c0,0-10.8,3.5-16.5-0.5c0,0-3.5,2.9-10.4,0.8C407,403.7,381.9,409.7,382.6,396.3L382.6,396.3z"/>
		<path class="st11" d="M160.9,358.7c0,0,10-7.5,19.7,4.5c0,0,9.4,1.2,14.7,6.9c0,0,1.2-8.9,11.7-8.3c0,0,2.5-0.7,4.5,2.3
			c0,0,7.3-12.1,15.7-2.6c0,0,10-10.8,19.4-0.4c0,0,18,6.5,5.2,13.6c0,0-9.3,5.2-19.3-2.8l1.6-3l-5.8,0c0,0-5.9,4.5-11.8,1.8
			c0,0-4.2,7.6-17.1,3.5c0,0,2.7,0.1,0.4,5c0,0,19.3,1,15.5,19.5l-4.8-1.4c0,0-5.1-5.9-8.1-5.9c-3-0.1-4.3-5.2-9.9-5.9
			c0,0-4.7-5.4-10.6-5.8C181.9,379.5,144.9,376,160.9,358.7L160.9,358.7z"/>
		<path class="st12" d="M233.6,425.9c0,0,14.6,13.9-3.2,18.7c0,0-62.9,16.1-72-42.4c0,0-3.8-22.1,7.5-28.4c0,0,11.3-3.9,14.7,3.6
			c0,0,15.7-0.9,18.5,10.7c0,0,17.2-0.6,18.5,12.5c0,0,13.9,7.3,11.3,16.9C228.8,417.7,234.6,423.4,233.6,425.9L233.6,425.9z"/>
	</g>
	<path class="st13" d="M249.5,393.9c0,0,4.4-9.8,14.1-8.7c0,0-2.8-10.1,10-10.4c0,0-4.7-11,11.9-14.3c0,0,18.2-11.1,24.6,6.5
		c0,0,16.9,6.6,11.8,15.1c0,0,20.3,9.1,4.9,19.8c0,0-5,9.6-19.7,5.7c0,0-16.3,5.7-24.4-0.9c0,0-6.5,6.6-16.1,1.4l-0.8-11.2l-9-4.5
		L249.5,393.9L249.5,393.9z"/>
	<path class="st14" d="M498.5,232.6c-6-0.8-10.6,2.9-14.2,6.1c-0.8,0.7-2.1,2.7-3.3,2.6c-1.6-0.2-1.3-3.5-3.9-2.3
		c-0.6-0.6-1.3-1.3-0.7-2.2c1.5,0.4,2.8,1,3.8,1.9c1.8-1.2,4-3.2,6.6-4.8C489.9,232.1,496,228.8,498.5,232.6L498.5,232.6z"/>
	<path class="st14" d="M497,383.5c-0.9,0.7-2.1-0.2-2.6-0.8c-3.5,0.3-6.3,1.2-9.5,1.7c0.5-0.3,2.7-4,9-2.7
		C494.4,382,496.8,382.9,497,383.5L497,383.5z"/>
	<path class="st14" d="M499.6,313.3c-1.2,3.2-5.2,4.4-6.5,7.1c-0.7,0.3-1.3-0.2-1.5-0.8c-3.3,1.9-7.1,3.4-8.1,7.5
		c-1.5,0-1.8-1.8-1.4-3.2c2.2-2.5,4.9-5.2,9.5-5C493.9,316.7,495.5,313.8,499.6,313.3L499.6,313.3z"/>
	<path class="st14" d="M490.5,307.1c-1.3,1.8-3.7,2.7-6,4c-1.5,0.9-3.1,1.7-4.7,2.5c-3.4,1.6-6.8,3.3-9.5,4.9
		c-0.9,0.5-1.9,1.6-2.8,0.1c0.9-1.4,2.6-2.1,4.1-3c1.4-0.8,2.9-1.6,4.3-2.3c2.9-1.4,9.5-4.7,9-4.4
		C483,309.8,489.4,306.5,490.5,307.1L490.5,307.1z"/>
	<path class="st14" d="M490,409.6c-0.4,1.1,0.1,2.6-0.8,3.4c-0.9,0-0.8-1-1.4-1.3C488.4,410.9,488.8,409.9,490,409.6L490,409.6z"/>
	<path class="st14" d="M488.1,350.3c-1.7,1.5-3.2,2.9-4.3,4.9c-1,1.6-1.2,3.8-2.6,5c-1.3-0.4-1.2-2.3-0.7-3.4
		c-3.6,0.7-5.9,2.6-8.5,4.3c0.1,0.6,0.8,0.7,1.1,1c-0.9-0.1-2.9,0.2-3.8,0.1c-0.1-0.1,0-0.5-0.4-0.4c-0.2-1.1,0.5-1.3,0.7-2.1
		c3.1-1.5,6.2-4.3,11-3.4C482.6,354.1,484.7,351.6,488.1,350.3L488.1,350.3z"/>
	<path class="st14" d="M485.5,411.1c-2.7,0.9-5.8-2.1-8.1-0.1c-1-0.1-1.5-1.3-1.1-2.3C480.3,407.1,482.4,410.4,485.5,411.1
		L485.5,411.1z"/>
	<path class="st14" d="M484.3,384.6c-1,0-0.8-2.1-1-3c-0.6-3.4-2.7-6.3-5-8.1c-2.6-1.9-8.5-1.7-9.6,1.3c-1,0.3-1.7-0.8-1.5-1.7
		c-1.3-0.1-1.7,1.7-2.7,1.6c-0.9-0.1-0.9-1.1-1.2-2.2c0.9-1,3.3-1.2,4.5-0.3C489,368.1,483.9,384.5,484.3,384.6L484.3,384.6z"/>
	<path class="st14" d="M481.6,329.5c-0.8-0.2-0.8-1.1-1.5-1.4c-2.8,0.5-5.5,2.6-7.3,4.4c-1.2,1.1-1.8,2.7-2,4.3
		c0.6,0.7,1.9,0.7,2.8,0.4c-0.5,0.4-1.1,0.7-1.6,1c-0.7-0.2-1.5,0-2-0.3c-0.9-0.5-1.3-2.7-1.2-3.4c0.1-0.7,1.3-2.2,2-2.8
		c1-0.9,2.6-2.1,3.8-2.8c1.4-0.9,3.9-1.9,5.8-1.2C480.8,328.2,481.2,328.8,481.6,329.5L481.6,329.5z"/>
	<path class="st14" d="M481.6,425.9c-1.7,1.3-4.1,2.7-6.2,4c-1.6,1-2.7,2.3-5.2,1.7c-0.8-0.2-1.8-0.9-3-1.7c-1.4-0.9-3.1-1.4-3-3.4
		c1.1,0.2,2.2,1.1,3.3,1.8c1,0.7,2.2,1.3,3.1,2.1c1.6-1.3,3.7-2.2,5.7-3.1c-0.1-0.4-0.5-0.5-0.7-0.9c0.2-2.2-1.4-3.3-0.9-4.9
		c1.9,1,2.6,3.2,2.4,5.4C477.7,426.7,480.6,426.1,481.6,425.9L481.6,425.9z"/>
	<path class="st14" d="M474.9,421.1c-0.2-0.2-0.1-0.6-0.4-0.8c-3.3-0.9-7.1-0.6-9.9-1.9c-1.4,0.8-3,1.4-4.5,2.2
		c0.1-1.4,2-2.2,2.7-3.5c0.6,0.1,1.1,0.3,1.5,0.6C467.7,417.4,474.4,418.2,474.9,421.1L474.9,421.1z"/>
	<path class="st14" d="M474.6,287.1c0,1.6-1.5,2.9-2.2,4.3c0.1,0.6,0.8,0.6,0.7,1.3c-3.6,0.7-0.8-3.3-0.5-5c0.3-2.8-1.8-3.9-3.9-5
		c-0.1-0.3-0.5-0.9-0.1-1.3C471,282.2,474.6,284.2,474.6,287.1L474.6,287.1z"/>
	<path class="st14" d="M472.6,236.8c0.5,0.3,0.9,1,1.6,1.6c-1.3-0.3-2.3-1.3-4.1-1.4c-4.4-0.2-7.4,3.4-9.5,5.7c0,0.4-0.4,0.5-0.3,1
		c-0.7-0.1-0.6,0.6-1.2,0.6c-0.5,0-0.5-0.4-0.9-0.4c-0.5-0.8,0.3-1.6,0-2.2C460.7,238.2,467,233.3,472.6,236.8L472.6,236.8z"/>
	<path class="st14" d="M466.8,266.9c2.4,0.5,6.4,3.9,6,6.3c-0.2,0.9-1.8,1.9-2.7,2.5c-1.2,0.7-2.4,1.1-3.5,1.6c0.5,1,2.4,1.3,2,2.7
		c-2.1-0.2-3.1-1.8-2.8-3.1c0.4-1.6,4.8-3.2,4.9-5.2c0-0.7-1.1-1.9-1.8-2.6C468,268.3,466.9,268.3,466.8,266.9L466.8,266.9z"/>
	<path class="st14" d="M471.7,407.8c-0.2,0.7,0.6,1.1,0.4,1.3c-0.7,0-0.7-0.7-1.4-0.8c-3.8,1.1-8.8,4.5-13.2,1.9
		c-0.1-0.5-0.3-0.7-0.5-1c-2.3,0-3.4-1.1-5.3-1.6c-2.6,1.8-8.9,2.6-9.5-1.4c-0.7,0.1-0.9,0-1.8,0.1c0.2-0.8,0.9-1.1,1.2-1.8
		c1.2,0.4,1.8,1.3,1.9,2.7c3.2,1.3,6.1-1.2,9.4-0.4c1.2,0.3,2.4,1.4,4.1,1c0.5-0.4,0.5-1.2,0.9-1.6c0.9,0.2,1,1.8,0.5,2.6
		c4.2,1.8,8.5-3.4,11.9-2.1C470.8,407.1,470.9,407.8,471.7,407.8L471.7,407.8z"/>
	<path class="st14" d="M471.7,325.5c-0.3,0.9-0.3,2.5-1.4,2.6c-1.2,0.1-1.5-1.4-0.7-2.2C470.1,325.4,471,325.4,471.7,325.5
		L471.7,325.5z"/>
	<path class="st14" d="M468.8,338.5c-1.2,2.4-4.6,3.2-5,6.3c-0.2,1.2,0.2,2.7-0.4,3.6c-1.2,0.1-2-0.9-2.2-1.7
		C460.5,343.4,465.2,338.8,468.8,338.5L468.8,338.5z"/>
	<path class="st14" d="M461.2,253.6c3.8,0.5,6.6,4.8,4.3,8.3c-0.3,0-0.6,0-0.9,0c0.3,0.8,0.9,1.7,0.1,2.5c0.1,0.6,0.9,0.6,0.7,1.6
		c-1.5,0.4-2.3-0.8-2.3-1.8c0-0.7,0.7-1.3,0.9-2.2c0.7-2.5,0.6-5-0.8-6.5C461.7,255.7,460.4,254.7,461.2,253.6L461.2,253.6z"/>
	<path class="st14" d="M465.8,294.3c-1,0.2-2.1-0.5-3.4-0.5c-1.7-0.1-3.6,0.5-4.9-0.1c-1.3-1.5,1.7-1.7,3.4-1.6
		C462.9,292.3,465.5,293.4,465.8,294.3L465.8,294.3z"/>
	<path class="st14" d="M242.1,336.5c0.1-1.2,0.2-2.4,0-3.6c-1.1,0-1.6,0-2.3,0.3c0,1.1,0.2,2,0.1,3.2
		C240.5,336.6,241.4,336.4,242.1,336.5L242.1,336.5z M240.2,338.5c0.7,0,1.4,0,2,0c0-0.4-0.1-0.7-0.3-1
		C241,337.4,239.5,337.4,240.2,338.5L240.2,338.5z M248.5,343.7c-0.3,0,0.2-0.4,0-0.8c-0.5,0-1,0-1.5,0c-0.1,0.3-0.3,0.8,0,1
		C247.6,343.7,248.2,344.2,248.5,343.7L248.5,343.7z M251.6,342.1c0-1-0.1-1.9-0.1-2.6c-0.7-0.4-1.5,0.1-2.3,0
		c0.1,0.9,0.5,1.5,0.4,2.6C250.1,342.2,251.1,342.4,251.6,342.1L251.6,342.1z M251.6,343.8c0-0.3,0-0.5,0-0.8c-0.5-0.2-1.6-0.2-2,0
		c0,0.2,0,0.4,0,0.6C250.2,343.8,251.1,344.1,251.6,343.8L251.6,343.8z M251.9,348.1c0-1,0-2-0.3-2.7c-0.5,0.1-1.2,0.2-1.9,0.1
		c-0.3,0.6-0.3,1.5-0.3,2.3C250.2,347.9,251,348.1,251.9,348.1L251.9,348.1z M255.2,339.4c-0.9,0-1.9,0-2.8,0c0,1.1,0.6,1.6,0.4,2.8
		c0.6,0.2,2,0.4,2.6,0.3C255.3,341.6,254.8,340,255.2,339.4L255.2,339.4z M255,344.7c0-0.7,0.2-1.1,0.1-1.8
		c-0.9-0.1-1.5,0.1-2.3,0.1c-0.1,0.5,0,0.4,0,1C253.8,344.1,254.2,344.6,255,344.7L255,344.7z M262.5,337.6
		c-0.4-0.7-1.5-0.4-2.3-0.4c-3.7,0.1-9.8,0.1-13.8,0.3c-1.1,0-2.6-0.5-2.8,0.9c4.1,0.2,9.6-0.1,14.6-0.1
		C259.9,338.3,262,338.6,262.5,337.6L262.5,337.6z M261.9,353.4c0.2-5.5,0.4-9.2,0.3-14c-2,0.1-4.4-0.2-6.2,0.1
		c0.9,1.2,0.5,3.2,0.4,5.2c-0.1,3,0.4,6.5,0.1,8.9C258.6,353.8,259.9,353.2,261.9,353.4L261.9,353.4z M271,338
		c0-0.3-0.2-0.5-0.1-0.9c-2.5-0.1-4.6,0.2-7.2,0.1c0,0.3,0,0.6,0,0.9C266.1,338.3,268.6,338.2,271,338L271,338z M270.8,353
		c0.1-4,0.5-9.4,0.3-13.6c-1.7-0.2-4.8,0.1-7.3,0c-0.2,4.3-0.2,9-0.4,13.7C265.9,353.5,268.5,353.1,270.8,353L270.8,353z
		 M276.7,352.5c-0.1-4.3,0-8.1-0.3-13.1c-1.3-0.1-2.5-0.1-4.2-0.1c0,4.5,0.2,8.9-0.1,13.6C273.8,352.6,275,352.8,276.7,352.5
		L276.7,352.5z M279,338.1c0-0.4,0.2-0.6,0.1-1.2c-1.9-0.2-4.4,0.3-7.1,0.1c0,0.3,0,0.7,0,1C274.4,338.1,276.7,338.1,279,338.1
		L279,338.1z M283.2,338.3c0.2-0.3,0.2-1.2,0-1.4c-1.4,0.2-3-0.6-2.6,1.3C281.7,338.3,282.6,337.8,283.2,338.3L283.2,338.3z
		 M286.8,337.9c0-0.3,0-0.5,0-0.8c-1,0.1-1.1-0.6-2.2-0.4c0,0.4,0,0.9,0,1.3C285.3,337.9,286.3,338.2,286.8,337.9L286.8,337.9z
		 M293.1,337.8c0-0.4,0.1-0.9-0.1-1.2c-1.7,0.3-3.8,0.2-5,0.5c0,0.3,0,0.5,0,0.8C289.3,338,291.1,337.9,293.1,337.8L293.1,337.8z
		 M293.1,335.3c0.3-2.3-0.1-5-0.1-7.1c-0.7,0-0.9-0.6-1.4-0.9c-1.1,0.4-2.5,0.6-4.1,0.6c-0.4,0.4,0.4,0.2,0.3,0.6
		c-0.7,0.4-1.1,1.1-2.3,1c-0.6-0.1-0.4-0.9-0.9-1c-1.2,0.3-2.8,0.3-4.1,0.6c0.1,2.2-0.1,4.5,0.3,6.7c1,0,1.9,0.1,2.4-0.1
		c-0.1-1.2-0.5-2.9-0.1-4.1c1.3,0.7,0.7,3.1,1.5,4.3c0.7,0,1.4-0.1,2.2-0.4c0.1-2.1,0.1-4.3,0.1-6.1c2.3,0.5,0.8,3.8,1.1,5.9
		C289.9,335.5,291.3,335.2,293.1,335.3L293.1,335.3z M295.3,337.8c0.2-0.2,0.1-0.9,0.1-1.3c-0.5-0.1-0.5,0.2-0.9,0.1
		c0.1,0.4-0.1,0.7-0.1,1C294.8,337.6,294.8,337.9,295.3,337.8L295.3,337.8z M302.9,337.2c0.1-0.6-0.2-0.7-0.1-1.3
		c-2.2,0.2-4.2,0.2-6,0.5c0,0.4,0,0.8,0,1.2C298.9,337.5,301.6,337.7,302.9,337.2L302.9,337.2z M306.2,337.2c0-0.5,0-0.9,0-1.4
		c-1-0.1-1.5,0.2-2.4,0.1c-0.1,0.6,0.2,0.9,0.1,1.4C304.7,337.4,305.5,337.4,306.2,337.2L306.2,337.2z M306.3,334.5
		c0-3.3,0.6-8.4-0.3-10.5c-0.6,0.4-1.6,0.4-2.2,0.8c0.8,1.5-3,2.8-3.5,0.8c-0.7,0.3-1.9,0.2-2.4,0.6c0.5,0.1,1.3-0.2,1.5,0.1
		c-1.8,0.7-3.3,1.8-5.8,1.8c0.2,1.9,1.3,4.2,0.7,6.9c0.2,0.2,0.8,0.1,1.2,0.1c0.5-2.1-0.1-3.8,0.3-6.2c1.1,1.4,0.9,4,1.2,6.1
		c2.5,0,3.5,0,5.7-0.3c0.1-1.7-0.3-4,0.3-5.3c0.5,1.5,0.5,3.5,0.7,5.3C304.6,334.8,305.6,334.8,306.3,334.5L306.3,334.5z
		 M309.1,334.5c0.3-3.7-0.2-7.7-1.1-10.7c0-0.1-0.9,0-1.1,0.1c1.1,3,0.4,7.3,0.4,10.6C308,334.6,308.5,334.8,309.1,334.5
		L309.1,334.5z M309.3,337.1c0.3-1.7-0.4-1.6-1.9-1.4c0.3,0.4,0,1.2,0.3,1.6C308.3,337.3,308.6,337.1,309.3,337.1L309.3,337.1z
		 M326.9,368c0-0.3,0-0.5,0-0.8c-0.6,0.1-1.3,0.1-1.6,0.5C325.8,367.8,326.3,368,326.9,368L326.9,368z M326.9,371
		c0.2-1-0.1-1.7,0-2.8c-3.2,0.9-5.7-0.5-8.3-1.2c-2.8-0.7-5.9-0.6-7.6-1.8c-0.1,0-0.3,0-0.4,0c0.5,0.9-0.6,0.9-0.5,1.8
		c4.8,1.2,9.5,2.6,14.8,3.4c0,0.2,0,0.4,0,0.6C325.6,371,326.2,371,326.9,371L326.9,371z M326.9,366.5c0.2-1.7,0.2-4.1,0-5.4
		c-0.8-0.1-1.4-0.4-2.2-0.4c-0.4,1.4-0.3,3.3-1.5,4c-0.6-9.6,0.4-18.9-0.7-27.3c-2.1,0.2-4.7,0.5-7.5,0.6c0.7,2.5,0.3,6.4,0.7,9.6
		c0.4,4-0.3,8,0,11.4c1.7-0.2,3.9-0.4,5.6,0.3c-1.6,0.6-3.8,1.8-5.7,0.9c-0.1,1.9,0.3,4.2-1.2,4.7c-0.8-1.4-0.3-2.9-0.3-4.4
		c0.3-7.5-0.1-14.9,0-22.4c-1.1,0.1-2.4,0.1-3.4,0.3c0.3,3.2,0.1,6.9,0.1,10.1c0.1,2.4,0.2,4.8-0.7,6.6c-1.1-0.3-0.9-1.6-0.8-2.6
		c0.4-4.2,0.2-10.6,0-14.1c-0.6,0.1-1.4-0.1-1.8,0.1c0.2,4.7-0.1,10.3,0.1,16c0.1,1.7-0.4,5.3-0.1,6.3c0.3,1.2,2.7,2.4,2.7,3.9
		c3.8,0.5,7.7,0.8,11.3,1.6c0.5-0.1-0.2-0.5,0.5-0.4C324,365.8,325.2,366.3,326.9,366.5L326.9,366.5z M329.5,367
		c0.2-10.1,0.3-19.2,0.4-30c-0.5-0.3-1.5,0-2-0.3c0.9,11.6-0.4,22.7,0.3,34.5c0.5-0.1,0.6,0.2,1.1,0.1c0.3-1,0.3-2.3,0.3-3.6
		c-0.2-0.4-0.8-0.5-1.2-0.6C328.7,367.1,329.3,367.2,329.5,367L329.5,367z M330,335.3c0-0.3,0-0.7,0-1c-0.6,0-1.3,0-1.9,0
		c-0.2,0.2-0.1,0.9-0.1,1.3C328.9,335.4,329.3,335.6,330,335.3L330,335.3z M318,317.8c6.3,0.8,11.9,1.2,17.9,1
		c-6.2-0.8-12.7-1.4-18.7-2.3c-0.1,0.3-0.4,0.4-0.4,0.8c-12.3,5.7-27.7,8.5-43.4,11c14.2-1.6,28.3-4.3,40.7-8c0.3-0.4,1.1-1.1,1.5-1
		c-0.6,1.2-1.2,2.4-2.6,2.8c0.4,0.1,1.1,0,1.4,0.3c0,2-4.2,2.7-5.2,1c1.5,3,1,7.2,1.2,11.1c3.9,0,9.8-0.8,13.6-0.1
		c-3.6,1.3-9,0.5-13.6,1.3c0.1,0.5,0.1,1,0.3,1.4c3.6-0.1,8.6-0.4,12.9-0.1c-0.4,0.6,0.2,0.4,0.5,0.6c1,7.4,0.5,14.6,0.7,22.1
		c0.8,0,1.4,0.2,2.2,0.3c0.4-8.9,0.3-17.2,0.3-25.6c-0.7-0.2-1.6-0.1-1.6-0.9c0.1-0.7,1.3-0.4,1.4-0.8c-0.1-2.1-0.1-4.8-0.1-7.5
		c0-1.8-0.3-3.7,0.4-4.8c2.2,3.4,0.3,8.6,0.5,12.5c0.6-0.2,1.5,0.1,2.2-0.1c-0.4-3.3,0.5-6.7,0-10.1c-0.4,0-0.7,0-1.1,0
		c-0.1-0.4-0.6-0.7-0.8-1.2c-0.3-0.6-0.1-1.2-0.3-1.6c-2.5,0-4.5-0.4-6.6-0.6c0.2,2-1.3,2.9-3,2.6c-0.6-0.8-0.7-1.8,0.3-2.3
		c0.4-0.2,1.8,0,1.5-0.3c-1-0.3-2.5,0-3.1-0.6C317.6,318.9,317.3,317.9,318,317.8L318,317.8z M334.6,335.4c0.2-0.2,0.1-0.9,0.1-1.3
		c-1.6,0-2.1,0.1-3.5,0.1c0,0.4,0,0.8,0,1.2C332.4,335.4,333.5,335.4,334.6,335.4L334.6,335.4z M334.6,321.2c-0.1-0.5,0.8,0,0.7-0.5
		c-2-0.5-4.9,0.1-6.4-0.6c0,0.7,0.2,1.4,1.1,1.3c0.4,0-0.1-0.8,0.3-0.8c0.2,0.2,0.3,0.4,0.3,0.8c0.8-0.1,2-0.5,2.6-0.4
		c-0.9,0.3-1.5,0.9-2.3,1.3c0.6,3.9-0.3,6.9,0.1,10.6c1.3,0,2.5,0,3.8,0C335.3,328.8,334.5,325,334.6,321.2L334.6,321.2z
		 M335.7,379.5c-0.1-1.7,0-3.9,0.1-5.8c-1.8-0.2-3.2-0.6-5-0.8c0.2,2.2-0.4,3.5-0.5,5.4C332.2,378.6,333.8,379.2,335.7,379.5
		L335.7,379.5z M337.6,335.3c0-0.3,0-0.7,0-1c-0.2-0.2-0.6-0.1-0.9-0.1c0.1,0.6-0.2,0.8-0.1,1.3
		C336.9,335.4,337.4,335.5,337.6,335.3L337.6,335.3z M337.6,332.7c0.2-3.8-0.9-8,0-11.9c-0.4-0.3-1.2-0.1-1.8-0.1
		c0,1.2,0.1,2.5-0.3,3.4c0.3,0.5,0.7,0.8,0.8,1.4c0.4,2.2-0.2,4.9-0.1,7.1C336.5,332.8,337.2,332.7,337.6,332.7L337.6,332.7z
		 M365,352.9c-0.3-5.5,0.4-11.1,0-16.6c-0.5,0-1,0-1.5,0c0.8,2.5-0.4,5.5,0,7.9c0.1,0.6,0.5,0.9,0.5,1.4c0.3,3.1-0.6,6.3,0.4,9.4
		C365.8,355.2,365.1,353.6,365,352.9L365,352.9z M372.1,356.2c-0.4-6.7-0.1-13.8-0.3-20.2c-2.3,0.1-3.7,0-6.1,0.3
		c1.4,1.9,0.5,5.5,0.8,8.7c0.3,3.6,0.1,7,0.5,10C368.9,355.1,370.7,356.1,372.1,356.2L372.1,356.2z M378.2,334.4
		c0.1-0.3-0.1-0.5,0-1c-6.4,0.1-13.5,0.3-20.3,0.4c-5.4,0.1-11.7-0.2-17.1,0.4c-0.6,0.1-1.7-0.3-1.4,1c11.2,0.6,22.4-0.3,33.2-0.3
		C374.2,334.9,378,335,378.2,334.4L378.2,334.4z M378.5,350.9c0-4.6-0.2-10.4-0.1-14.9c-1.8-0.3-3.6-0.1-5.4,0
		c0.5,6.3,0.5,12.6,0.7,19.1c-0.8,0-1.6,0.6-1.2,1.3c1.1,0.3,1.1-0.8,1.4-1.4c0.2-0.6,0.7-1.3,0.8-1.9c0.3-1.9,0-4.2,0.1-6.5
		c0.1-1.8-0.2-3.8,0.7-5c0.2,2.8,1.3,6.2,0.3,9.4C376.4,351.4,377.5,350.1,378.5,350.9L378.5,350.9z M378.5,357.8
		c0.3-2.1-0.1-3.7,0.1-5.7c-0.4-0.3-1.2-0.3-1.9-0.3c0,2-1.4,2.6-1.6,4.4C376.2,356.7,377.1,357.5,378.5,357.8L378.5,357.8z
		 M380.6,334.6c0-0.4,0-0.9,0-1.3c-0.3-0.1-0.7-0.2-1.2-0.1c0,0.5,0,0.9,0,1.4C379.9,334.9,380,334.6,380.6,334.6L380.6,334.6z
		 M382.9,357.5c0.3-1.8,1.1-3.3,1.5-5c-0.8-0.2-1.7-0.2-2.6-0.3c0,1.8-0.5,3.6-0.3,5.3C382,357.5,382.5,357.5,382.9,357.5
		L382.9,357.5z M386.9,344.3c-0.2-0.9,0.1-1.1-0.1-2.1c-0.5,0.1-0.6-0.2-1.1-0.1c-0.1,0.7-0.2,1.6-0.1,2.5
		C385.9,344.4,386.6,344.6,386.9,344.3L386.9,344.3z M387,352.4c0.1-1-0.2-1.7-0.1-2.7c-0.6-0.2-1.1-0.5-1.1-1.3
		c0.1-0.4,0.7-0.3,0.9-0.5c0-0.8,0.1-0.9,0-1.7c-0.6-0.1-1.1-0.2-1.4-0.6c-0.3,1.8-0.8,3.4-0.9,5.3
		C385.4,351.2,386.2,351.8,387,352.4L387,352.4z M389.6,350c-0.1-0.7-1.4-0.3-2.2-0.4c0,0.3,0,0.5,0,0.8
		C388.1,350.3,389.5,350.7,389.6,350L389.6,350z M389.4,348c0-0.6,0-1.2,0-1.8c-0.7-0.1-0.9,0.2-1.6,0.1c-0.2,0.4-0.1,1.1-0.1,1.7
		C388.3,348,388.9,348,389.4,348L389.4,348z M389.4,344.5c0-0.4,0.3-1.4,0-2.1c-0.6,0-0.9-0.2-1.6-0.1c0,0.9,0.1,1.1,0.1,2.2
		C388.5,344.5,389,344.5,389.4,344.5L389.4,344.5z M391.1,334.5c0-0.4,0-0.9,0-1.3c-3.5,0-6,0.1-8.5,0c-0.6,0.1-0.4,0.9-0.3,1.4
		C385.6,334.7,387.7,334.4,391.1,334.5L391.1,334.5z M391.1,342.1c0.6-0.3,0.3-1.4,0.3-2.3c0-1.5,0-3.1-0.1-4.1
		c-3.1-0.1-5.7,0.2-8.8,0.1c-0.3,5-0.3,10-0.4,15.4c0.8-0.2,1.3-0.5,2.2-0.3c-0.1-2.4,0.3-4.3,0.4-6.5c0.1-2.4-0.4-4.9,0.4-6.9
		c0.6,1,0.2,3.1,1.1,3.9c0.3,0,0.4-0.2,0.8-0.1c0.1-1.5-0.1-2.1,0.1-3.2c1,0.2,0.5,2.1,0.8,3.2c0.5,0.3,1.2,0.3,1.8,0.4
		c0.1-2.1,0.1-3.8,0.4-5.4C391.4,337.5,390.4,340.5,391.1,342.1L391.1,342.1z M391.6,344.7c0-0.6,0-1.2,0-1.8
		c-0.3-0.1-0.5-0.2-0.8-0.3c0,0.8-0.2,1.2,0,1.9C391.1,344.6,391.2,344.8,391.6,344.7L391.6,344.7z M391.8,348.1
		c-0.4-0.6,0.2-2.1-0.4-2.5c-1,0.1-0.6,1.6-1.1,2.3C390.6,348.1,391.3,348.4,391.8,348.1L391.8,348.1z M391.8,350.6
		c0-0.2,0-0.4,0-0.6c-0.4-0.4-0.9,0-1.8-0.1c0,0.2,0,0.3,0,0.5C390.4,350.6,391.1,350.6,391.8,350.6L391.8,350.6z M394.7,334.4
		c0-0.4,0-0.8,0-1.2c-0.6,0-1.2,0-1.8,0c-0.1,0.4-0.1,0.6,0,1.2C393.6,334.4,394.2,334.4,394.7,334.4L394.7,334.4z M398.4,335.4
		c-0.8,0-1.6,0-2.2,0.1c0.2,4.7,0,10.2,0.3,15c0.7-0.1,1,0.2,1.6,0.1C398.4,345.3,398.1,340.9,398.4,335.4L398.4,335.4z M404,361.2
		c-0.4-1.4,0.2-2.1,0.1-3.6c-1.9,0.2-3.3-0.1-4.6,0c0.3,1.6-0.2,2.5,0.1,4.1c0.6,0.1,0.9-0.1,1.5-0.1c0.1-1.2-0.8-3.1,0-3.7
		c0.7,0,1,0.4,1.4,0.8c-0.3,0.8-0.1,2-0.1,3C402.8,361.4,403.6,361.5,404,361.2L404,361.2z M425.5,357.3c-0.1-2.2,0.2-4-0.4-5.7
		c-0.4,0.3-0.9,0.4-1.4,0.6c-0.1,1.5-0.2,3.7-0.3,4.9C424.2,357.1,425,357.1,425.5,357.3L425.5,357.3z M428,357.1c0-1.8,0.2-3.2,0-5
		c-0.2,0.5-1.2,0.5-1.5,0.1c-0.5,1.4-0.5,4-0.5,5.4C427,357.8,427,357,428,357.1L428,357.1z M431.2,356.9c-0.4-2.2,1-5.3-1.4-5.6
		c-0.8,1.4-0.6,3.7-0.7,5.8C430,357.2,430.6,357.1,431.2,356.9L431.2,356.9z M461.3,321.6c0.3-0.4-0.8-0.4-0.9-0.8
		c0.5-0.2,1.1-0.1,1.5-0.4c-3.1,0.1-6.1,0.9-9.5,1.2c-2.3,0.2-4.6-0.2-7.1,0c-10.5,0.8-21.6,1.2-30.4,1.2c-0.3-0.1-0.6,0.2-0.1,0.1
		C430.5,323.6,447.1,323.5,461.3,321.6L461.3,321.6z M468.5,330c-2.3,1.1-6.7,0.2-9.6,0.6c-0.2,0.1-0.4,0-0.4-0.1c0-0.1,0-0.2,0-0.3
		c0,0.1,0,0.2,0,0.3c-0.2,4.5-0.2,9.8-0.9,14.6c-0.7-1.9-0.5-5.5-0.5-8.4c-0.7,4.7-1,10.4-1.9,15.3c2.1-0.6,4.1-2.4,6-3.7
		c0.7,2.9-4.2,3.6-5.7,5.7c-0.6,0.8-0.8,2.2-0.7,3.7c-3.2,2.2-7.4,3.5-8.5,7.8c0,0.5,0.2,0.3,0.5,0.3c-1,2.6-2.7,0.2-1.9-1.9
		c1.2-3,5.4-5.5,7.9-6.6c-0.8-2.1,0.8-3.7,1.9-4.8c1-8.8,0.4-18.6,1.1-27.9c-0.5-0.2-1.7,0.1-2.6,0c-0.2,0.5-0.4,1.7-1.4,1.7
		c-0.7,0-1.1-0.5-1.1-1.6c-3.3,0.1-6.4,0.3-9.6,0.4c0.7,1.9,0.4,3.4,0.4,5.8c0.4,0.2,0.9,0.2,1.5,0.3c-0.2,0.4-1,0.1-1.4,0.4
		c-0.3,2.6,0.5,5.3,0.4,8.3c-0.3,8.1,0.3,17-0.4,23.9c-0.1,1.2-0.4,2.7-1.2,3.5c-0.6-2,0-4.3-0.3-5.7c-1.2-0.7-2.2,0.4-3.7,0.3
		c-0.9,1.1-1.7,1.8-3.3,1.8c-1.3,0-2.3-0.9-3.4-0.6c-1.4,0.4-1.4,1.7-2.6,2.5c-0.8,0.1-0.8-0.7-1.5-0.8c-2.8-0.1-4.6,1.8-4.9,4
		c-0.1,0.8,0.5,1.7-0.3,2.3c-4.1-2.7,0.8-9.3,5.4-7.2c0.6-0.9,1.5-1.5,2.3-2.2c0.2-1.7-0.2-2.9-1.1-3.5c-1.7,0-1.9,0.4-3.4,0.8
		c-0.3,0.7-0.2,2.3-0.7,2.8c-0.6-0.3-0.1-1.6-0.4-2.2c-1.4,0.3-2.5-2.4-0.1-2.2c-0.3-1.6,0.8-4.6-0.9-4.8c-0.4,1.7-0.4,3.6-0.8,5.3
		c-0.7-6,0.2-11.5,0.3-16.9c0.6,1.9,0.7,4.7,0.7,7.1c0,0.8-0.3,1.8,0.4,2.3c0.7-0.3,0.4-1.6,0.4-2.3c0.1-2.2,0.2-4.9,0.4-6.9
		c1.5,0.7,1.3,2.9,1.2,4.7c0,1.5-0.3,3.2-0.3,4.7c0.3,0.2,0.8,0.3,1.4,0.3c0.6-2-0.1-7.4,0.7-9.7c0.7-0.1,1,0.7,1.1,1.2
		c0.5,2.3-0.6,5.9-0.4,8.5c0.3,0.2,1,0.1,1.4,0.3c0.7-3,0.1-7.2,0.8-10.2c2.2,1.9,0.8,6.8,0.8,10.3c0.2,0.4,0.8,0.2,1.4,0.3
		c0.8-2.7,0-5.4,0.1-9.2c2.1,1,1.4,5.9,1.5,8.8c0.6,0.3,1.9,0,2.6,0.3c0.3-4.4,0-9.2,0.1-13.3c1.4,0.4,0.8,2.6,1.5,3.6
		c-0.2,5.7-0.3,11.4-1.5,16.9c-0.3-1.8,0.2-3.9,0-5.9c-0.6-0.1-1.9,0.2-2.6,0.4c-0.4,1.2-0.3,2.8-0.5,4.1c0.6,0.2,1.5,0.2,2.3,0.3
		c-0.1,0.9-1.9,0.3-2.4,0.8c-0.5,0.5,0,1.8-0.8,1.9c0-0.5,0-1,0-1.6c-0.5-0.2-1.3,0.4-2,0.4c-0.5,0.6-0.4,1.6-0.4,2.6
		c1.9,0.3,3.4,0.8,4.7,1.6c0.5-0.9,1-1.8,1.6-2.6c2-0.1,3.4-0.5,4.9,0.1c0.2-9.5,0.3-19,0.4-28.8c-6.3,0.4-13.3,0.3-19.8-0.4
		c1.2-1.6,5.3-0.8,9-0.6c3.5,0.1,7.2,0.3,10.9,0.3c-0.2-1.9,0.1-3.7-0.1-5.7c-1,0.1-1.9,0.2-3,0.1c-0.2,0.4,1,0.4,1.4,0.6
		c-0.3,0.5-0.6,0.9-1.1,1.3c-0.7,0.1-1.8,0-2.3-0.4c-0.2-0.4,0.1-1.1,0.1-1.7c-3.5,0-7,0-10.4,0c0.1,0.3,0.9,0,1.1,0.3
		c0.1,1.3-2.5,2.1-3.8,1c-0.3-0.3-0.1-0.9-0.1-1.4c-4.4,0.1-8.4-0.3-12.2-0.4c0.3,1,2.7,1.1,4.1,1.6c-1,1.4-4.1,0.9-5.4,0.1
		c-0.3-0.5-0.4-1.2,0-1.7c-7.4,0.1-15.3-1.8-23.2-1.4c-5.3,0.2-10.5-0.3-15.6-0.4c0.2,0.5,0.8,2.2-0.5,2.5c-1-0.1-0.9-1.7-0.5-2.5
		c-6-0.4-13-0.9-19.5-1.3c0,0.7,1.1,1.4,2.4,1.3c-0.1,1-1,1.2-1.8,1.6c-1.2-0.3-2.4-1.6-1.4-2.8c-3.1-0.2-6.6-0.4-9.1-0.5
		c0.2,3.8-0.2,7.5,0,11.8c13.2-0.1,25.1-0.3,38.5-0.6c0.8-2-0.2-5.7,0.5-7.8c1.3,1.8,1.1,5.1,0.7,7.6c0.3,0.3,1.2-0.1,1.4,0.1
		c0.4-2.6,0.2-5.6,0.1-8.1c2.8,0.7,0.9,6.6,1.5,7.9c3.2,0.3,6.1-0.1,9,0c0.6-2.3-0.3-5.4,0.4-7.8c2.6,0.8,0.7,5.3,1.8,7.8
		c0.5-0.2,1,0,1.6-0.3c0-2-0.5-4.7,0.1-6.5c1.3,1.4,1,4.3,1.4,6.6c5.9,0.1,9.9-0.4,15.5,0.1c-0.3,0.5-1.1,0.7-1.6,0.8
		c-4,0.6-10.1,0.1-14,0.8c0,0.3,0,0.6,0,0.9c3,0.4,7-0.2,9.8,0.4c-1.8,0.6-4.2,0.5-6.2,0.8c-0.2,6.9-0.2,12.9-0.1,21.5
		c5.3-0.6,10.9-1,16.4-0.9c-0.2,2.3-3.4,1.4-5.6,1.4c-2.1,0-4.1,0.1-5.4,0.1c0.4,0.3,1.2,0.2,1.2,0.8c0,0.8-1,1.6-0.9,2.8
		c0.4,0,0.8,0,0.9-0.1c0.1-0.5,0.1-2.1,0.5-3c0.9,0.1,1.5,0.4,1.9,0.9c-0.1,0.8-0.7,1.1-0.8,1.8c0.2,0.3,0.9,0,1.4,0.1
		c0.3-0.7,0.3-1.8,0.3-2.8c1.7,0.1,2.3,1.6,1.4,2.8c1.1,0.3,2.4,0.4,3,1.2c-5.2,0.4-9.8,1.2-15.3,1.3c-0.4-3.1-0.3-6.8-0.3-10.9
		c-0.6-0.2-1.3-0.2-1.8-0.5c-0.3,7.7-0.3,13.6,0.1,20.9c2.3-0.1,3.6-1.1,5.4-0.6c-0.7,1.6-2.9,3-2.4,4.9c-1.6,0.5-1.3-2.1-0.7-2.8
		c-0.9,0.1-1.4-0.1-2.2-0.1c0,1.9-1.1,3.2-1.1,4.7c-0.9,0.5-1.7,0.4-2.3-0.4c1.3-1.4,1.6-2.3,1.5-5.2c-0.3-6.8-0.5-13.6-0.3-19.5
		c0.2-6,0-12,0-18.2c-0.5,0-0.9,0-1.4,0c-0.5,4.6,0.3,8.6,0.1,13.1c0,0.6,0.9,0.3,0.9,0.9c-1.1-0.3-0.8,0.7-0.8,1.4
		c0.2,0.2,0.5,0.3,0.9,0.3c-0.1,0.5-0.8,0.4-1.1,0.6c0.3,0.9,0.3,1.7,0.8,2.1c-0.9,1.1-0.3,3.7-0.4,5.8c-0.1,2.2-0.3,4.6-0.4,6.7
		c0,1.3,0.2,2.5,0,3.5c-0.2,1-0.4,2.2-1.2,2.7c-0.8-5.7,0.2-12.2-0.3-18c-1.4-0.1-4.5,0-5.6,0.3c0.2-2.3,3.4-1.5,5.7-1.6
		c0-0.6-0.1-1-0.3-1.4c-0.7,0.1-1.9-0.3-1.8,0.5c-0.2-0.9-1.8-0.4-2.6-0.8c-0.5,0.3,0,0.6-0.1,1.2c-0.3,0-0.5-0.2-0.9-0.1
		c-0.6,1.9-1.4,3.5-2.6,4.9c3.1,0.5,5.5,1.6,7.7,2.8c-2.8-0.2-5.2-0.6-7.7-1c-0.7-0.1-1.6-0.2-2-0.6c-0.5,0.8,0,2.6-0.5,3.4
		c-1.3-0.7-0.5-1.9-0.5-2.8c0-4.6,0.2-9.8,0-14.9c-0.1-2.9,0-5.8,0.1-8.5c-0.4,0-0.7,0-1.1,0c-0.1,6.7,0.1,12.8,0.1,19.1
		c0,2.6,0.8,6.3-1.2,7.6c-0.5-0.9,0-2.8-0.1-4.3c-4-0.5-7-1.3-11-1.8c-0.6,0.5-0.4,1.1-1.1,1.2c-1.3,0.2-0.7-1.7-2-1.6
		c1.2,2.8-0.7,5.8-0.5,9.2c3.9-0.4,9.8-0.8,14.4-1.2c0.4-0.1,0.2-0.8,0.5-0.9c3.5,1.1,6.8,0.3,10.3,1.3c-8,1.4-16.3,1.6-24.1,2.7
		c-2.9,0.4-6,0.3-9,0.8c-3.6,0.6-8.1,0.6-12.3,0.9c0.8-0.8,1.9-1.3,3.3-1.6c-0.4-1.7,0-3.7,0-5.6c0.8,0.2,1.3-0.1,1.9,0.4
		c0.2,1.6-0.7,3.2-0.5,5.2c2,0.1,2.9-0.6,4.9-0.5c0.6-1.6,0.1-3.8,0-5.6c3.2-0.5,2.4,3.7,1.6,5.3c1.6-0.1,2.9-0.5,4.2-0.5
		c0.2-0.3,0.2-1.3,0-1.6c-0.3-0.1-1.1,1-1.6,0.6c-0.5-0.4,0.1-1.4,0-2.2c-0.1-0.7-0.6-0.9-0.4-1.3c1.1-0.1,1.8,0.1,2,0.8
		c0.2-0.5,0.2-1.2,0.3-1.8c-6.1,0-12.3,1.7-17.9,0.4c5.6-0.9,12.4-1.4,18-1.9c0.6-6.2-0.2-15.2,0.4-22c1.1,1.4,1,3.6,0.9,6.3
		c0,3.6,0,8.2,0.1,11.4c0.1,1.6,0.1,2.8-0.9,3.9c1.6,1.7,0.1,4.8-0.3,7c0.8,0.4,1.8-0.3,2.8-0.1c0.8-8.7-0.6-19.6,0.8-29.4
		c-8.1,0.1-15.8,0.1-23.7,0.4c-0.1,3.8,0.4,9.2,0.1,14.4c-0.1,2.7,0,5.6-0.5,7.1c-0.3,0.7-1.1,1.2-1.5,1.6c0.1-8,0.5-15.6,0-23
		c-0.3,0-0.5,0-0.8,0c-0.8,5.8-0.1,12.9-0.4,19.3c-0.1,1.7-0.3,4-1.1,5c0.6,0.4,1.7,0.3,2.3,0.6c-0.5,1.4-2.2,0.8-3.9,0.3
		c-1-0.3-2.1-0.7-2.4-1.2c1.4-0.1,2.3,0.2,3.5,0.3c-0.2-7.1-0.3-16.2,0-24c-0.9-0.3-2.4,0-3.5-0.1c0.2,9.3-0.4,18-0.3,27.3
		c3,0.5,5.9,0.7,8.4,1.4c-2.3,1.6-5.9-0.5-8.3-1.2c-0.6,0.6,0,2.1-0.3,2.7c2.9,0.6,6.3,0.9,9,1.8c-0.2,0.4-0.4,0.9-0.7,1.2
		c-3-0.5-5.5-1.3-8.1-2.1c-0.3,0.9,0,2.3-0.1,3.4c1,0.6,2.6,0.6,3.9,0.8c0.1-0.5-0.1-2.1,0.3-2.7c0.6,0.1,1.1,0.3,1.5,0.5
		c-0.2,0.9-0.4,1.5-0.4,2.3c1.4,0.7,3.5,0.6,5,1.2c-0.1,0.5-0.3,0.8-0.5,1.2c-1.6-0.2-2.9-0.5-4.3-0.8c1,0.9,0.6,3.9,0.4,5.8
		c1.1,0.5,2.6,0.7,4.1,0.9c0.1-1.9,0-4,0.1-5.7c2.1,1.1,0.6,4.4,0.7,6.6c0.7-0.1,0-0.9,0.5-1.2c1.2,0.6,3.1,0.7,4.1-0.3
		c6.3-0.5,12.6-2.2,19.3-3c4.8-0.5,11.5-2.5,14.9-1.1c-0.5,0.6-3.6,1.4-4.7,1.5c-3.4,0.3-7.2,1-11,1.4c-3.6,0.4-7.1,1-10.6,1.6
		c-3,0.5-5.7,0.6-9,0.8c-3.2,2.7-11.8-1.1-11.5-1.2c-1-0.6-2.2-1-3.4-1.4c0.1,0.8,1.4,1.2,0.5,2.2c-6-0.1-9.8-3.5-14.5-5.3
		c1.2-0.3,2.4,0.5,3.7,0.5c-0.1-2.1-1.8-3.3-4.1-3.6c-1.9-0.2-3.9,0.7-4.9-0.5c-0.2-0.8,0.4-0.9,0.5-1.4c3.1-0.7,5.4,0.2,7.5,2.1
		c1.3,1.2,2.6,1.9,2.8,4c1.6,0.5,3.1,1,4.9,1.3c0.3,0.3,0,0.5,0,0.9c0.9,0.2,1.8,0.4,2.8,0.5c0.3-1.6-0.1-4.7-0.1-6.7
		c-0.4-0.2-0.8-0.3-1.2-0.4c-0.5,2.1,0.3,4.5-0.5,5.9c-0.8-1.4-0.4-3.9-0.5-5.9c-0.7-0.3-1.4-0.9-2.2-0.9c-0.5,0-0.9,0.4-1.5,0.4
		c-1.9,0-4.1-0.9-6.1-1.6c-2-0.6-4-1.2-5.6-1.9c-0.4,0.2-0.4,0.8-0.8,0.9c-0.6-0.1-1-0.5-1.5-0.8c0.4-0.8-0.4-1.3-0.5-2.1
		c-0.1-0.5,0.2-1,0.1-1.6c-0.4-2.9-3.3-2.6-5.4-4.1c0.6-1,2-0.6,2.8-0.3c0.4-7-0.4-15.4-0.1-21.7c-0.5-0.2-1.8-0.2-2.3,0
		c-0.1,5,0.3,12.3,0,18c-0.9-0.2-0.9-1.3-0.9-1.9c-0.5-5.2,0.4-10.5-0.3-16c-2.1,0-4,0.2-6,0.3c-0.6,6.6,0.5,12.1-1.1,17.6
		c2.6,1.1,6.2,1.2,8.5,2.5c-0.5,1.1-2.6,0-3.4,0.4c-0.5,0-0.4-0.4-0.7-0.5c-0.4-0.2-3.3-0.9-3.9-0.9c-1.6,0.1-4.2,2.4-5,0.8
		c-0.4-0.8,0.7-1.3,1.6-1.6c-1.1-0.7-2.8-0.9-4.2-1.3c2.1-0.3,4.3,0.3,6.1,0.6c0.7-5.9,0.5-11.6,0.4-17.5c-1-0.1-0.7,1.1-0.7,1.6
		c-0.1,2,0.2,4.5,0.1,7c0,2.2,0,4.7-0.3,6.5c-0.1,0.5-0.3,1.5-0.9,1.3c-0.9-1-0.3-2.5-0.3-3.6c0-4.3,0-8.5,0-12.5
		c-1.4-0.1-3.6,0.1-5.2,0.3c-0.7,4.9,1.2,12.1-1.1,15.9c0.3-5.3-0.1-10.8-0.3-15.8c-0.6,0.1-1.5-0.1-1.9,0.1
		c-0.2,6.1,0.6,14-0.3,20.2c1.8-0.7,5.2-1.5,6,0.3c-0.4,0.9-1.4,0.1-2,0.1c-3.3,0.1-7.3,3.7-9.1,5.9c-5.1,0.7-5.6,5.7-6.8,10.1
		c-0.5,0-0.5-0.5-1.1-0.4c-2.3,0.8-1.3,4.8-0.9,7c2.9-1.3,5.6-2.9,9.8-3c0.6-2.2,5.7-2,5.6,0.5c-0.9-0.1-2.3-1.1-3.5-0.1
		c-0.5,0.4,0.6,0.4,0.1,0.8c-6.6,0.5-12.7,2.6-14.1,8.5c-0.4,0.3-1,0.5-0.8,1c-0.6-0.1-0.7-0.7-0.8-1.3c-0.6-0.4-1.7-0.5-1.8-1.4
		c0.4-0.6,1.2,0.4,1.8,0.5c0.5-0.8,0.5-1.3,0.9-2.2c0.4-0.7,1.6-1.6,1.8-2.5c0.1-0.9-0.6-2.2-0.7-3.4c-0.3-3-0.4-6.1,3.4-6.2
		c1-1.7,0.7-3.8,1.5-5.4c0.9-1.9,2.8-3,4.2-4.3c-1.6-0.6-3.2-1.2-5-1.6c0.2,0.5,0.7,2.5-0.8,2.5c0-1.1-0.2-1.3-0.1-2.6
		c-1.2-0.6-2.6-0.9-3.9-1.4c0.2,0.3,1,2.7,0,3.1c-1-0.4-0.9-1.9-0.9-3.2c-0.2-0.7-1.4-0.4-1.2-1.6c3.5,0.4,8,1.8,11.3,3.2
		c0.1,0.6,0.5,0.8,0.8,1.2c1-0.7,1.9-1.7,3.1-2.2c-0.8-0.3-1.7-0.8-1.1-1.8c0.6,0.2,1.4,1,1.2,1.6c0.8-0.3,1.4-0.7,2-1.2
		c-0.1-0.9,0.2-1.5,0.1-2.3c-4.8,0.4-10.7,0.2-16.3-0.1c6.5-1.7,13.3-0.9,16.3-0.5c0.7-5.6-0.2-13,0.3-18c-0.4-0.6-1.7-0.1-2.8-0.3
		c-0.6,3.3,0.3,7.9-0.1,11c-0.1,0.8-0.4,1.9-1.2,2.1c-0.2-4-0.2-7.6-0.3-12.7c-0.4-0.3-1.3-0.3-2-0.3c1.2,2,1,4.6,0.9,7.2
		c-0.1,2.1,0.7,4.3,0,6.2c-3.7,1.1-9.5,1.7-14.5,1.6c-0.3,2.5-0.3,5.1-0.3,8.1c0.1,0.5-0.4,0.5-0.5,0.8c0.9,0.4,2.1,0.6,2.6,1.4
		c-3.2-0.3-7.2-1-11.3-0.6c0,0.9,1.4,1.7,2,2.5c0,1.1,0.9,1.8,0.9,2.8c0,1.5-1.1,2.9-1.8,4c0.4,0.5,0.6,1.7,0,2.1
		c1.2,0.9,1.4,2.7,2.6,3.6c-1.6,0-2.8-1.4-3-3.1c-1.7,0.3-1.9-0.9-2.8-1.3c2.7-1.5,4.8-7.5,1.1-9.3c-0.1-1.5-2.1-1.1-1.9-2.8
		c3.6,0.2,7.3-0.5,11.1,0.6c-1-2-0.2-6.4-0.3-8.8c-1.5-0.4-3.5-0.6-5.4-0.4c-0.6,0.8-0.4,2.3-0.8,3.2c-1.1-3.4-0.2-8.7-0.7-12
		c-0.7-0.3-1.8,0-2.3,0.3c0.4,1-0.5,2.9,0.7,2.8c-1,0.1-0.5,1.6-0.8,2.3c0.3,0.5,1.3-0.2,1.5,0.1c0.1,0.2,0.2,0.4,0.4,0.5
		c-0.6,1.2-2.4,1-3.9,0.9c-1.2-0.1-2.8-0.7-3.9-0.8c1.4-0.7,4-0.3,5.7-0.6c0.1-0.5-0.1-1.7-0.4-2.2c-1.1,0.2-2.6,0.1-2.8,1.2
		c-0.6-0.7-2.8-0.5-2.7-1.6c0.2-0.8,1.2-0.4,2-0.4c0.3-0.5,0.1-1.5,0-2.1c-0.6,0-1.3-0.1-1.8,0.1c-0.2,0.9-0.5,1.7-0.5,2.8
		c-0.4-0.8,0.1-1.8-0.1-2.6c-0.2-0.7-1-0.7-0.9-1.4c0.1-0.7,1.3-0.4,1.1-1.4c0-0.7-1.3-0.1-1.2-0.9c0.2-0.3,1,0,1.2-0.3
		c0.3-0.8-0.6-1.9,0.3-2.1c1,0.1,0.2,1.1,0.4,2.1c0.3,0.2,1.1,0.1,1.6,0.1c0.3-0.8,0.2-1.7,0.1-2.5c-1.8-0.4-3.8,0.1-5.8,0
		c1.5,3.4,0.6,9.6,0.8,14c0.1,1.5,0.6,3.1-0.5,4.1c-1.8-0.2-0.8-2.3-0.8-3.4c0-2.7,0-5.9,0.1-9.1c0.1-2-0.2-3.8-0.3-5.6
		c-0.4-0.3-1.2-0.1-1.8-0.1c-0.2,2-0.1,4.1-0.1,6.6c0,2-0.1,4.6,0,6.6c0,0.9,0.5,2-0.5,2.5c-1.4-1.4-0.8-4-0.8-5.8
		c0-3.1-0.3-6.3-0.1-9.6c-13.5-0.4-27.7,1-39.7,0c0-0.6,1.1-0.2,1.5-0.5c-0.3-1.5,0.5-2.5,0.1-4.3c1.7,0.7,1.1,2.8,0.9,4.1
		c12.4,0.1,24.5-0.4,37.2-0.9c0-0.4,0.2-0.3,0-0.5c-9.8-0.2-21.5-0.2-30.8,0.3c-1.1,0-2.2,0.7-2.2-1c9.7-0.5,22.1-0.2,33-0.6
		c-0.1-1.2,0.1-2.1-0.1-3.1c-10.3,0.3-21.9,1-33.1,0.5c-4.1-0.2-8.4,0.2-12.3-0.1c0.4-1.4,2.7-1,4.5-1c11.7-0.5,24-0.1,35.5,0
		c3.6,0,7.2-0.5,10.3-0.3c-0.1,0.2-0.6,0.1-0.8,0.3c0.8,0.8,1.7,1.7,1.4,3.6c6.2,0.2,11.9-0.2,18.6-0.1c0.3-1.3,0-2.7,0.1-4
		c1.4,0.3,1.2,2.3,1.2,3.9c1.8,0.1,4.5,0,6.8,0c0.7-1.2-0.1-3.5,0.1-4.7c0.5,0.1,0.9,0.3,1.4,0.5c0.3,1.2-0.1,2.6-0.1,3.9
		c2,0.3,4.7,0,6.9,0.1c0.6-1.1,0.1-3.2,0.4-4.5c-0.3-0.6-1-0.9-1.1-1.8c-1.1-0.1-1.9,0-3.3,0c0.1,0.6,0.9,0.4,0.9,1
		c-0.9,0.7-2.9,0.4-3.1-0.8c-1.2,0.1-1.9-0.2-2.7,0.1c-1.1,0.5-1.5,2.2-3.5,1.4c-0.4-0.3-0.4-1-0.8-1.3c-1.2,0.2-2.9,0.1-4.2,0.1
		c0.6,0.1,1.2,1,0.9,1.4c-0.5,0.5-1.4,0.4-2.6,0.5c-0.4-0.5-0.8-1-0.8-1.8c-0.9,0.2-2.6,0.3-3.3-0.1c-0.1,0.2,1,0.9,0.3,1.4
		c-1.2,0.1-1.5-0.7-1.9-1.4c-3.7-0.4-8.3,0.3-13.3,0.6c-6.9,0.4-11.5,0.1-17.6,0.3c-1.6,0-3.2,0.2-4.9,0.1
		c-4.9-0.3-9.7-0.3-14.4-0.3c-5.1,0-9.2-0.1-13.3,0.1c-0.7,0.3-0.9,1-1.5,1.4c-0.4-0.4,0.2-1.1,0.1-1.7c-3.6-0.2-7.6-0.2-10.6-1
		c0,0.8-0.3,2.1,0.3,2.8c-2.4-1.1-3.2-3.7-5.4-4.9c0.6-0.7,5.2-1.8,7.3-2.5c2-0.6,4.2-1.2,6.1-1.8c4.6-1.5,8.8-3.8,13.4-5.6
		c3.5-1.3,7-2.8,10.2-4.4c3.3-1.7,6.6-3,9.9-4.7c3.3-1.7,6.7-3,10-4.5c-0.2,0.6-0.1,1.5-0.3,2.1c-0.7,0.8-1.7,1.1-3,1.6
		c-2.8,1.1-5.5,2.6-8.4,4.1c-1.4,0.7-2.9,1.2-4.5,1.8c-1.4,0.6-2.7,1.4-4.1,2.1c-2.7,1.3-5.6,2.7-8.5,3.9c-3,1.2-6.2,2.8-9.1,3.4
		c-1.2,0.2-12.5,3.7-14.7,4.4c8.8,1.7,18.9,1.4,28.4,1.4c15.6,0,30.4,0.7,44.1-0.3c0.5-0.2,0,0.6,0.5,0.4
		c10.9-1.1,22.4-3.1,33.5-4.9c10.7-1.7,20.6-4.5,29.6-7.5c0.9-0.3,1.9-0.7,2.6-1.4c3-0.1,11,1,12.1,1c1.8,0.1,3.3,0.5,5.6,0.6
		c4.6,0.3,9.4,1.1,14.1,1.3c3.3,0.1,5.5,0.6,8.8,0.8c17.7,1.1,31,1.4,34.3,1.6c3.7,0.2,7.6,0,11.3,0.3c1.8,0.1,3.6,0.5,5.4,0.4
		c2.1-0.1,4,0.1,6,0.1c2.3,0.1,4.6-0.3,6.8-0.3c12.4,0.4,24.5-1,36.6-1.6c-14.2-4.3-27.8-10-41.9-14.6c-4.3-1.4-17.5-5.5-19.9-6.1
		c-4.6-1.2-9-2.9-13.4-4.4c-4.5-1.5-8.8-3.3-13.4-4.5c-4.6-1.2-12.2-3.1-14.8-5c0.3-0.4-0.1-1.7-0.4-2.3c-0.3-0.5-1.2-0.8-0.8-2.1
		c-0.3-1.2-2.5-0.5-2.6-1.9c1.6-1,4,1.2,4.5,2.6c0,0.6-0.5,0.6-0.5,1.2c0.6,1.1,2.3,1.2,2.6,2.6c2.6,0.8,4.9,2,8,2.3
		c-0.1-2.9,0.3-7.2,0-9.8c1.2-0.1,1.2,0.9,1.8,1.4c-0.1,3-0.8,5.4-1.1,8.3c0.9,0.9,2.7,0.8,4.1,1.2c-0.5-3.4-0.4-9.1-0.4-12.9
		c-9.7-1-20.9-2.7-31.1-4c0.6,0.9,1.1,1.8,1.1,3.6c0,3.3-0.3,7-1.1,9.6c2.2-0.7,4.7-1.8,7.5-1.6c-1.4,2-5.7,1.3-7.2,3.2
		c-1.3-0.6-0.5-2.3-0.5-3.6c0-3.6-0.3-8.2-0.5-11.4c-2-0.7-8-1.6-9.1-1.7c-7.7-0.6-15.7-1.7-23.7-2.6c-6.4-0.7-12.4-1.4-18.6-2.1
		c0.4-1.7,2.9-1,4.5-0.9c1.7,0.1,3.5,0.3,5.3,0.5c4.8,0.5,10.2,0.6,14.9,1.4c1.5,0.3,5.2,0.8,5.8,0.9c0.9,0.1,4.9,0.9,6.1,1
		c3,0.5,17.7,2.7,21.8,3.4c2.6,0.4,19.6,2.1,24.7,3.2c0.5-0.1,0-0.6,0.3-0.8c0.8,0.7,1.4,1.6,2.8,1.8c-0.5,0.4-1.2-0.1-1.8,0
		c-0.1,2.3-0.2,5.9,0,8.2c0.2,2.5,0,3.6,0.5,5.2c3.6,0.9,5.7,1.9,9,3.1c-0.7-5.2-0.7-12.1-0.4-16.3c2.3,0.4,1.2,3.4,1.6,5.6
		c5.3-0.4,10.4,1.1,15.3,0.9c-0.3,1.7,0.6,2.7,0.7,4.5c0.7,0.2,1.6,0.3,2.6,0.3c-1-3.5-3.3-5.7-4.7-8.8c-0.8,0.1-1.5-0.1-2.7,0.1
		c0.5-0.6,1.3-0.9,2-1.3c-0.2-0.5-0.3-0.9,0-1.4c0.2,0.4,0.2,0.9,0.7,1c3.8-1.9,7.9-3.6,11.9-5.3c-5.9-1-12.8-1.2-18.7-2.2
		c0.9,1.3,1.9,2.5,2.7,3.9c-1.8-0.5-3.4-1.8-5-2.8c-1.6-1-3.8-1.8-4.5-3.6c0.8,0,2.7-0.1,3.4,0.6c4-0.3,9.3,0.8,13.2,1
		c-15.3-5.1-31.8-9.1-46.4-14.9c2-1.3,3.8-0.2,6.1,0.3c2.4,0.5,4.8,1.7,7.3,2.5c6,1.9,12.5,3.8,18.7,5.7c7.2,2.2,15.4,4.8,22.4,7
		c0.4,0.2,4,1.5,4.5,1.7c0.4,0.2,2.5,0.9,3.1,1.3c-1.7-0.4-2.2-0.4-4.2-0.3c-0.4,1.5-2.4,1.5-4.2,2.3c-2.9,1.4-6.3,2.7-9.4,4
		c1.6,2.8,3.4,5.5,4.2,9.1c0.3,0.3,1.1,0.1,1.5,0.4c-0.2,0.6-0.3,1.3-0.7,1.7c-0.8-1-3.3-0.4-4.6-0.9c0.6,2.3,0.9,7.2-0.4,9.4
		c-0.3-2.3-0.4-5-0.7-7.9c-0.1-0.7,0.1-1.9-1.1-1.8c-0.1,1.2,0.3,3-1.1,3.4c0-1.2,0.4-2.1,0.3-3.4c-2.2-0.4-3.9-0.7-5.6-1
		c0.5-1-1-2.2-1.1-3.5c0.7,0.1,1.2-0.3,1.8,0c0.3,0.9,0.3,2,0.4,3.1c2.2,0.3,4.9,0.1,7.3,0.4c-0.7-1-0.8-3.5-3.3-3.2
		c0.3,1,0.7,1.9-0.1,2.6c-1-0.5-1.1-2-2.2-2.5c0-0.2,0.4-0.1,0.4-0.4c-3.5-0.2-6-2.3-9.6-1.6c0.8,2,2.6,3.2,2.3,6.3
		c-1.1-1-1.4-2.8-2.4-3.9c-0.7,2.2,0.2,6.3-0.5,8.1c3.8,1.4,7.8,2.8,11.7,4.3c1.3,0.5,2.8,0.8,3.9,1.3c0.4,0.2,3.1,0.9,4.1,1
		c1.3,0.2,2.8,0.7,4.1,1.2c2.5,1,17,5.5,22,7.2c5,1.7,10,3.3,14.9,5.2c5.1,2,11,4.4,16.8,5.8c0.4,0.8,1.9,0.6,2.3,1.4
		c0.7-0.1,2,0.3,1.5,0.6c0.5,0.2,1.5-0.1,1.4,0.8c0.5,0,1-0.3,1.2,0.1c0.6,2.9-6.1,2.2-8.3,3.1c-0.3,0.8,0.1,2.1,0.4,3
		c0.4-0.1-0.1-1.1,0.3-1.2c1.4,0.1,0.9,2.1,1.2,3.2C460.6,328.4,465.5,329.3,468.5,330L468.5,330z"/>
	<path class="st14" d="M461.1,427.9c0.3,0.8,1.1,0.9,0.9,1.7c-3.5,0.2-2.3-5.3-3.3-8C461.3,422.1,460.4,425.6,461.1,427.9
		L461.1,427.9z"/>
	<path class="st14" d="M460.5,374.6c0.5,0.4,1.5,2.1,0.5,2.8c-0.5-0.8-0.3-2.2-1.1-2.7c-3.9-0.5-6.5,0.9-8.8,2.8
		c-2.2,1.8-3.7,3.5-4.6,6.2c-0.6,0.1-1-0.1-1.4-0.3c-1-3.8,5.2-8.5,9-9.4C456.4,373.5,459.3,373.6,460.5,374.6L460.5,374.6z"/>
	<path class="st14" d="M454.3,299.1c1.7,0.4,4.5,1.9,4.2,4.3c-0.2,1.2-1.3,2.4-2.4,3c0-2.1,1.1-3.3,0.1-4.8
		C455.7,300.8,453.6,300.7,454.3,299.1L454.3,299.1z"/>
	<path class="st14" d="M456.3,423.9c0.6,0.2,1.3,0.3,2.2,0.3c-0.1,0.4-0.7,0.4-1.1,0.6c0.4,0.9-0.1,1.4-0.5,1.8
		c-0.6,0.1-1.1-0.4-1.5-0.9c-2.3,0.5-5,1.5-7.7,1.4c-2,0-3.7-1.1-5.4-1.4c-0.2-0.5-0.8-1.2-0.4-1.8c2.4,0.6,4.8,1.5,7.9,1.2
		c1.7-0.2,3.5-0.7,5.2-0.8c-0.4-1.2-0.4-2.8-1.1-4.3c-0.5-1-2.3-1.3-1.6-2.7C454.8,418.2,455.7,420.9,456.3,423.9L456.3,423.9z"/>
	<path class="st14" d="M458.6,246.7c-1.1,0.7-3.2-0.8-2.3-1.9C457.1,245.4,458.3,245.7,458.6,246.7L458.6,246.7z"/>
	<path class="st14" d="M458,311.2c-0.3,0.6-1,1.1-1.6,1.6c-1.3,1-2.6,1.8-4.5,1.7c0.4-2.5,2.9-3,4.1-4.8
		C456.6,310.2,457.5,310.5,458,311.2L458,311.2z"/>
	<path class="st14" d="M455.6,240.3c0.1,0.4-0.4,0.3-0.4,0.6c-0.9,0-1.4-0.4-1.5-1.2c-0.6,0.3-1.4,0.3-2,0c-2.1-2.4-1.2-7.2,1.8-8
		c-0.7-2.3-3.6-3.8-5-5.6c-0.2-0.2-0.5-0.6-0.3-1c3.7,1.5,5.7,4.5,7.3,7.9c-0.5-0.4-0.3,0.2-0.7,0.4c-0.9,0.5-2.4,0.7-2.7,1.8
		c-0.3,1.1,0.1,2.6,0.5,3.7c0.3,0,0.5,0,0.8,0c0.3,0.2-0.1,0.2,0,0.6c0.3-0.3,0.2-0.8,0.7-0.9C454.8,239.1,455.2,239.7,455.6,240.3
		L455.6,240.3z"/>
	<path class="st14" d="M454.4,291.9c-1.7,0.3-1.8-2.1-3-2.7c-1.9,0.1-2.5,0.5-4.2,0.1c-0.7-3.3-3.2-5.5-7.1-5.7
		c-1.7-0.1-3.7,0.2-4.9,1.3c-0.3,0.8,0.1,2.3-0.8,3c-1,0.1-1.3-0.4-1.5-1c-0.7,0.5-1.1,1.3-1.8,1.8c-3.1-1.3,0.8-3.9,1.9-4.9
		c-0.4-2.1-1-3.8-2.2-5.2c-0.6-0.7-1.8-1-1.9-2.1c0.1-0.6,0.6-0.7,0.7-1.3c-0.8-1.7-3.9-3.1-2.7-5.4c1.5,1.6,2.4,3.8,3.8,5.4
		c-0.1,0.5-0.5,0.8-0.9,1c2.7,1.1,4.2,3.5,5,6.5c6-1.1,11.7,0.6,13.2,5c2.1-0.7,3.1,0.7,4.7,0.9c0.5,0.5,0.7,1.3,1.2,1.8
		C454.3,291.1,453.5,291.6,454.4,291.9L454.4,291.9z"/>
	<path class="st14" d="M452,331.4c-2.3,0.8-4,0.3-6.6,0.4c-1.3,1.8-0.1,3.8,0,5.9c0.1,3.6-0.3,7.3-0.4,11.1c0,0.8,0.2,1.7,0.1,2.5
		c-0.2,3-0.5,5.8-0.5,9.1c0,2,0.4,4.1-1.2,5.6c-0.8-4.5-0.3-9.5,0.1-14.6c0.4-3.9,0.1-8.3,0.3-12.4c0.2-3.7,0-8.7,0.3-12.9
		c1.4,0.5,1.1,2.5,1.2,4.1C447.3,330.2,450.8,330.1,452,331.4L452,331.4z"/>
	<path class="st14" d="M448.3,416.6c0.2,0.1,0,0.1-0.1,0.1c-1.5-0.3-4,0.4-6.6,0.5c-1.7,0.1-4.1,0.4-4.6-1.2
		C440.3,415.3,445.4,415.3,448.3,416.6L448.3,416.6z"/>
	<g>
		<defs>
			<rect id="SVGID_5_" x="146.7" y="219.4" width="352.9" height="228.7"/>
		</defs>
		<clipPath id="SVGID_6_">
			<use xlink:href="#SVGID_5_"  style="overflow:visible;"/>
		</clipPath>
		<path class="st15" d="M449,374.1c-0.4,0.4-1.3,0.3-2,0.4c-0.6-0.4-1.1-1-1.9-1.3C446.1,371.8,448.8,373.2,449,374.1L449,374.1z"/>
		<path class="st15" d="M447.9,220.9c0.4,1.1,0.4,1.9-0.5,2.5c0-0.8-0.2-1.5-0.5-1.9c-1-0.1-1.7,0.2-2.7,0.1c-0.4-0.4-0.9-0.5-0.9-1
			C443,218.1,447.2,220.4,447.9,220.9L447.9,220.9z"/>
	</g>
	<path class="st14" d="M443.2,370.5c1.8,0.5,0.4,3-1.2,2.8c0-0.8,0.6-1.2-0.1-1.7c-3.2,1.5-8.7,1.3-12.2,3c-0.7,0.3-1.4,0.8-1.9,1.2
		c-0.5,0.4-1.4,1.4-2,1.3c-1-0.2-0.8-1.6-0.5-2.2c3.9-2.5,10.1-4.2,16.4-3.5c0.5,0,0.5,0.5,0.8,0.6
		C442.8,371.7,443.2,371.3,443.2,370.5L443.2,370.5z"/>
	<path class="st14" d="M435.4,222.3c2.6-0.8,6.2,0.4,5.2,3c-1.3,0.2-1.3-0.9-1.6-1.7c-0.8-0.1-1,0-1.9,0c-0.6,1.1-0.9,2.4-2.2,2.7
		c-0.3-0.2-0.8-0.3-0.7-0.9c-3.7,2-5.2,6.5-6,10.9c-1.5,0-1.3-1.7-1.9-2.6c0.5-3,3.2-7.6,6.1-9.1c0.6-0.3,1.4-0.5,2.2-0.3
		C435.3,224.1,435.2,223,435.4,222.3L435.4,222.3z"/>
	<path class="st14" d="M438.4,405.5c0.5,0.1,0.5-0.2,0.9-0.1c-0.6,0.5-1.4,1.5-2.3,1.3c-2.3-0.5,1.2-4.3,2.2-4.8
		C440.8,403.1,439.5,404.7,438.4,405.5L438.4,405.5z"/>
	<path class="st14" d="M439,387.1c-0.3,0.3-0.8,1.4-1.4,1.9c-0.3,2-1.2,3.4-1.8,5.6c-0.3,1.2-0.1,2.3-1.1,3.1
		c-1.2,0-1.4-1.5-1.4-2.3c0.1-1.8,2.5-6.2,4.1-7.5C438,387.5,438.6,387.3,439,387.1L439,387.1z"/>
	<path class="st14" d="M435.8,416.5c0.5,2.5-2.7,3.1-2.8,5.8c-0.6-0.4-0.7-1-0.5-1.8c-2.2-0.8-5.1-1.7-7.7-2.1
		c-1.4-0.2-3.1-0.1-3.8-1.4c4.8,0,8.6,1,11.5,2.8C433.5,418.7,434.1,416.5,435.8,416.5L435.8,416.5z"/>
	<path class="st14" d="M435.4,400.1c0.7,0.1,1.1,0.5,1.5,0.9c-0.8,1.3-2.3,2-2.7,3.6c-1.4,0.2-1.6-1.5-1.1-2.5
		c-0.4-0.8-1.6-3.9,0.3-4.1c0,1.1,1,1.3,0.7,2.7C434.5,401,434.9,400.1,435.4,400.1L435.4,400.1z"/>
	<path class="st14" d="M434.2,340.6c0.7,2.8,0.2,5.3-0.5,8.1c-0.3-2.1-0.1-5.6-0.1-8.4C434,340.2,433.8,340.7,434.2,340.6
		L434.2,340.6z"/>
	<path class="st14" d="M432.6,337.1c0.7,0.3,1.6,0.4,1.6,1.3C433.4,339,432.6,338.1,432.6,337.1L432.6,337.1z"/>
	<path class="st14" d="M427.6,337.8c0.6-1,2.3-0.2,2.2,1C428.6,339.3,428,338.3,427.6,337.8L427.6,337.8z"/>
	<path class="st14" d="M428.8,423.9c0.3,0.5,0.9,1.2,0.5,1.9c-1.2,0.2-2.4,0.2-3-0.5C427,424.7,427.8,424.1,428.8,423.9L428.8,423.9
		z"/>
	<path class="st14" d="M429.6,261.9c-0.1,0.7-0.2,1.3-0.5,1.8c-1.1,0.2-2,0.6-2.8,1c0.4-1.5,1.5-2.1,1.1-4.1
		C428.4,260.7,428.9,261.4,429.6,261.9L429.6,261.9z"/>
	<path class="st14" d="M424.9,248.5c2.7,1.5,4.8,3.7,4.2,8c-0.4,0.4-0.5,1-1.1,1.2c0-2.4-0.2-4.6-1.5-6.3
		C425.8,250.5,424,249.9,424.9,248.5L424.9,248.5z"/>
	<path class="st14" d="M427.4,402.7c0.9,0.1,1.3,0.8,1.9,1.2C428.6,404.8,426.6,403.9,427.4,402.7L427.4,402.7z"/>
	<path class="st14" d="M425.5,337.8c0.5,0.2,1,0.3,1.8,0.3c-0.2,0.3-0.3,0.6-0.3,1.2c-1,0.1-1.3-0.4-1.8-0.8
		C425.1,338,425.5,338,425.5,337.8L425.5,337.8z"/>
	<path class="st14" d="M422.8,373.3c-1.1-3,3.2-1,3.1,0.6C424.9,374.2,423.8,373.5,422.8,373.3L422.8,373.3z"/>
	<path class="st14" d="M424.3,401.9c0.6,0.4,1.6,0.6,2,1.2c-1.5,1.5-8.1,2.8-9-0.1c-1.9,1-6,4.4-6.9,0.4c-4.1,0.3-5.9,2.9-10.2,3.1
		c-0.5-0.3-0.7-0.7-1.1-1c-1.7,0.4-4.2,0.8-3.8-1.7c-1.5,0.2-1.8,1.4-3.4,1.4c-0.8-0.7,0-1.8,0.4-2.5c0.4,0.1,0.4,0.7,0.4,1.3
		c1.4-0.3,2.4-0.9,2.8-1.9c1.1,0.3,1.5,0.8,2,1.3c-0.3,0.6-0.7,1.1-0.9,1.7c1,0.2,2.1-0.5,2.6-1.2c0.6,0.2,1.2,0.6,1.9,0.6
		c2.2,0.2,8.1-2,12.2-2.3c1.4-0.1,2.8,0,4.1-0.4C418.7,403.9,422.8,404.1,424.3,401.9L424.3,401.9z"/>
	<path class="st14" d="M423.9,244.1c1,0.2,2.5,2.4,0.3,2.3C424.1,245.8,423.2,244.8,423.9,244.1L423.9,244.1z"/>
	<path class="st14" d="M422.8,239.5c0.6,0.5,1.4,1,1.4,2.2c-0.9,0.4-1.4-0.4-1.8-0.9c-0.7,0-0.4,0.9-1.1,0.9c-0.5-1.4,0.6-3.9,0-5.8
		c-1-0.2-1.6-0.6-1.9-1.4c-0.1-0.4,0.3-0.3,0.3-0.5C422.6,234.6,423.9,236.3,422.8,239.5L422.8,239.5z"/>
	<path class="st14" d="M420.2,338.3c0.6-1.6,4.1-1.2,3.9,0.8C422.3,339.1,421.1,339.5,420.2,338.3L420.2,338.3z"/>
	<path class="st14" d="M423,376.2c-0.6,0.5,0.5,0.6,0.1,1c-2.7,0-8.2-1.6-8.4,1.8c-0.6,0.1-0.9-0.1-1.4-0.1
		c-0.1-0.4-0.4-0.7-0.3-1.3c-1.1,0-1.7,0.5-2,1.3c-1.3,1.5-4,2.3-5.4,3.7c-0.9,0.9-0.7,2.3-1.8,3.2c-3.1-1.1,0.1-4.3,2-5.6
		c1.6-1,3.6-2.3,5-2.7c0.7-0.2,1.7-0.1,2.2-0.3c1-0.4,1.6-1.6,2.7-1.9C417.9,374.7,421.3,375.6,423,376.2L423,376.2z"/>
	<path class="st14" d="M419.2,424.6c1.8,0.4,3.9,0.1,4.2,1.8c-3.2,0.9-6.1-1.1-9-1.8c-0.2-0.3-0.3-0.7-0.8-0.8c0.1-0.6-0.3-1,0-1.3
		c0.1,0,0.1,0.1,0.1,0.1C415.4,422.9,417.1,424.2,419.2,424.6L419.2,424.6z"/>
	<path class="st14" d="M419.3,412.4c1,0.4,1.6,1.2,1.9,2.3c-1.9,1.3-4.4,2.1-6.8,3c0.6-1.9,3.6-2.8,5-4.4
		C419.2,413.1,419.3,412.7,419.3,412.4L419.3,412.4z"/>
	<path class="st14" d="M418.6,370.7c0.7,0.5,1.8,0.7,1.6,1.9c-1.6,0.1-2.7-1.3-3.1-2.7c-0.9-0.2-0.6,0.7-1.2,0.6
		c-4.4-2.2-8.9,1.8-13.2,0.8c2-2.8,8.9-3.7,12.8-1.9C417.4,369,417.6,370,418.6,370.7L418.6,370.7z"/>
	<path class="st14" d="M419,345.4c0.5,1.7,0.6,7.3,0.4,9.7c-0.2,2.4-0.3,4.9-0.8,7.1c-1.6-0.1-0.8-2.4-0.9-3.6
		c-0.5,0.6-2.2,0.3-2.6-0.6c0.6-1.1,2-0.1,2.6,0.4c-0.3-11.2,0.3-20.6,0.3-31.4c0.8-0.1,0.9,0.4,1.4,0.6
		C419.2,333.1,418.9,339.1,419,345.4L419,345.4z"/>
	<path class="st14" d="M417.9,228c1.3,1.2,0,3.2-0.9,4.5c-1.2,1.8-1.8,3-3.9,3.7c0.7-2.8,2.5-4.6,3.4-7.2c-0.8,0.1-2.3,0.3-2.3-0.8
		C414.1,226.8,417.3,227.4,417.9,228L417.9,228z"/>
	<path class="st14" d="M419.8,417.3c-1.2,2.3-4.5,2.6-6.6,4C414.4,419.1,417.1,417.6,419.8,417.3L419.8,417.3z"/>
	<path class="st14" d="M414.3,334c1.1-0.1,2.5-0.3,1.9,1.3c-2.3,0-6.5,0.4-8.8-0.5C408.7,333.8,412.1,334.1,414.3,334L414.3,334z"/>
	<path class="st14" d="M416.7,412.2c-0.4,0.4-1,0.5-1.6,0.6c-0.6,0-0.6-0.6-0.8-0.9c-3.1,1.8-5.5,5.1-10.2,5c0.9-1.1,2.7-2,5-3.1
		c1.6-0.8,3.4-1.7,4.6-2.1C414.9,411.5,416.1,411.5,416.7,412.2L416.7,412.2z"/>
	<path class="st14" d="M412.4,357.9c0.9,0.3,1.7,1,1.5,1.9C412.5,360,412,359,412.4,357.9L412.4,357.9z"/>
	<path class="st14" d="M407.1,223.8c2-1.5,7.2-0.2,6.4,2.1c-0.6-1-1.2-1.6-3-1.4C409,224.6,407.1,226.7,407.1,223.8L407.1,223.8z"/>
	<path class="st14" d="M412.4,419.6c0.2,0,0.3,0.1,0.3,0.3c-0.7,1-1.4,1.5-2.8,2.3c-1.3,0.8-4.8,3-5.7,0.5c0.9-1,2.6-1.1,3.9-1.6
		C409.5,420.7,411.1,420.1,412.4,419.6L412.4,419.6z"/>
	<path class="st14" d="M398.8,365.6c4.4-1,9.5-1.4,14.7-1c-4.3,1.8-10.3,1.2-15.5,2.2C398.1,366.2,398.6,366,398.8,365.6
		L398.8,365.6z"/>
	<path class="st14" d="M407.1,389.2c-1.2,0.8-2.4-0.2-3.5-0.3c-0.1-0.7,0.5-0.7,0.5-1.3c-5.9,0.4-11.9,1.2-15.6,3.6
		c-0.5,0.3-0.8,1-1.5,0.9c-0.4-0.1-1-0.6-0.8-1.4c0.2-1.3,3.8-2.5,5.8-3.1c2.3-0.6,4.8-0.7,7.3-0.9
		C401.4,386.6,406.5,386.4,407.1,389.2L407.1,389.2z"/>
	<path class="st14" d="M404.6,224.2c0.9,0.6,0.1,1.1-0.1,1.9c-0.7,2.1-0.2,5.9-1.9,6.6C399.7,230.9,401.6,224.8,404.6,224.2
		L404.6,224.2z"/>
	<path class="st14" d="M406.4,252.9c-0.7,2.4-3.4,2.8-4.9,4.4c0.5,1.3,1.9,3.6,1.6,5.7c-1.6,0-1.4-1.8-1.9-3.2
		c-0.4-1-1.2-1.8-0.9-2.7c1-0.7,4.2-2.5,3.8-4.3c-0.3-1.5-3-1.1-4.1-2.2c0-0.4-0.1-0.9,0.1-1.2C402.7,250.2,405,251.2,406.4,252.9
		L406.4,252.9z"/>
	<path class="st14" d="M401.1,418.6c1.5,0.6,3.3,3.1,1.1,4c-0.5-1.2-0.6-2.7-1.4-3.6C400.8,418.7,401.1,418.8,401.1,418.6
		L401.1,418.6z"/>
	<path class="st14" d="M402.2,379.8c0.1,0.4-0.1,0.7-0.1,1c-1.2,0.2-3-0.7-2.4-2.2C400.6,378.9,401,379.7,402.2,379.8L402.2,379.8z"
		/>
	<path class="st14" d="M401.5,233c1.2,4.1-1.2,7-1.6,10.7c-0.9,0.1-1.7-0.2-1.9-1.3C397.5,239.7,401,235.3,401.5,233L401.5,233z"/>
	<path class="st14" d="M398.1,412.9c0.5,1.9-1.8,9.7-4.2,6.3C394.7,416.5,396.9,415.2,398.1,412.9L398.1,412.9z"/>
	<path class="st14" d="M395.7,244.9c0.8,0.2,1.9,0.3,2.3,0.9C397.5,247.2,395,246.4,395.7,244.9L395.7,244.9z"/>
	<path class="st14" d="M394.6,238.2c0.9,0.6,1.8,2,1.1,3.6c-0.7-1.3-1-2.6-2.2-3.2c-2.7-1.3-6.6,0.2-7.9,2.6c-0.5,1-0.3,2-0.7,3
		c-1.8-0.1-2.2-1.6-2-2.8C383.4,237.3,391.1,236,394.6,238.2L394.6,238.2z"/>
	<path class="st14" d="M397.6,410.9c-1.8-1-6.4,0.5-7.6-1.4c0-0.2,0-0.2,0.1-0.3C392.9,409.1,396.4,409.2,397.6,410.9L397.6,410.9z"
		/>
	<path class="st14" d="M391.9,373.7c-0.1,0.3,0.1,0.3,0.1,0.5c-2.5,1.2-7.8,1.8-10.2,1.6c0.3-0.4,0.7-0.5,1-0.9
		C386,374.7,388.4,373.2,391.9,373.7L391.9,373.7z"/>
	<path class="st14" d="M385,401.1c1.2,1.4,3.9,1.2,6.5,1.2c-1.3,2.9-8.8,1.8-7.1-2.2c0.2,0,0.4,0,0.5,0
		C385.2,400.3,385.1,400.8,385,401.1L385,401.1z"/>
	<path class="st14" d="M388.9,323.5c1.1,0.1,0.9,1.5,1.9,1.7C390,327.3,387.5,325,388.9,323.5L388.9,323.5z"/>
	<path class="st14" d="M393.8,419.3c-3.3,2-8.8,1.3-12.5,0.3c-0.4-0.4-0.6-1-0.7-1.7C384.4,418.5,389.4,419.3,393.8,419.3
		L393.8,419.3z"/>
	<path class="st14" d="M387.8,271.8c0.6,1.1-0.3,2.3-1.8,2.2C386.7,273.3,386.3,271.7,387.8,271.8L387.8,271.8z"/>
	<path class="st14" d="M385.8,286.8c2.5,0.1,1.8,3.5,0,3.4C385.9,289,386.2,287.8,385.8,286.8L385.8,286.8z"/>
	<path class="st14" d="M392.7,381.1c-5.2,1.4-13.4,2.8-14.8,3c-2.8,0.6-18.9,2.9-23,3.3c-3.8,0.3-8.1,1.3-11.4,1
		C346.6,386.7,381.6,381.3,392.7,381.1L392.7,381.1z"/>
	<path class="st14" d="M385.8,273.9c-2.2,0.3-5-0.8-7.2-0.5c-0.7,0.1-1.1,0.7-1.8,0.6c-0.6-0.1-1-0.8-1.5-0.9
		c-2.2-0.7-4.8-0.2-7.1-0.5c-1-0.2-2.1-0.8-3.3-1c-2.6-0.6-5.2-0.8-7.7-1.4c-0.4,0.1,0.1,1.2-0.3,1.3c-1.1,0-1.1-1.1-1.6-1.7
		c-3.2-0.4-5.8-1.5-9.1-1.8c-0.3,0.3,0.8,1.2,0,1.7c-1.1-0.1-1.3-1-1.6-1.8c-2.5-0.7-5.3-1-8.1-1.3c-0.8,0.2-0.7,1.3-1.4,1.6
		c-0.9-0.1-1.1-1-1.1-1.9c-3.3-0.7-7-1.1-10.7-1.4c0,0.5,0.4,1.3,0.1,2.2c-1.5,0.1-1.7-1-1.6-2.3c-3.4-1-7.9-0.9-11.5-1.7
		c-0.3,0.3,0.7,1,0.1,1.6c-0.9,0.2-1.1-0.2-1.8-0.5c-0.2-0.4-0.1-0.8,0-1.3c-4.3-0.7-8.5-1.6-13.2-2.1c0.1,0.7,1.6,1.2,1.6,2.3
		c-1.5,0.2-3.2-0.8-2.8-2.5c-5.8-1.1-11.6-2.1-17.4-3.2c0.4-2.1,3.6-0.7,5.6-0.3c1.3,0.3,3,0.4,4.5,0.6c4.3,0.7,8.9,1.1,13.7,1.9
		c4.6,0.8,9.7,1.5,14.5,2.2c3.2,0.5,10,1.9,11,1.8c3.9-0.2,8.4,1.2,12.5,1.6c6.6,0.5,13.2,2.1,19.5,3.4c2.6,0.5,4.4,0.9,7.1,1.3
		c0.9,0.1,7.8,1.3,10.9,1.6c1,0.1,2,0.5,3.1,0.5C381.7,271.9,385.3,271.7,385.8,273.9L385.8,273.9z"/>
	<path class="st14" d="M381,399.2c-0.4-2.8,3.1-7.8,4.9-4.5C383.9,395.7,382.7,398.2,381,399.2L381,399.2z"/>
	<path class="st14" d="M381.6,412.1c1,0.3,0.6,1.5,0.1,2.1c-1.4,0.3-2.1,1.4-3.5,1.7c-0.9,1.2-1.5,2.7-2.8,3.5
		c-2.2-1.8,1.7-3.5,3.4-4.1C379.3,413.8,380.2,412.7,381.6,412.1L381.6,412.1z"/>
	<path class="st14" d="M371.4,368.7c4.8-0.6,10.1-2,14.1-0.3c-12.3,1.5-24.3,2.6-37.3,3.5c1.9-0.8,4.6-0.6,7.2-1.2
		c2.6-0.5,5.1-1.1,7.7-1.4C365.8,369,368.6,369,371.4,368.7L371.4,368.7z"/>
	<path class="st14" d="M378.2,244.9c0.2,1.3-1,2.7-1.9,3.6c0,2.7-0.2,5.5-0.4,7.9c-2,0.2-2.2-1.7-1.2-2.6c0.3-2.4-0.9-5.1,0-6.9
		c0.3-0.6,1.7-1,1.2-2.5c-0.8-0.3-1.4-0.7-1.4-1.8C375.8,243.5,377.9,243.5,378.2,244.9L378.2,244.9z"/>
	<path class="st14" d="M376.7,413.9c-0.4,0.5,0.4,0.8,0,1.3c-1.8-0.3-2-2.1-3.7-2.5c-0.2-0.3-0.4-0.7-0.5-1
		c-2.1-0.9-5.4-0.3-7.5-0.6c1.1-1.6,5.5-1.1,7.3-0.4C374.1,411.4,375.4,413.2,376.7,413.9L376.7,413.9z"/>
	<path class="st14" d="M373.6,418.8c0.7,0.3,1.7,0.9,1.6,1.7c-4.2,0.1-6.6-1.5-9.8-2.3c0-0.4-0.7-0.8-0.3-1.2c0-0.2,0-0.2,0.1-0.3
		c1-0.2,2.6,0.7,4.2,1.2C371,418.4,372.7,418.5,373.6,418.8L373.6,418.8z"/>
	<path class="st14" d="M374.5,240.8c0,0.4-0.6,0.4-0.7,0.8c-0.9-1.7-1.4-3.8-3.4-4.5c-0.5,0-0.5,0.4-0.9,0.4c-0.5-0.3-1-0.6-1.2-1.2
		c0-0.2,0.1-0.2,0.1-0.4C372,235.5,374,237.8,374.5,240.8L374.5,240.8z"/>
	<path class="st14" d="M361.8,412.9c1.4,1.4,3.1,4,2.3,6.7c-1,0.2-1.2-0.5-1.8-0.4c1.1-1.7-0.2-4.8-1.5-5.9c0-0.3,0-0.7,0-1
		c-1.9,0-4.1,3-5.2,0.6C356.3,411.2,362.6,409.7,361.8,412.9L361.8,412.9z"/>
	<path class="st14" d="M361.9,419.9c0.9,0.1,2,0.6,1.8,1.4c-0.4,0.4-0.7-0.1-1.1-0.1c-1.4,1.3-2.3,3.3-6,2.8
		c-1.6-0.2-3.9-1.5-2.6-2.7c1.1,0.6,3,0.4,4.3,0.8C359.7,421.4,360.6,420.5,361.9,419.9L361.9,419.9z"/>
	<path class="st14" d="M364.5,229.9c-0.7-0.8-1.5-1.3-3.1-1c-1.8,0.3-2.2,2.2-3.1,2.5c-1,0.3-2-0.6-1.9-1.3
		C356.8,227.5,363.6,226.8,364.5,229.9L364.5,229.9z"/>
	<path class="st14" d="M351.7,388.3c3.4-0.3,6.6-0.9,9.9-1c-8.2,2.4-18.6,3.3-27.9,3.9c0-0.3,1-0.6,1.6-0.8
		C340.2,389.3,346.1,388.9,351.7,388.3L351.7,388.3z"/>
	<path class="st14" d="M355.5,274.5c2.6,1.1,0.4,4.5,0.3,6.7C355.1,279.1,356,276.7,355.5,274.5L355.5,274.5z"/>
	<path class="st14" d="M352,234.7c1,1,1.6,3.1,1.5,4.8c-0.8-0.1-1.3-0.8-2.4-0.4c-0.3,0.1-0.5,0.5-0.9,0.8c-1.1,0.7-2.5,1.2-3.3,2.2
		c-0.8,1.1-1.1,2.5-1.1,3.7c0,0.4,0.5,0.3,0.5,0.6c-0.7,2.6-3.1-0.5-3-2.1c0-0.5,0.4-1.3,0.7-1.8c1.4-2.3,5-4,7.9-4
		c-0.4-1.3-1.3-2-2-3c0.4-2,1.3-3.4,2.3-4.8C353.2,232,352.5,233.4,352,234.7L352,234.7z"/>
	<path class="st14" d="M353.2,414.7c0.8,3-1.8,5-3,7c0-1.8,0.8-2.8,1.2-4.1c-0.7,0.8-3.6,2.1-5,0.6c-2.9,2.1-6.5-0.6-9.4-0.8
		c-0.4-0.4-0.9-1.1-0.5-1.8c3.4,0,5.5,2.2,9.4,2.2c0.4,0,0.3-0.6,0.7-0.6c2.2,0.3,3.7-1.3,5.3-0.8
		C352.5,415.9,352.5,414.9,353.2,414.7L353.2,414.7z"/>
	<path class="st14" d="M351.7,362.3c0.2,1.4-0.2,3.4-0.8,4.4c-0.3,0-0.4,0.2-0.8,0.1c-0.6-1.1,0-3.5-0.4-4.8
		C350.3,362.3,351.2,362.1,351.7,362.3L351.7,362.3z"/>
	<path class="st14" d="M350.9,250.7c0.3,1.4-0.8,2.3-1.9,2.8c-0.1-0.2-0.2-0.3-0.4-0.3c-0.4-0.9,0.4-1.5,0.5-2.2
		c-0.3-0.6-1.1-0.6-1.4-1.2c-0.1-0.5,0.1-0.7,0.3-0.9C349.2,249.4,350,250.2,350.9,250.7L350.9,250.7z"/>
	<path class="st14" d="M345.2,408.3c2.3-1.4,5.9-0.4,5.7,2.6c-0.4-0.8-0.7-1.6-1.5-1.9C347.7,409.1,346,409.9,345.2,408.3
		L345.2,408.3z"/>
	<path class="st14" d="M346.9,281.4c-0.1-1.9,2.2-4,3.4-1.9c-1.2,0.7-2.4,1.3-1.9,3.2c-0.9-0.5-1.2,0.2-1.9,0.5
		C344.6,283.1,345.6,280.8,346.9,281.4L346.9,281.4z"/>
	<path class="st14" d="M275,301.9c0.8-2.1,0.6-5.8,0.5-8.3c-3.9,2-7.3,4.3-11,6.5c-0.2,2.5,0,4.5,0,7c0.4,0,0.6-0.3,1.1-0.3
		c0.7-1.4,0-4.2,0.9-5.3c0.7,0.7,0.6,2.4,0.7,4c2.3,0,0.6-4.3,1.5-5.3c0.6,1.2,0.9,2.6,0.9,4.1c2.7-0.6,0.3-4.6,1.6-6.5
		c0.1,2.1,0.5,3.3,0.4,5.4c0.6-0.2,1.1-0.5,1.6-0.8c0.5-1.6-0.3-4.5,0.5-5.7C274.4,298.1,274,300.6,275,301.9L275,301.9z
		 M303.9,282.3c0-0.5,0-1.1-0.1-1.4c-1.2-0.2-2.3-0.4-3.5-0.3c-0.1,0.6,0.2,0.9,0.1,1.4C301.6,282.1,302.5,282.4,303.9,282.3
		L303.9,282.3z M307.5,282.7c0.1-0.7,0.1-1.1-0.3-1.7c-0.8,0-1.2-0.2-2-0.1c0.1,0.5,0.2,0.9,0.1,1.6
		C305.9,282.6,306.7,282.7,307.5,282.7L307.5,282.7z M310.2,282.9c0.3-0.4,0.1-1.3,0-1.7c-0.7,0.1-1.5-0.4-2,0
		c0.6,0.2,0.8,0.8,0.8,1.6C309.5,282.8,309.7,283,310.2,282.9L310.2,282.9z M310.4,280.1c0-0.5,0-0.9,0-1.4
		c-4.4-0.7-9.1-1.2-13.7-1.8c-0.1,0.7-0.1,1.5,0,2.1c1.2,0.8,2.5,0.2,3.9,0.3c1.1,0,2.1,0.7,3.1,0.8c0.7,0.1,1.4-0.1,2-0.1
		C307.3,279.8,308.9,280.4,310.4,280.1L310.4,280.1z M310.5,286.9c-0.1-0.9,0.1-2.1-0.1-2.8c-2.1-0.8-1.5,1.7-2.2,2.7
		C309.1,286.9,310.1,287.2,310.5,286.9L310.5,286.9z M315.5,283.3c0.2-0.8-0.3-1.4-0.1-1.8c-1-0.1-2.1-0.2-3.3-0.1
		c0,0.6,0,1.2,0.1,1.6C313.2,283.1,314.8,283.4,315.5,283.3L315.5,283.3z M349.8,284c-0.8,1.3-2.7,1.5-4.2,2.2
		c-1.2,1.3-2.9,1.5-4.5,2.2c-1.1,0.5-1.9,1-3,1.4c-1,0.4-2.1,0.8-3.1,1.2c-2,0.7-4.1,1.9-6.2,2.5c-1,0.2-6,2.3-7.3,3.2
		c-1.3,0.9-3.1,1.4-4.7,2.3c-5.6,3.2-11.9,6.3-17.6,9.4c-2.9,1.6-5.5,3.1-8.4,4.7c-1.8,1-3.4,2-5.3,3c-5.8,3.6-10,4.7-14.7,5.2
		c-2,0.2-4.7,1.5-6.5,0.1c0.2-1.1,1.6-0.9,2.4-1c2.7-0.5,6.2-0.9,9-1.4c0.1-5.1-0.2-10.7-0.3-16c-1.2,0.4-0.6,2.1-0.7,3.2
		c-0.1,2.6-0.5,6.3-1.1,8.5c-0.8-2.5-0.2-7.1-0.3-10.5c-2.7-0.1-1.2,4.5-1.9,6.4c0-0.3-0.5-0.5-0.3,0.3c-0.4-1.2-0.2-3.6-0.3-5.3
		c-0.3-0.2-0.9,0.4-1.4,0.5c0,2.1-0.7,3.6-1.1,5.3c-0.5-1.6-0.1-2.9-0.1-4.5c-0.5,0.1-0.8,0.4-1.2,0.5c-0.1,3.3-0.1,5.9-1.2,8.3
		c0.1-2.6-0.2-4.8-0.1-7.4c-0.2-0.2-0.9,0.4-1.2,0.5c-0.4,2.1,0,4.2-0.1,5.9c-0.2,2.1-1.3,4.1-1.1,6.5c-2,0.7-3-2.3-4.1-3.9
		c-1.1-1.6-2-3-2.6-4.3c3.5,0.5,4.3,4.6,6.4,6.9c0.2-3-0.3-7.1-0.1-10.1c-0.5-0.3-1.1,0.7-1.8,0.3c0.2-1,1.4-0.9,1.6-1.8
		c0.1-2.5,0-4.3,0-6.9c-2.2,0.2-4,2-6.2,2.6c0,2.5,1.1,8.1-1.6,8.9c0.8-2.3,0.3-5.7,0.4-8.3c-0.4-0.4-0.9,0.2-1.4,0.1
		c0.9-0.6,1.5-1.6,2.2-2.5c0.8,0.1,0,0.4,0,0.8c2.5-1.1,4.7-2.4,6.8-3.9c-0.2-1.2-0.1-2.6-0.1-4c-1.2,0.3-3.1,1.2-4.6,1.7
		c-0.3,1.3,0.1,2.4,0.3,3.6c-0.3,0.2-0.7,0.5-1.4,0.4c0-0.5,0.2-0.7,0.1-1.3c-0.5-3.5-0.5-8.6,0-12.4c1,2.5,0.7,6.3,1.1,9.3
		c1.7-0.8,3.1-1.9,4.5-3c0.1-3,0.1-7.2,0.3-10.7c0.7-0.1,0.8,0.3,1.2,0.5c-0.1,2.7-0.1,4.1-0.1,6.9c1.8-1,3.5-2.1,5-3.4
		c-0.1-2.9,0.2-6-0.4-8.4c3.1,0,1.6,5.5,1.1,7.6c1.5-0.8,3.4-2.3,5-3.5c0.1-2.8-0.3-6.1,0.5-8.1c1.3,0.2,1.1,2,1.1,3.2
		c0,1.4-0.3,2.9-0.3,3.9c1.6-0.4,3.2-1.8,4.7-2.6c0.5,2.4-3.8,2.8-4.9,4.5c0.2,1.1-0.4,2.1-1.1,1.9c-0.6,0.1-0.1-0.8-0.3-1.2
		c-3.6,2-6.2,5-10.6,6.2c0.1,0.6,0.1,1.4,0.3,1.9c6.2-3.8,12.4-7.8,18.7-11.5c-2.8,3.2-7.4,5.1-11.1,7.8c-2.6,1.8-5.1,3.6-7.6,5.3
		c0.2,1.3-0.1,2.7,0,4.5c5.8-3.2,11.8-6.1,17.5-9.4c-0.3-0.3-0.1-1-0.1-1.6c-1,0.3-2.6,1.2-2.6,2.8c-0.8,0.2-0.7-0.5-1.1-0.8
		c-0.7,0.3-1.5,0.5-2,0.9c-0.1,0.7,0,0.8,0,1.6c-1.3-0.5-1.1-3.7-0.7-4.7c1.1,0.1,0.8,1.4,0.8,2.5c1.5-0.1,2.4-1.8,2-4.1
		c1.4-0.3,1.4,0.7,1.4,1.8c1-0.3,1.6-0.9,2.3-1.6c0-1.2,0.2-1.8,0-2.8c2.5,0.2,1.1,3.6,0.8,5.2c0.8,0.4,1.1-0.7,2-0.5
		c-0.7,1.3-2.3,2.2-3.7,2.8c-1.5,0.7-3,1.3-4.2,2.3c-0.1,0.5,0.6,0.2,0.4,0.8c-0.3,2.6-0.5,4.8-0.5,7.5c0.8,0,1-0.6,1.9-0.5
		c0.1-1.5,0.3-2.9,0.3-4.5c1.9,3.3,0.2,8-0.1,12.3c-0.6-1.8-0.2-4.5-0.1-7.2c-0.7,0.2-1.3,0.6-1.9,0.9c-0.4,3.5,0.5,7.8,0.1,11.6
		c-0.2,1.9-1,3.4-0.9,5c4.4-0.3,6.1-3.1,9.4-4.5c-0.5-7.9,0.1-16.7-0.1-24c0.6,0,0.5,0.7,1.1,0.8c0.5,6.8,0.5,15.4,0.1,22.4
		c1.6-0.6,3.5-2.2,5.4-3c-1.1-5.7-0.5-13.9-0.5-19.8c0.6-0.1,0.7,0.3,1.2,0.3c0.1,6.4,0.2,12.4,0.4,18.7
		c12.7-6.2,25.3-14.1,39.1-19.3c-12.1-1.1-24.3-2.1-36.5-3.1c2.3-0.8,9.9-0.7,12.1-0.5c0.4-0.7,0-2.2,0.1-2.7
		c-0.6-0.2-1.3-0.3-2.2-0.3c-0.6,0.8-0.3,2.4-1.9,2.2c-0.1-0.9,0.2-1.3,0.1-2.2c-0.7-0.5-2.6-0.5-3.4-0.4c-0.3,1.1-0.3,2.5-1.5,2.7
		c0.1-2.3,0-3.3,0.1-5.6c-0.5-0.1-1.7,0-2.4-0.1c-0.6,0.7-0.6,2-0.8,3.1c-0.5-0.6,0-2.2-0.4-3c-1.1,1.4-0.7,3.6-0.9,5
		c-1.4-0.5-0.4-3.4-0.7-4.9c-1.7-0.4-3.8-0.5-5.8-0.5c0.1,1.9,0.4,5.6-0.3,7.5c-1.3-0.1-1.7-1.2-2.6-1.7c0.4-4.4-0.7-7.4-0.8-11.4
		c-0.8,0.9-0.5,2.7-0.5,3.7c-1.1-1.4-0.5-3.8-0.7-6.3c-0.1-2,0-4.7,0.4-6.3c1.3,0.9,0.4,3,0.8,4.7c0.9-1.7-0.7-5,1.4-5.4
		c0.8,6.5-0.3,12.9,0.3,19.9c0.9-4.7-0.1-10.8,0.7-16c2.2,1.6,1,7.4,1.2,10.2c1.7-0.2,3.8-0.1,6,0c0-3.5,0.7-8.1-0.1-11.1
		c0.3-0.3,0.4-0.9,0.4-1.2c0.8,0,1.2,1.4,1.2,2.6c0.6-0.5,0-2.1,0.5-2.6c1.7,2.6,0.4,6.2,0.9,9.2c4.3-0.6,8.9,0.8,13.6,1
		c0.5-2.4,0.2-5.9,0.1-8.1c2.6,0.9,1,5.7,1.8,8.3c4,1,8.6,1.1,11.8,3c-3.2,0.1-7.6-1-11.7-1c-0.3,0.5,0,0.7,0,1.3
		c3.8,0.2,7.8,0.3,10.4,1.7c-1.7,0.2-3.7-0.4-5.7-0.3c0.1,0.3,0.3,1.1,0.1,1.9c0.5,0.4,1.6,0.3,2.3,0.5c0.4-0.4,0.3-1.3,0.3-2.1
		c0.9,0.3,1.4,1,1.2,2.3c0.7,0.4,1.7,0.5,2.6,0.6c0.4-0.7-0.1-2.2,0-2.6c0.6,0.2,1.1,0.4,1.5,0.8c0.4,1.6,0,3.5-1.5,3.7
		c0-0.5,0.2-0.8,0.1-1.4c-0.9-0.2-1.8-0.3-2.8-0.3c-0.7,0.3-0.5,1.4-1.2,1.7c-0.2-0.5,0-1-0.1-1.7c-0.6-0.4-1.5-0.1-2.4-0.4
		c-0.7,0.2-0.7,1.1-1.4,1.3c-0.1-0.5-0.1-1.2-0.4-1.6c-1-0.1-1.9-0.3-3-0.3c-0.4,0.7,0,2.1-0.7,2.6c5.6,0.9,10.6,0.8,16.3,1.7
		c2.5,0.4,4.7,1.6,6.6,0.8c0.3-2.1,1-3.8,0.3-5.6c1.3,0.1,2,3.1,2.2,3.5c0.2,0.7-0.3,0.8-0.4,1.3C341,287.1,345.3,285.4,349.8,284
		L349.8,284z"/>
	<path class="st14" d="M349.2,285.3c-1.3,2.6-7,7.4-7.5,8c-2.4,3.1-6.3,5.5-8.8,8.7c-5.2,3.8-8.8,9.2-14.5,12.5
		c2.6-4.3,6.6-7.7,10.3-11.2c3.7-3.5,7.5-7.1,11.3-10.6C342.8,290,345.8,287.3,349.2,285.3L349.2,285.3z"/>
	<path class="st14" d="M347.3,251c-0.7,1.2-11.2-0.6-15.5-1.3c-2.4-0.4-5-1.2-7.6-1.6c-4.6-0.6-8.4-0.7-11.1-2.7
		C325.2,246,336.7,248.5,347.3,251L347.3,251z"/>
	<path class="st14" d="M345,272.6c3.1,1.2,0.9,6.5,0.1,8.7C344.6,278.8,345.4,274.9,345,272.6L345,272.6z"/>
	<path class="st14" d="M345.4,363.2c-0.2,1.7-0.4,3.4-1.4,4.4c-1.5-1.2,0.1-3.3-0.1-5.3C344.6,362.4,345,362.8,345.4,363.2
		L345.4,363.2z"/>
	<path class="st14" d="M343.9,408.6c-0.5,0.3-2.1-0.1-3.1,0c-1.9,0.2-3.9,1.5-5.2,0.8C336.9,407.5,341.5,407.8,343.9,408.6
		L343.9,408.6z"/>
	<path class="st14" d="M341.7,361.8c2.1,0.9,0.4,4.9,0.3,7C340.5,367.1,341.8,363.7,341.7,361.8L341.7,361.8z"/>
	<path class="st14" d="M341.2,370.3c2.3-0.1,2.2,2.6,0,2.2C341.4,371.6,341.1,371,341.2,370.3L341.2,370.3z"/>
	<path class="st14" d="M337.5,283.7c-2.8,0.2-5.8-0.5-8.3-1c-0.4-0.4,0.2-0.7,0.3-1C332.3,281.8,335.3,282.5,337.5,283.7
		L337.5,283.7z"/>
	<path class="st14" d="M335.1,414.8c-0.1,0.4-0.5,0.6-0.8,0.8c-0.2,0.6,0.4,0.5,0.3,1.2c-1,1.9-4,3.5-8.3,3.2
		c-2.1-0.1-4.7-0.3-3.8-2.2c3.7,0.3,9,0.7,11.3-1.4c0-0.3-0.3-0.5,0-0.8c-0.6-0.5-1.5-0.4-1.8-1
		C330.8,412.2,334.5,413.7,335.1,414.8L335.1,414.8z"/>
	<path class="st14" d="M332.1,286.4c0.1,0.4,0.9,0.2,1.4,0.4c-1.3,0.7-3.6,0.8-4.7,0c0.2-0.5,1.2-0.4,1.9-0.4c0.2-0.4,1.1-2.2,0-2.2
		c0-0.3,0.2-0.4,0.1-0.8C332.8,283,333.2,285.6,332.1,286.4L332.1,286.4z"/>
	<path class="st14" d="M327.6,390.6c1.3,2.5,5,4.8,3.3,8.5c-1.6,1.2-3.6,3.4-6.4,1.9c2-1.2,4.7-1.9,5.2-3.9c0.3-1.4-0.6-3.2-1.5-4
		c-0.4-0.3-1.1-0.4-1.4-0.9c-0.2-0.5-0.1-1.2,0.5-1.7C327.4,390.6,327.5,390.6,327.6,390.6L327.6,390.6z"/>
	<path class="st14" d="M328,409.9c0.7,0.3,1.5,1,1.5,1.7c-1.1,0-1.8-0.5-3.3-0.6c-2.6-0.2-5.8,0.9-7.1-0.4
		C320.6,409,325.6,408.8,328,409.9L328,409.9z"/>
	<path class="st14" d="M328.4,274.3c-0.5,3.7-0.7,6.8-0.9,10.6c-1.1-3.3-0.8-8.5-0.5-12C327.7,273.1,327.9,273.8,328.4,274.3
		L328.4,274.3z"/>
	<path class="st14" d="M327.5,390.1c-0.5,0.2-1.4,0.6-1.9,0.4c1.6-3.4-4.3-3.1-3.4-5.8C324.6,385.9,326.7,387.3,327.5,390.1
		L327.5,390.1z"/>
	<path class="st14" d="M325.6,402.7c1.5,0,1.6,1.4,2.6,1.8c-0.7,1.6-2.4,2.3-4.5,1.9c0.8-0.6,1.5-1.4,2.2-2.2
		C325.6,403.6,325.4,403.4,325.6,402.7L325.6,402.7z"/>
	<path class="st14" d="M322.8,406.3c0.6,0.3-1,0.7-1.1,1.2c-2.1,0.2-5.3,1.8-9,1.4c-2.7-0.3-6.7-1.4-5-3.5c1.4,0.3,3.2,1.1,5,1.3
		C316,407,319.3,406.1,322.8,406.3L322.8,406.3z"/>
	<path class="st14" d="M321.2,379.1c2.1,0.8,3.6,6.2-0.1,4.9c0.1-0.8,0.5-1.3,0.8-1.9C321.6,381.2,320.5,380.2,321.2,379.1
		L321.2,379.1z"/>
	<path class="st14" d="M320.5,392.7c0.4-0.3,1.2-0.6,1.8-0.4c-0.3,0.5-0.6,1-0.8,1.7C320.9,393.9,320.5,393.5,320.5,392.7
		L320.5,392.7z"/>
	<path class="st14" d="M321.8,293.1c0,0.9-0.8,0.9-1.5,1.2c0.3-0.5,0-1.5,0.1-1.8C321.1,292.5,321.4,292.8,321.8,293.1L321.8,293.1z
		"/>
	<path class="st14" d="M325.7,290.9c-8.2,0.9-17.9-0.7-26.5-1.3c-4.3-0.3-8.6-0.2-12.3-1.4c0.3-0.4,1.2-0.4,1.5-0.8
		c5,0.6,10.9,0.6,16.5,1.2C309.2,289.1,323.4,290.5,325.7,290.9L325.7,290.9z"/>
	<path class="st14" d="M319.9,398.9c0.9,0.5,0.9,2.9,0.7,3.7C319.1,402.7,319.2,399.7,319.9,398.9L319.9,398.9z"/>
	<path class="st14" d="M322.2,354.8c-1.1,0.9-5.5,1.9-6-0.3C317.6,353.5,320.4,354.6,322.2,354.8L322.2,354.8z"/>
	<path class="st14" d="M315.2,417.4c0.3,0.4,1.2,0.2,1.9,0.3c-0.4,0.4-1.2,0.5-1.9,0.6c-0.2,0.1,0.4,0.5,0.1,1
		c-1.1,0.1-1.2-0.6-1.5-1.3c-0.1-0.3,0.2-0.2,0.4-0.3c-0.6-1.6,0.5-2.9,1.4-3.9C317,414.9,315.5,416.3,315.2,417.4L315.2,417.4z"/>
	<path class="st14" d="M314.2,292.6c2.1,0,2.2,4.2,0.7,5.3C314.5,296.5,314.6,293.8,314.2,292.6L314.2,292.6z"/>
	<path class="st14" d="M312.8,419.1c0.6-0.1,1.9,0,1.9,1c-0.4,0.6-0.9,0.3-1.5,0.5c-1.7,0.5-3.4,2-5.2,2.1c-1.7,0.1-3.4-1-4.9-1.7
		c-0.1-0.5,0.1-0.9,0.3-1.2c1.9,0.1,2.3,1.3,4.6,1C310,420.7,311.5,419.2,312.8,419.1L312.8,419.1z"/>
	<path class="st14" d="M312.4,247.4c0.3,0.5-0.8,0.8-1.5,0.8c-0.9,0.8-8.1,1.9-10.7,2.6c-2.4,0.6-5,0.9-7.5,1.6
		c-2.2,0.5-4.6,1.3-7.1,1.9c-3.5,0.9-6.6,1.8-9.8,1c2.5-1.2,5.4-1.7,8.3-2.6c5.5-1.7,11.5-2.7,17.9-3.9c3.3-0.6,6.9-1.1,10-1.4
		C312.2,247.4,312.3,247.4,312.4,247.4L312.4,247.4z"/>
	<path class="st14" d="M312,390.5c-3.6-0.8-4.2,3-6.9,3.1c-0.4-0.1,0.1,0.6-0.3,0.5c-1.4-0.4-1.6-1.9-2.7-2.7
		c-1-0.7-2.5-0.4-3.3-1.6c-0.1-0.6,0.3-0.7,0.5-1c2.4,0.5,3.6,2.1,5.2,3.5C305.8,390.5,309.2,389.4,312,390.5L312,390.5z"/>
	<path class="st14" d="M305.9,415.7c-2.6-1.9,5.6-3.2,7.5-2.2C310.8,414.2,308.8,415.4,305.9,415.7L305.9,415.7z"/>
	<path class="st14" d="M308.6,359c1-0.1,1.5,0.2,2.4,0.1C310.7,359.7,308.7,359.9,308.6,359L308.6,359z"/>
	<path class="st14" d="M308.9,292.5c2.3,0.5,1.2,6.4,0.3,8C308.5,298.4,309,294.6,308.9,292.5L308.9,292.5z"/>
	<path class="st14" d="M308.9,247.6c-2.9-0.1-0.5-5.9,0.8-3C308.9,245.4,308.1,246.4,308.9,247.6L308.9,247.6z"/>
	<path class="st14" d="M306,404.7c0,0.3-0.1,2.4-0.3,2.8c-0.8,1.6-6.4,2.2-9,1.4c-0.1-0.5-0.7-1.2-0.3-1.8c2.1-0.3,5.1-0.1,7.1-0.9
		c2.7-2.4-1.6-7.3-5.2-7.1c-0.3-0.5-0.9-1.4-0.1-1.8c1.9-0.2,3.8,1.6,5,2.8C304.4,401.3,306,402.7,306,404.7L306,404.7z"/>
	<path class="st14" d="M302.2,419.2c-0.6-2.1,1-5,2.6-4.1C304.4,416.9,303.1,417.8,302.2,419.2L302.2,419.2z"/>
	<path class="st14" d="M304,291.7c1.7,2.5,0.7,8-0.5,10.2c-0.3-3.2,0.5-7.4,0.1-10.2C303.7,291.7,303.9,291.7,304,291.7L304,291.7z"
		/>
	<path class="st14" d="M301.4,370.5c0.8,0.6,2,1.4,1.9,2.5c-2-1.5-4.7-0.2-6.4,0.8c0.5,2.2-1,3.1-2.6,3.7c-0.2-0.4-0.2-0.9-0.4-1.3
		c-0.7,0.5-1,1.3-1.4,2.2c0.2,0.2,0.9-0.1,1.1-0.4c0,0.7-1.1,1.4-1.5,2.1c-1.9-0.4,0-4.2,0.8-5.2c0.9-1.1,5.3-4.1,7.1-4.4
		C300.7,370.4,301,370.5,301.4,370.5L301.4,370.5z"/>
	<path class="st14" d="M301.5,425.2c0.1,0.4-0.1,0.7-0.1,1c-3.3,0.7-5.6,3.3-9.5,4c-2.1,0.4-4.3,0.2-6.5-0.1c-1-0.2-2.7-0.2-2.8-1.7
		c2.9,0.1,7.4,0.5,12.6-2.1c1.3-1.1,3.3-1.6,5-2.3c-0.6-2.8-5-2.6-5-5.6c2.5,1.4,5.4,2.5,5.8,5.9
		C300.9,424.9,301.7,424.6,301.5,425.2L301.5,425.2z"/>
	<path class="st14" d="M298.8,292.1c0.6,2.5,0.8,5.7,0.5,8.5c-0.2,2.1-1,3.6-1.8,4.9c0.3-4.4,0.3-9.6-0.1-13.8
		C298,291.8,298.3,292,298.8,292.1L298.8,292.1z"/>
	<path class="st14" d="M294.5,396.2c0.2,0.3,1,0.8,0.9,0.9c-0.2,0.7-0.8,0.2-1.4,0.3c-4.3,0.6-8.6,3.5-11.5,5.2
		c-2.9-2.1,1.6-3.5,4.1-4.5C289.4,396.8,291.7,395.9,294.5,396.2L294.5,396.2z"/>
	<path class="st14" d="M293.5,418.4c-4.5-0.5-10.7,0.9-15.7,1.6c-0.7,0.1-1.7,0.3-2.3-0.3c3.6-1.8,8.9-2.5,13.6-2.3
		C290.6,417.5,292.2,417.8,293.5,418.4L293.5,418.4z"/>
	<path class="st14" d="M282.8,404.7c2,2.4,5.6,2.5,9.5,2.2c-0.9,2.1-4.7,2.5-7.3,1.2c-1.7-0.8-3.5-1.8-2.4-3.5
		C282.7,404.6,282.8,404.7,282.8,404.7L282.8,404.7z"/>
	<path class="st14" d="M289.6,384c2.5,0.4,0.4,3-0.3,4.5c-0.6,1.4-1.1,2.7-1.6,3.5C287.4,388.9,288.6,386.3,289.6,384L289.6,384z"/>
	<path class="st14" d="M282.8,258.8c0.5,0.6,1.2,0.9,1.4,1.7c-0.4,0.5-1.3,0.8-2,0.5C282.4,260.2,282.6,259.5,282.8,258.8
		L282.8,258.8z"/>
	<path class="st14" d="M283.6,264.2c0.1,1.1-4.3,4-5.2,5.8c-6.8,5.1-13.1,10.6-19.7,15.8c-1.2,0.1-1.8,0.2-2.7,0.5
		c-0.6,0.1,0.1-0.3-0.3-0.3c-2.1,1.7-6.9,0.5-10.2,0.6c-0.5,0.1-0.5-0.3-0.8-0.4c-1.2,0.6-2.2,1.5-3.9,1.6
		c4.9-4.6,9.8-8.9,14.9-13.8c2.8-2.7,5.8-5.5,8.8-8.1c1.6-1.4,3.5-2.6,4.9-4c0.8-0.8,1.6-2,2.6-3.1c1.1-1.2,2.5-2.2,2.6-3.6
		c1.1,0.2,1,1.7,0.7,2.6c1.7,0.7,2.3,2.4,4.2,2.8c-0.2,0.6-0.9,0.9-1.4,0.9c-0.5,0-0.2-0.3-0.9-0.8c-0.4-0.2-1.4-0.5-1.6-0.9
		c-0.4-0.6,0-1.3-0.4-1.7c-0.9,1-1.8,2-2.7,3c0.6,0.6,1.9,0.9,3,0.6c0.3,0.7,0.3,1.3,0,1.9c-1.6,0.6-3.5-0.2-3.7-1.8
		c-0.9,0.8-1.5,1.9-2.6,2.6c0.2,0.9,1.4,0.8,1.4,1.9c-0.9,0.3-2-0.2-2.4-0.8c-1,0.5-1.5,1.5-2.4,2.1c0.2,0.5,0.5,0.8,1.4,0.6
		c0.1,0.9-0.1,1.4-0.7,1.7c-0.9-0.1-1.4-0.6-1.6-1.3c-0.9,0.3-1.7,1.5-2.6,2.3c-1.1,1,1.7,0.8,2.8,0.3c-0.1,0.7-0.3,1.4-0.5,1.9
		c-1.2,1-3.3,0.3-3.1-1.4c-1,0.4-1.6,1.3-2.3,1.9c0.3,0.8,0.8,1.4,2,1.3c-0.2,2-2.7,1.2-2.8-0.4c-1,0.5-1.7,1.4-2.4,2.2
		c0.6,0.8,1.6,0.1,2.3-0.1c0,1.7-2.2,2.9-2.8,0.9c-1.1,0.7-2,1.6-2.8,2.6c0.3,0.4,1,0.4,0.9,1.2c-0.8,0.4-1.2-0.2-1.6-0.5
		c-0.7,0.4-1.2,1.1-1.9,1.6c0.4,0.3,1.1,0.5,1.1,1.2c-0.2,0.1-0.3,0.2-0.4,0.4c-0.6-0.1-0.9-0.5-1.2-0.8c-0.9,0.4-1.6,0.9-2.2,1.7
		c2.8-0.4,6.3,1.1,9.6,0.4c1.1-0.2,3.2-2.5,4.6-3.6c1.6-1.4,3.2-2.7,4.5-3.7c3.3-2.6,6.5-5,9.2-7.1c0.9-0.7,1.6-1.4,2.4-2.1
		C279.5,267.2,281.4,265.2,283.6,264.2L283.6,264.2z"/>
	<path class="st14" d="M282.3,292.9c1.7,3.6,0.8,8.9,0.5,13.2c-0.1,2-0.4,4.2-1.2,5.9c-0.3-6.8,0.2-12.2,0.3-19.3
		C282.1,292.7,282.1,292.9,282.3,292.9L282.3,292.9z"/>
	<path class="st14" d="M275.8,402.3c1.2-0.2,2.1,1.3,1.8,2.6c-0.4,0.3-1.1,0.4-1.5,0.8C275.8,405,276.7,403.2,275.8,402.3
		L275.8,402.3z"/>
	<path class="st14" d="M277.8,429.4c-3.1,0.9-6-1.8-5.6-3.9c1.1,0.5,1.5,1.7,2.4,2.5C275.7,428.8,277,428.6,277.8,429.4L277.8,429.4
		z"/>
	<path class="st14" d="M274.8,405.8c2.2,3-5,4.4-4.9,1C272.1,407.4,273.4,406.3,274.8,405.8L274.8,405.8z"/>
	<path class="st14" d="M272.8,290.8c0.5,0,0.7-0.3,1.2-0.3c-0.3,1.3-1.6,1.7-1.6,2.8c-0.2-0.1-0.2-0.5-0.4-0.6
		c-1,0.6-2.4,0.8-2.8,1.8c-0.8-0.2-1,0.2-1.6,0.4c-0.1,0.4,0.2,0.4,0.1,0.8c-0.6,0.1-0.7-0.4-1.1-0.5c-0.3,0.2-0.7,0.3-1.1,0.4
		c0.1-0.7,0.9-0.6,1.1-1.2c-0.1-0.6-0.1-1.1,0-1.6c0.3-0.1,0.3,0.2,0.7,0.1c0.2,0.2,0,0.7,0.3,0.9c0.9-0.3,1.7-0.9,1.4-2.5
		c0.7,0,1.2,0.3,1.2,0.9c0.6-0.2,1.1-0.6,1.8-0.8c-0.1-1,0.2-1.6,0.1-2.5c0.2,0,0.4,0,0.5,0C272.9,289.5,272.8,290.2,272.8,290.8
		L272.8,290.8z"/>
	<path class="st14" d="M272.4,367.4c1,0.6,0.9,2.5,0.3,3.4c-1.1,0.6-2.5,0.9-4.3,0.8C269.7,370.2,272.7,370.3,272.4,367.4
		L272.4,367.4z"/>
	<path class="st14" d="M267.5,421.8c1.3,0.4,2.3,1.6,2,2.8c-0.3,1.2-2.4,1.4-4.1,1.9c-0.6,0.2-1.1,0.8-1.5,0.8c-0.9,0-1.5-1-1.2-1.7
		c2-0.4,4.4-0.4,5.3-1.9C268,422.9,267.6,422.5,267.5,421.8L267.5,421.8z"/>
	<path class="st14" d="M269.5,390.4c0.1,1.8-1.5,3.4-1.6,5.9c0.7,0.9,2.3,0.9,2.7,2.1c-2.9,1-4.8-1.7-7.1-2.8
		c-1.9-1-4.1-1.1-5.8-2.3c0.1-0.6-0.6-0.5-0.4-1.3c3.9,0.5,6.2,2.5,9.4,3.7C267.1,393.5,267.4,390.5,269.5,390.4L269.5,390.4z"/>
	<path class="st14" d="M265.6,398.8c3.3,1.4-0.1,7.1,0.9,9.3c-1.8,0.6-4.6,0.2-6.6-0.4c-0.8,1.5-0.2,3.2-0.1,4.9
		c0.1,1.8-0.3,3.7-0.3,5.7c0,5.2,0.1,10.8-0.9,15.5c-0.8-2.4-0.3-5.4-0.4-8.3c-0.2-5.2-0.3-11-0.1-15.9c0-0.8,0.6-1.9-0.4-2.3
		c-0.6,4.5,0,10.3-1.1,14c-0.4-4.3-0.5-10-0.7-14.2c-2.6-0.7-5.4-1.2-8-1.8c0-0.5,1-0.2,1.2-0.5c-0.6-2.5-1.2-5.7-1.1-8.5
		c2.3,1.6,1.1,6.6,2.7,8.8c1.9,0,3.4,0.3,5.2,0.4c0.2-1.4,0.1-3.6,0.3-5.2c0-0.2-0.1-1.2,0.1-0.8c0.7-0.5,0.7,1.2,0.7,1.7
		c0,0.8,0.1,1.8,0.1,2.7c0.1,0.8-0.3,1.9,0.8,1.9c0.6-1.2,0.7-7.7,0.7-9.4c1,0.2,1.1,1.6,1.2,2.6c0.2,2.1-0.2,4.9,0,7
		c1.7,0.6,3.8,0.8,5.7,1.3C265.7,404.6,265.6,401,265.6,398.8L265.6,398.8z"/>
	<path class="st14" d="M264.5,387.3c-0.5,0.3-0.4-0.7-0.9-0.8c-2.6-0.5-4.9,0.3-6.4,1.3c-0.5,0.3-0.6,0.8-1.1,0.8
		c-0.7,0-1.1-0.5-1.4-1.3C255.9,384.5,263.7,383.5,264.5,387.3L264.5,387.3z"/>
	<path class="st14" d="M264.1,354.9c2.7,1.6,0.7,6.2-0.3,8.4c-0.4-2.6,0-6.3,0-8.4C263.9,354.9,264,354.9,264.1,354.9L264.1,354.9z"
		/>
	<path class="st14" d="M262.5,381.3c1.3,0,2,0.6,2.6,1.3c-1.5,1-5.1,0.3-4.5-1.6c-0.7-0.4-2-1.2-1.1-2.2c1.2,0.3,2,1.1,3,1.7
		C262.5,380.8,262.5,381.1,262.5,381.3L262.5,381.3z"/>
	<path class="st14" d="M261.4,296.4c0.6-0.1,1.2,0.7,0.5,1C261.4,297.4,261.4,296.9,261.4,296.4L261.4,296.4z"/>
	<path class="st14" d="M259.1,296.8c2.1-0.6,1.4,2.2,0.7,3.1C259.1,299.3,259.4,297.7,259.1,296.8L259.1,296.8z"/>
	<path class="st14" d="M244.4,359.1c5.8,0.6,11.6-1,16.8-0.5c-0.9,1.3-3,0.9-4.9,1C252.3,359.9,246.9,361.3,244.4,359.1L244.4,359.1
		z"/>
	<path class="st14" d="M263.7,322.1c-2.8,2.8-6.5,4.8-10.4,6.5C256.4,326.1,259.9,324,263.7,322.1L263.7,322.1z"/>
	<path class="st14" d="M252.9,392.6c1.5-0.3,3.2-1.2,3.9-0.3c-3.1,2.2-8.6,2.1-13.2,3C245.5,393.8,249.6,393.3,252.9,392.6
		L252.9,392.6z"/>
	<path class="st14" d="M252.9,387.4c0.7,0.5,1.8,0.4,1.8,1.6C253.7,389.9,251.9,388.5,252.9,387.4L252.9,387.4z"/>
	<path class="st14" d="M254.1,425.5c0,0.2-0.1,0.5,0.1,0.5c-0.2,0.6-1,0.5-1.6,0.6c0.1-2.9-3.2-2.5-4.9-3.7
		C250.5,421.7,252.2,424.6,254.1,425.5L254.1,425.5z"/>
	<path class="st14" d="M254.3,305.7c-0.1,0.5-0.8,0.5-0.8,1c-6.6-0.1-15.6,0.1-20.5-2.5C239.8,304.2,247.8,305.2,254.3,305.7
		L254.3,305.7z"/>
	<path class="st14" d="M250,416.4c1.7-0.3,3.3,1.5,2.6,3.1c-2.8,0.5-5.7,2.2-9.9,2.5c-2,0.1-4.7,0.3-4.6-1.7
		c4.2-0.1,9.2-0.7,13.2-1.8c0.1-1.2-2-2.4-3.5-2.8c-2.1-0.5-4.4,0.3-6.2-0.1C243.4,412.9,248.5,414.2,250,416.4L250,416.4z"/>
	<path class="st14" d="M252.4,428c0.1,0.7-0.2,1-0.1,1.7c-1.7,1.5-7.9,3.9-7.9-0.8c2.1,2,5.5,0,7.6-1
		C252.3,427.8,252.3,428,252.4,428L252.4,428z"/>
	<path class="st14" d="M249.7,362.6c0,0.6,0.9,1,0.7,1.4c-1.2-0.1-3.3-0.9-3.7-1c-4.9,0.2-8.1,2-11.7,3.5c1.1-3,5.3-4.2,9.5-4.8
		c0-0.3-0.3-0.5,0-0.8C246.8,361,247.6,362.4,249.7,362.6L249.7,362.6z"/>
	<path class="st14" d="M253.8,301.8c-5.3,0.7-12.6,0.7-16.8-1.4c0-0.1,0.1-0.1,0.1-0.1c1.1,0,2.2,0.3,3.3,0.4
		C244.9,301,249.7,300.8,253.8,301.8L253.8,301.8z"/>
	<path class="st14" d="M239.7,374.6c3.3,1,7.5,1,11.3,0.4c-1.7,2.9-8,2.2-11,0.9C239.9,375.4,239.6,375.2,239.7,374.6L239.7,374.6z"
		/>
	<path class="st14" d="M233.5,356.8c1.8-2.5,9.4,0.1,9.4,2.7c-1.8-2.2-6.7-3-9.1-0.9C232.9,358.3,233.1,357.2,233.5,356.8
		L233.5,356.8z"/>
	<path class="st14" d="M239.4,407.2c1.9,1,4.1,1.8,5.4,3.4c-3.6,2.8-9.6,3.8-15.5,3.4c-0.5-0.4-1.2-0.7-1.6-1.2
		c0.2-1.2,1.9-0.8,2.8-0.8c4.6,0.1,8.9-1,12.2-2.3c-0.4-0.7-1.4-0.9-2-1.4c-0.3,0.1-0.2,0.7-0.5,0.8c-1.2-0.2-2-0.6-2.2-1.7
		c-1.8,0.6-4.1-0.1-6,0.4c-0.9,0.2-1.4,1.3-2.3,1c-1.4-0.9-0.2-2.4,0.7-3c2.8-0.1,6.5-0.4,9.1,0.9
		C239.9,407,239.3,406.8,239.4,407.2L239.4,407.2z"/>
	<path class="st14" d="M239.8,436.4c-0.5,0.3-1.2,0.3-1.8,0.5c2.2-2.6-1-6.9-3.3-8.5c-0.8-0.6-2-0.9-2.6-1.3
		c-0.7-2.3-0.7-5.2-2.2-6.9c-0.3,0.1-0.3-0.4-0.7-0.8c-0.6,0-1-0.2-1.2-0.8c-1.3,0.1-2.4-0.3-2.2-1.9c0.2-0.2,1-0.2,1.2,0
		c-0.3-1.3-2.3-2-2.3-4c-1.7-2-4.9-2.6-5-6.1c0.6,0,0.7,0.5,1.2,0.6c1.4,2.6,4.4,3.8,6.1,6.2c0.2,0.5-0.4,0.3-0.4,0.6
		c0.5,1.4,1.3,2.4,2,3.5c2.4,0.8,4.3,4.2,4.7,7c0.1,0.4-0.1,0.9,0,1.3c0.3,0.8,1.4,1.2,2.2,1.4C242,430.5,239.9,435.7,239.8,436.4
		L239.8,436.4z"/>
	<path class="st14" d="M234.1,367c0.3,0,0.6,0.1,0.7,0.4c-0.2,0.9-1.3,1.4-1.6,2.6c-0.4,1.8-0.2,4.1,0,5.8
		C231.1,373.8,231.8,368.1,234.1,367L234.1,367z"/>
	<path class="st14" d="M232.9,402.7c0,0.8-0.5,1-0.5,1.8c-1.6,0.8-4.3,0.7-5.7,1.8c-2.6,0.2-4.6-0.1-5.6-1.4
		c0.1-0.4-0.2-0.5-0.1-0.9c2.3-0.9,7.5,0.2,9.9-1c-0.1-0.9-1.1-0.8-1.8-1C230.2,400.7,232.6,401.4,232.9,402.7L232.9,402.7z"/>
	<path class="st14" d="M232.5,299.4c1.7,1.2,0.2,3.6-0.7,4.8C230.7,302.9,231.9,300.5,232.5,299.4L232.5,299.4z"/>
	<path class="st14" d="M232.2,367.4c0.2,1.9-2.5,2.2-3.9,1.4c-0.2-0.6-0.5-1.2-0.3-1.8C229.5,367,230.7,367.3,232.2,367.4
		L232.2,367.4z"/>
	<path class="st14" d="M230.9,343.8c0,2.8,0.7,6,0.4,8.7c-0.1,1.2-0.5,2.9-1.6,3.6c-0.1-4.2-0.4-10.2-0.1-15.6
		c0.8,0,1.1,0.5,1.6,0.8C231.4,342.1,230.9,343,230.9,343.8L230.9,343.8z"/>
	<path class="st14" d="M229.9,375.1c0.6,0.6,1.6,0.8,2,1.7c-1.8,1.9-8.2,3.9-9.5,0.3C224.7,376.8,228.7,377.3,229.9,375.1
		L229.9,375.1z"/>
	<path class="st14" d="M230.2,357.8c0.5,0.2,0.8,0.4,1.1,0.8c-0.7,2.3-2.4,3.5-2.6,6.2c0.7,0.4,1.3,1,1.6,1.8
		c-2.6,0.9-3.1-3.2-3.1-5.2c-0.5-1.3-2.6-1-2.7-2.6c1.4-0.1,1.9,0.6,2.7,1.3c0.2,0.1,1,0.8,0.9,0.8
		C228.8,360.8,229.5,358.3,230.2,357.8L230.2,357.8z"/>
	<path class="st14" d="M230.1,396.5c4.4,2.7-3.2,4.3-6.4,2.8c-1.9,1.4-6.1-0.1-4.3-2.3c2.1,0.9,5.1,1.2,8.3,0.8
		C228.7,397.6,229.8,397.2,230.1,396.5L230.1,396.5z"/>
	<path class="st14" d="M227.2,372.1c0.3,0,0,0.5-0.4,0.6c-1.1-0.5-3.1-0.2-3.8-1c0.1-0.2,0.4-0.3,0.4-0.5
		C224.8,371.4,225.9,371.9,227.2,372.1L227.2,372.1z"/>
	<path class="st14" d="M224.8,391.5c1.1,0.5,1.7,1.6,2.2,2.7c-2,0.6-6.5,2.3-7.7-0.1c1.5-0.7,4-0.4,5.7-0.9
		C224.9,392.6,224.5,392.1,224.8,391.5L224.8,391.5z"/>
	<path class="st14" d="M226.1,381.2c-1,0.2-2.5-0.1-3.8-0.3C223.3,379.6,225.9,378.6,226.1,381.2L226.1,381.2z"/>
	<path class="st14" d="M219.6,367.9c1.7-0.4,3.7,0.7,5.6,0.1C223.9,368.9,219.7,371.1,219.6,367.9L219.6,367.9z"/>
	<path class="st14" d="M224,350.7c0.2,2.3,0.8,4.1-1.4,4.8c-0.2-5.2-0.6-9.4-0.5-14.9c0-0.6,1.1,0,1.5,0.3
		C223.8,343.7,223.7,347.2,224,350.7L224,350.7z"/>
	<path class="st14" d="M223.1,388.6c0.8,0,1.6,0.8,1.9,1.8c-1.5,1-6.5,2.9-6.4-0.8c1,0,1.9,0.3,2.8,0
		C222.2,389.4,222.4,388.6,223.1,388.6L223.1,388.6z"/>
	<path class="st14" d="M221.7,384.9c0.8,0.4,1.5,1,1.5,2.2c-1.6,0.5-5.1,0.8-5.8-0.6C218.1,385.3,220.3,385.6,221.7,384.9
		L221.7,384.9z"/>
	<path class="st14" d="M224,358.1c-0.6,0.2-1.2,0.1-1.8,0.3c-4.3,1-6.6,3.7-9.4,6.2c-2.5-1.2,1.2-3.9,3.3-5.3
		C218.4,357.7,221.9,356.6,224,358.1L224,358.1z"/>
	<path class="st14" d="M220.8,380.9c0.9,0,1.3,0.5,1.8,1c-0.2,2.6-6.2,2.9-5.2-0.5C218.5,381.8,220.5,381.9,220.8,380.9L220.8,380.9
		z"/>
	<path class="st14" d="M221,354.2c0.1,0.3,0.3,0.8,0,1c-3.6,1.4-8.8,0.6-13,0.8C211.1,354.3,216.8,354.9,221,354.2L221,354.2z"/>
	<path class="st14" d="M211.9,396.8c10.9,2.6,6.9,9.3,5.8,9.7c1.6-3.6,0-3.9-3.7-7.8c-1-1.1-3.5,1.4-4.2-0.6c0-0.5,0.6-0.5,0.7-0.9
		c-1.6-1.8-2.6-3.7-5.2-4.3c-0.9-0.2-1.8,0-2.4-0.5c-0.3-0.2-0.3-0.8-0.5-1.2c-1.6-2.4-4.5-4.4-9-4.3c-0.5-0.4-0.8-1-0.9-1.7
		c5-0.1,8.2,2.5,10.6,5.3C207.1,391.5,209.7,393.9,211.9,396.8L211.9,396.8z"/>
	<path class="st14" d="M217.7,391.9c0.2,0.9,0.2,1.6-0.1,2.2c-0.4,0.6-0.2,1.7-1.2,2.3c-0.5-0.1-1-0.6-1.1-1
		c-0.1-0.5,0.4-0.8,0.5-1.3c0.6-2.6-1.2-6-2.6-7.5c0.1-0.6-0.4-1,0-1.4c-2.4-2.8-6.2-4.2-11.1-4.5c-0.6,0.1-0.5-0.5-0.9-0.5
		c-2,0.7-3.9,3-6.5,3c-1.7,0-4.4-0.4-4.3-2.3c1.6-0.2,3.1,0.8,5,0.4c1.5-0.3,4-1.3,4.5-2.1c1-1.6-0.7-3.6-0.4-5
		c1.6,0.8,2.9,2.7,2.3,5.2c4.1,0.5,8.6,2.1,11.1,4.9c0.5,0.5,0.7,1.2,1.2,1.7c0.7,0.6,1.6,0.6,2.2,1.6
		C216.7,388.3,217.4,390.7,217.7,391.9L217.7,391.9z"/>
	<path class="st14" d="M216.5,370.6c0.7,0.1,1,0.5,1.4,0.9c-0.8,0.7-2.6,0.5-3.4,1.2c0.1,0.5-0.3,1-0.8,1.3c0.1,0.7,0.2,1.4,0.4,2.1
		c-1.4,0-1.5-1.5-1.2-2.7c-2.1,0.9-7.6,1.6-7.9-1.4C209,373,213.5,372,216.5,370.6L216.5,370.6z"/>
	<path class="st14" d="M215.8,369.6c-0.1,0.6-0.5,1-0.9,1.3c-1.2,0-0.6-1.7-1.5-1.9c1-2.3-2.5-3.2-3.1-5.2c-2.1-0.7-5.6-1.1-7.5,0.1
		c-3.4-2.3-5.2,3-5.8,5.4c-3.9-0.7,1.8-8.8,4.7-6.3c1-0.9,1.9-2.2,3.9-1.7c-0.1-1.4-1.7-1.9-1.5-3.2c1.5,0.5,1.8,2,3,2.8
		c0,0.3,0,0.6-0.1,0.8c0.6,0.6,1.8,0.6,2.7,0.9c-1.3-2.3-3.9-4.5-5.4-7c0.1-0.4,0.5-0.5,0.9-0.5c2,2.5,4.4,4.6,5.7,7.9
		c0.1,0.3,0.6,0.3,0.8,0.5c0.1,0.4-0.3,0.3-0.3,0.5c1.3,1.6,3.6,2.2,3.7,4.9C215.2,369.3,215.7,369.2,215.8,369.6L215.8,369.6z"/>
	<path class="st14" d="M216,416.5c-0.4,0.4-1.3,0.3-1.8,0.6c-2.5,1.4-5.8,2-8,3.6c-0.8,0.5-2.1,2.2-3,2.1c-0.5-0.1-1.4-1.4-1.9-1.9
		c-2-2.2-4.6-4-8.8-3.7c-1.5,0.1-3.2,1.2-4.5,0c0-0.6,0.4-1,0.7-1.4c6.4-1,10.8,1.8,13.8,4.8C205.9,418.1,210.2,416.6,216,416.5
		L216,416.5z"/>
	<path class="st14" d="M207.1,345.9c0,3.3,0.7,7.4-0.7,10c-0.9-0.6-0.4-1.5-0.4-2.5c0-3.4-0.3-8.2,0.3-11.2c0-0.1,0-0.3,0-0.4
		c0.1,0,0.2,0,0.3,0C207.6,342.8,207.1,344.4,207.1,345.9L207.1,345.9z"/>
	<path class="st14" d="M204.3,341.2c1.5,3.8,0.8,9.8,0.1,14c-1.3-4.4-0.5-9.6-0.4-14.1C204.2,341.1,204.3,341.1,204.3,341.2
		L204.3,341.2z"/>
	<path class="st14" d="M185.6,361.7c-0.3-1-0.3-1.6-0.7-2.6c-0.4,0.1-0.9,0.1-1.2,0.3c-0.4,0.7-0.4,1.8-0.5,2.7
		C184,361.9,184.7,361.7,185.6,361.7L185.6,361.7z M194.4,360.4c-0.1-1.1-0.2-2.3-0.1-3.6c-0.6,0.2-0.9-0.1-1.5,0.1
		c0.2,1.4-0.1,2.2-0.1,3.7C193.3,360.6,193.8,360.4,194.4,360.4L194.4,360.4z M197.8,359.9c0.1-1.1-0.2-1.8-0.1-2.8
		c-2.1-0.8-2.5,2.2-2.3,3.2C196.2,360.2,197.1,360.2,197.8,359.9L197.8,359.9z M199.9,357.3c1.3,1.1,3.9,2.5,3,4.5
		c-1.3,0.2-1.3-0.9-1.6-1.7c-0.8-0.7-1.2-1.8-2-2.5c0,0.6,0,1.3,0,1.9c0.8,0.2,1.9,0.2,1.6,1.4c-0.5,0.4-2.4-0.4-2.3,0.6
		c-0.8-0.4-2.9-0.8-3.4,0.3c-0.5-0.5-1.6-0.4-2.4-0.6c-0.4,1.9-0.1,4.6-0.1,7.5c2.1,1.2,5.7,2.3,5.7,4.7c-1.9,0.3-2.7-1.9-4.3-2.3
		c-0.6-0.2-1.2,0.1-1.6,0c-1-0.3-0.8-1.3-1.9-1.4c-0.1-0.3,0.3-0.3,0.4-0.4c-2-1-3.5-3-6.2-3.4c-2.1-0.3-4.7,1.4-5.2-0.9
		c0.7-1,2.7-1,4.1-0.8c2.2,0.3,4.2,2.1,5.7,2.7c0-1.7-0.1-3.2-0.3-4.7c-4.3,0.7-8.3,1.6-12.2,2.2c0,0.7,0.3,1.2,0,1.8
		c-1.3,0.5-1.8-0.6-2.2-1.3c-2.4-0.9-3.9-2.1-7.5-1.8c-2.9,0.2-5.7,1.9-8.1,0.9c0.8-1.2,2.6-1.6,3.9-1.9c2.6-0.6,6.2-0.4,8.4,0.5
		c1.4,0.6,2.7,1.9,4.7,1.7c2.2-0.3,4.2-2.1,6.5-2.2c0.1-1-0.2-1.7-0.1-2.7c-1.7-0.5-2.5,0.9-2.8,2.1c-0.5-0.2-0.2-1.1-0.3-1.7
		c-0.2-0.2-0.8-0.1-1.2-0.1c-0.4,0.4,1,0.8,0.4,1.3c-1,0.3-1.6-0.8-1.9-1.6c-3-0.7-6-1.2-8.7-2.2c0.7-1.2,2.8-0.3,4.3,0.1
		c2.2,0.6,4.5,0.9,5.6,2.2c0.4-0.2,0.9-0.3,1.5-0.4c0.1-1,0.2-2,0.4-2.8c-0.4-0.3-1,0.2-1.4-0.3c-0.9-0.4-0.7-1.3-1.6-1.7
		c-1.1-0.4-3,0.3-3.7-1c1.2-1.9,4.8-0.2,5.7,0.9c1.6-2,3.4-3.8,6.6-4.3c0.4,0.3-0.6,0.7-0.9,1c-0.5,0.5-0.7,1.3-1.4,1.4
		c-0.3,0.8-1,1.4-1.8,1.8c-0.2,0.6-0.7,1-0.8,1.7c0.4,0.3,0.4,1.1,0.9,1.3c-0.3,0.5-0.4,1.1-0.7,1.6c0.6,0,1-0.2,1.5-0.3
		c0.2-0.9,0.1-2.2,0.3-2.7c0.4-0.3,0.9,0.2,1.4,0.3c0.3,0.6,0.2,1.4,0,2.1c1.9,0.2,0.7-2.5,1.5-3.4c1.2,0.4,1.4,1.4,1.2,3
		c0.7,0.1,1.5-0.4,2,0c0,1-1.2,0.9-2,1c-0.1,1-0.5,1.7-0.7,2.7c1,0.1,2.3-0.4,3,0.1c0.1-7.3,0.1-17.3-0.1-25.1
		c2,5.4,1,13.3,1.4,20.2c0.2,3,0.3,7.4,0.1,10.9c0.2,0.3,0.4,0.4,0.8,0.5c-0.2-10.7,0.4-21.8,0.4-33.9c0.1,0,0.3,0,0.4,0
		c1,3.5,0.3,8.2,0.5,12.9c0.2,3.2,0.4,6.3,0.1,9.2c0.7,0,0.9-0.3,1.6-0.3c0-0.7,0-1.3-0.1-1.8c0.6,0,1.2,0,1.6,0.1
		c0.2,0.4,0.3,1,0.4,1.4c0.7,0.1,1.1-0.2,1.5,0c0.3-0.7,0.2-1.8,0.5-2.5c1.4-0.1,1.5,1.7,1.2,2.7c0.4,0.5,1.5,0.3,2,0.6
		C201.4,357.4,200.6,357.3,199.9,357.3L199.9,357.3z"/>
	<path class="st14" d="M201.8,341.2c1.1,4.3,0.8,9.8,0.4,14.2c-1.4-3.9-0.7-9.8-0.8-14.4C201.7,341.1,201.7,341.2,201.8,341.2
		L201.8,341.2z"/>
	<path class="st14" d="M193,388.3c-1.2,1.5-1.8-0.5-2.2-1.2c-1.4-2.8-4.1-7.7-8.8-5.9c-0.4-0.2-0.8-0.5-0.9-0.9
		c0-0.5,0.6-0.5,0.8-0.8c-0.9-1.4-4.2-0.6-5.8-0.4c-0.7-0.2-0.8-0.9-1.2-1.4c2.5-0.9,6-0.2,7.3,1.7C188.8,379,190.2,384.7,193,388.3
		L193,388.3z"/>
	<path class="st14" d="M184.6,400.8c2.1-1.9,5.1-3.8,9.4-2.8c-4.2,1-7.1,3.2-9.1,6.3c-0.6,0.3-0.9,1-2,0.8c-0.8-1.1,0.1-2.7,0.9-3.4
		c-3.6-3.6-10.3-0.4-11.9,3c-1.3-0.2-1.1-2-0.5-2.7c1.1-1.4,4.4-3.4,7.1-3.4C180.8,398.7,183,399.9,184.6,400.8L184.6,400.8z"/>
	<path class="st14" d="M183.4,332.5c2.5,0.1,4.3-0.4,4.9,1.6c-2.6-0.6-5.5-0.2-8.1-0.5C180.1,331.9,181.8,332.4,183.4,332.5
		L183.4,332.5z"/>
	<path class="st14" d="M173,345.4c2.5-1.9,5.8-3.7,10.3-3.2c-3.7,1.2-7.1,2.7-9.1,5.4c-0.9-0.2-1.2-0.9-1.4-1.8
		c-0.3,0.1-0.7,0.2-1.2,0.1c-4.2-1.2-6.3-5.8-11.5-3.9c-1.2,0.4-2.1,1.2-3.5,0.6c1.1-4.5,8.8-2.5,10.7-0.1
		C169.7,343,171.7,343.8,173,345.4L173,345.4z"/>
	<path class="st14" d="M178.4,391c-0.4,0.3-0.7-0.6-1.1-0.6c-2.7-0.2-4.4,1-6.2,2.2c-2.1,1.4-3.6,2.4-4.7,4.4
		c-0.7-0.3-0.7-0.9-0.7-1.6c0.1-2.1,5.1-5.6,8-6.1C175.6,389,178,389.6,178.4,391L178.4,391z"/>
	<path class="st14" d="M168.6,375.5c3.4-0.3,6.2,0.7,5.4,3.6c-1.3-0.1-1.5-1.1-1.8-2.2c-2,0-3.8,0.4-4.9-0.6
		c-0.1-0.6,0.2-0.8,0.1-1.4c-1.3-1.3-2.8-2.4-5-2.6c-2.6-0.2-5.2,1.4-7.5,0.8c0.2-1.9,3.7-2.2,6-2.1c3.3,0.2,5.9,2.2,7.5,3.6
		C168.6,375,168.9,375,168.6,375.5L168.6,375.5z"/>
	<path class="st14" d="M169.8,330.6c1,0.2,1.8,0.5,2.2,1.3C171.2,333.6,168.9,332,169.8,330.6L169.8,330.6z"/>
	<g>
		<defs>
			<rect id="SVGID_7_" x="146.7" y="219.4" width="352.9" height="228.7"/>
		</defs>
		<clipPath id="SVGID_8_">
			<use xlink:href="#SVGID_7_"  style="overflow:visible;"/>
		</clipPath>
		<path class="st16" d="M167.8,350c1.8,0.2,4,1.2,5,2.5c-2-0.7-3.5-2.1-6.5-1.6c-2.3,0.5-3.5,5.1-5.4,3.4
			C162.2,352,164.4,349.7,167.8,350L167.8,350z"/>
		<path class="st16" d="M170.9,329.5c-0.9,0.8-2.9-0.1-3,1.6c-0.5,0-1.1,0-1.6,0c-2.2-2.3-4-4.3-9.1-4c-1.6,0.1-3.6,0.5-5.2,1
			c-2.1,0.7-6.3,2.8-5.3-0.4c3-1.1,6.9-2.5,11-2.2c3.3,0.3,5.9,2,7.7,3.5c1.1-0.2,1.2,0.6,2,0.6c0.5-0.1,0.7-0.6,0.8-1
			C169.5,328,170.2,328.9,170.9,329.5L170.9,329.5z"/>
	</g>
	<path class="st14" d="M159.4,361.5c-0.5-3.4,4.9-5,8.3-4.9c-1.8,1.3-4.1,2.1-6,3.4c-0.6,0.6-0.9,1.4-1.6,1.8
		C159.8,361.7,159.7,361.5,159.4,361.5L159.4,361.5z"/>
</g>
<g>
	
		<rect x="-106.6" y="206.5" transform="matrix(8.772807e-02 -0.9961 0.9961 8.772807e-02 -158.6904 339.1005)" class="st17" width="424.8" height="99.4"/>
	<path class="st18" d="M114.3,62.4c4.6-3.7,7-0.4,8.4,1.5c1.4,2,8.3,10.3,9.6,13.8c1.3,3.4,1.2,6.6,0.1,8.7
		c-1.3,2.5-8.7,7.5-10.2,8.5c-2,1.4-6.3,1.1-7.7-0.9c-1.4-2,0-4,1.9-5.3c2-1.4,8.6-4.1,8.7-5.8c0.1-0.8,0.1-1.6-1.3-3.3
		c-2.3-2.7-10-11.5-11.2-13.2C111.4,64.8,112.2,64.1,114.3,62.4z"/>
	<path class="st18" d="M106.5,95.5c1-1.6,3.2-1.9,5,0.9c1.3,2,9.7,19.9,8.8,27.5c-1.4,10.7-5.2,17.6-14.1,18.5
		c-4.8,0.4-6.6-0.2-7-2.2c-0.4-1.6,0.1-5,3.8-6.1c3.6-1.1,8.5-2.3,9.3-5.6c1.2-4.7,0.4-7.4-2.1-13.1c-2.4-5.6-3.7-9.9-4.5-11.4
		C103.3,99.2,105.7,96.9,106.5,95.5z"/>
	<path class="st18" d="M94.8,112.4c2.4,0.4,1.8,1.8,1.1,3.6c-0.6,1.6-6.8,9.1-7.5,12.4c-0.6,3.3-2.9,12.9-6.3,12.6
		c-4-0.4-2.6-7.5-1.5-10.6C81.7,127.3,91.4,111.8,94.8,112.4z"/>
	<path class="st18" d="M139.6,118.8c-1.7,1.5,0.1,6.1,1,9.1c1.1,3.6-0.8,13.8,2.6,14.3c4,0.6,7.1-4.3,6.5-9.6
		c-0.5-4.3-3.2-9.1-5.9-15C143,115.9,140.5,118.1,139.6,118.8z"/>
	<path class="st18" d="M102.2,379.3c-1.6-0.1-1.2-4.1-1.2-4.9c0.2-2.4,10.1-6.7,15-5.8c5.5,1,9.4,3.3,9.5,10.3
		c0.1,8.9-16,22.6-16.9,18.7c-0.6-2.5,0.2-2.4,1.9-3.9c3.1-2.6,10.4-7.9,9.3-13.7c-1.1-5.7-4.4-5.2-7.6-4.7
		C107.8,376.1,104,379.5,102.2,379.3z"/>
	<g>
		<path class="st18" d="M115.1,415.9c0.4,0.2,0.7,1.7,0.6,2.5c-0.1,1.4-3.7,4.9-7.7,8.2c-4.3,3.6-8.5,7.6-10.6,11.1
			c-1.9,3.1-4,5.4,3.2,6c5.7,0.5,13-1.3,18-3.2c5-2,6.6-1.8,6.2,2.2c-0.3,3.6-15.2,9.7-26.3,7.9c-7.9-1.3-9.4-1.9-9.1-8.6
			C89.8,434.4,112,414,115.1,415.9z"/>
		<path class="st18" d="M91.4,409.9c9.2-11,6.8-0.1,6.9,3.9c0.1,6.4,4.5,11.4,2.5,13.5C98.9,429.3,89.6,412.1,91.4,409.9z"/>
	</g>
	<path class="st18" d="M151.9,86.2c-7.7-1.4-13.3,6.9-14,10.8s3,12.6,8.2,13.5c6.5,1.2,12.2-8.4,12.9-12.3
		C159.7,94.3,157,87.2,151.9,86.2z M148.6,104.3c-3.9-0.7-6.8-6.6-6.3-9.2s3.5-4.7,7.4-4c2.6,0.5,5.7,5.1,5.3,7.6
		S152.4,105,148.6,104.3z"/>
	<g>
		<path class="st18" d="M117.4,177.1c3.7,3.7-2.6,8.3-7.2,14.4c-4.6,6.1-12,18.5-13.6,26.9c-1.5,8.4-0.5,12,3.9,16.3
			s21.2,16,25,23.6c3.8,7.6,8.9,17.2,5,38.9c-4,21.7-18.3,43.3-24.8,50.7c-6.5,7.4-34.4,36.4-36,36.6c-4.3,0.5-1.5-10.6,0.5-12
			s35.7-34.9,40.9-44.3s12.3-20.2,14.5-31.9s-0.1-27.6-18.3-41.3s-20.6-19.3-18.5-31s10.9-30.7,17.4-38.3
			C110.4,180.6,115.1,174.8,117.4,177.1z"/>
		<path class="st18" d="M123.5,154c6.1-2.3,9.4,8,9,11.1c-0.4,3.4-1.1,12.4-3.7,11.9c-1.5-0.3-2.4-5.4-5.8-12.3c-1-2-2.1-4.2-3-6.7
			C119.2,156.2,121.3,154.8,123.5,154z"/>
	</g>
</g>
</svg>
